<svg width="212.000000" height="50.000000" viewBox="0 0 212 50" fill="none" xmlns="http://www.w3.org/2000/svg" xmlns:xlink="http://www.w3.org/1999/xlink">
	<desc>
			Created with Pixso.
	</desc>
	<defs/>
	<path id="Forma 1 copy" d="M29.49 36.18C29.5 35.75 29.64 35.33 29.88 34.97C30.12 34.61 30.47 34.34 30.87 34.18C31.27 34.02 31.7 33.98 32.12 34.07C32.54 34.16 32.93 34.37 33.23 34.68C33.53 34.99 33.73 35.38 33.81 35.81C33.89 36.23 33.85 36.67 33.68 37.07C33.52 37.47 33.24 37.81 32.88 38.05C32.52 38.29 32.1 38.42 31.67 38.42C31.38 38.42 31.1 38.36 30.83 38.24C30.57 38.13 30.33 37.96 30.12 37.75C29.92 37.55 29.76 37.3 29.65 37.03C29.55 36.76 29.49 36.47 29.49 36.18ZM45.3 38.42C44.87 38.43 44.44 38.3 44.07 38.07C43.71 37.83 43.42 37.5 43.24 37.1C43.06 36.7 43.01 36.26 43.08 35.83C43.14 35.39 43.34 34.99 43.63 34.67C43.92 34.35 44.3 34.12 44.72 34.01C45.14 33.9 45.59 33.92 45.99 34.07C46.4 34.21 46.76 34.47 47.03 34.82C47.29 35.17 47.45 35.58 47.48 36.02C47.52 36.61 47.33 37.2 46.95 37.65C46.77 37.87 46.54 38.05 46.28 38.19C46.03 38.32 45.75 38.4 45.46 38.42L45.3 38.42ZM32.59 31.48C32.38 31.48 32.17 31.41 32 31.28C31.83 31.15 31.71 30.96 31.66 30.76L27.73 16.19L24.97 16.19C24.71 16.19 24.47 16.09 24.28 15.9C24.1 15.72 24 15.47 24 15.2C24 14.94 24.1 14.69 24.28 14.51C24.47 14.32 24.71 14.22 24.97 14.22L28.45 14.22C28.66 14.22 28.87 14.29 29.04 14.42C29.21 14.55 29.33 14.73 29.38 14.94L33.31 29.51L44.01 29.51L47.57 21.12L35.71 21.12C35.45 21.12 35.21 21.02 35.02 20.83C34.84 20.65 34.74 20.4 34.74 20.13C34.74 19.87 34.84 19.62 35.02 19.44C35.21 19.25 35.45 19.15 35.71 19.15L49.05 19.15C49.21 19.15 49.37 19.19 49.5 19.27C49.64 19.34 49.76 19.46 49.85 19.59C49.94 19.73 49.99 19.89 50 20.05C50.02 20.21 49.99 20.38 49.93 20.53L45.54 30.89C45.46 31.06 45.34 31.21 45.18 31.32C45.03 31.42 44.84 31.48 44.66 31.48L32.59 31.48Z" fill="#EF5B70" fill-opacity="1.000000" fill-rule="nonzero"/>
	<path id="Vector" d="M211.5 -0.41L211.5 46.99L0.5 46.99L0.5 -0.41L211.5 -0.41Z" stroke="#FF6A6A" stroke-opacity="1.000000" stroke-width="1.000000"/>
	<path id="Add to Cart" d="M76.05 26.92L74.88 30.22L73.41 30.22L77.68 18.58L79.13 18.58L83.41 30.22L81.93 30.22L80.76 26.92L76.05 26.92ZM90.88 28.88C90.59 29.35 90.02 30.4 88.34 30.4C86.15 30.4 84.63 28.65 84.63 25.88C84.63 23.13 86.15 21.38 88.36 21.38C90.06 21.38 90.59 22.42 90.88 22.88L91 22.88L91 18.58L92.34 18.58L92.34 30.22L91.04 30.22L91.04 28.88L90.88 28.88ZM100.81 28.88C100.52 29.35 99.95 30.4 98.27 30.4C96.08 30.4 94.56 28.65 94.56 25.88C94.56 23.13 96.08 21.38 98.29 21.38C100 21.38 100.52 22.42 100.81 22.88L100.93 22.88L100.93 18.58L102.27 18.58L102.27 30.22L100.97 30.22L100.97 28.88L100.81 28.88ZM111.34 21.49L113.2 21.49L113.2 22.63L111.34 22.63L111.34 27.72C111.34 28.85 111.9 29.03 112.49 29.03C112.79 29.03 112.97 28.99 113.09 28.97L113.36 30.17C113.18 30.24 112.86 30.33 112.36 30.33C111.22 30.33 109.99 29.6 109.99 28.08L109.99 22.63L108.68 22.63L108.68 21.49L109.99 21.49L109.99 19.4L111.34 19.4L111.34 21.49ZM78.36 20.42L76.5 25.67L80.31 25.67L78.45 20.42L78.36 20.42ZM122.63 25.9C122.63 28.6 121.04 30.4 118.68 30.4C116.31 30.4 114.72 28.6 114.72 25.9C114.72 23.17 116.31 21.38 118.68 21.38C121.04 21.38 122.63 23.17 122.63 25.9ZM85.97 25.85C85.97 27.72 86.84 29.19 88.52 29.19C90.13 29.19 91.02 27.83 91.02 25.85C91.02 23.9 90.15 22.58 88.52 22.58C86.81 22.58 85.97 24.01 85.97 25.85ZM95.91 25.85C95.91 27.72 96.77 29.19 98.45 29.19C100.06 29.19 100.95 27.83 100.95 25.85C100.95 23.9 100.09 22.58 98.45 22.58C96.75 22.58 95.91 24.01 95.91 25.85ZM116.06 25.9C116.06 27.65 116.88 29.19 118.68 29.19C120.47 29.19 121.29 27.65 121.29 25.9C121.29 24.15 120.47 22.58 118.68 22.58C116.88 22.58 116.06 24.15 116.06 25.9ZM79.08 37.42C81.43 37.42 83.33 38.83 83.77 41.22L82.36 41.22C82.02 39.6 80.63 38.74 79.08 38.74C76.97 38.74 75.31 40.38 75.31 43.4C75.31 46.42 76.97 48.06 79.08 48.06C80.63 48.06 82.02 47.19 82.36 45.58L83.77 45.58C83.33 47.97 81.43 49.38 79.08 49.38C76.11 49.38 73.95 47.08 73.95 43.4C73.95 39.72 76.11 37.42 79.08 37.42ZM103.31 40.49L105.18 40.49L105.18 41.63L103.31 41.63L103.31 46.72C103.31 47.85 103.88 48.03 104.47 48.03C104.77 48.03 104.95 47.99 105.06 47.97L105.34 49.17C105.15 49.24 104.84 49.33 104.34 49.33C103.2 49.33 101.97 48.6 101.97 47.08L101.97 41.63L100.65 41.63L100.65 40.49L101.97 40.49L101.97 38.4L103.31 38.4L103.31 40.49ZM96.22 49.22L94.88 49.22L94.88 40.49L96.18 40.49L96.18 41.81L96.27 41.81C96.59 40.94 97.49 40.35 98.54 40.35C98.74 40.35 99.09 40.37 99.24 40.38L99.24 41.74C99.15 41.72 98.78 41.65 98.43 41.65C97.15 41.65 96.22 42.51 96.22 43.69L96.22 49.22ZM91.02 48.03C90.74 48.6 89.95 49.42 88.43 49.42C86.77 49.42 85.45 48.44 85.45 46.74C85.45 44.74 87.22 44.38 88.83 44.17C90.43 43.97 91.08 44.03 91.08 43.38L91.08 43.33C91.08 42.21 90.48 41.56 89.24 41.56C87.97 41.56 87.27 42.24 86.97 42.88L85.7 42.42C86.38 40.83 87.88 40.38 89.2 40.38C90.32 40.38 92.43 40.69 92.43 43.47L92.43 49.22L91.08 49.22L91.08 48.03L91.02 48.03ZM86.79 46.81C86.79 47.74 87.57 48.22 88.63 48.22C90.22 48.22 91.08 47.15 91.08 46.06L91.08 44.83C90.86 45.1 89.33 45.26 88.77 45.33C87.72 45.47 86.79 45.78 86.79 46.81Z" fill="#F26376" fill-opacity="1.000000" fill-rule="evenodd"/>
</svg>
