<svg width="273.000000" height="50.000000" viewBox="0 0 273 50" fill="none" xmlns="http://www.w3.org/2000/svg" xmlns:xlink="http://www.w3.org/1999/xlink">
	<desc>
			Created with Pixso.
	</desc>
	<defs/>
	<path id="Rectangle 30" d="M0 0L273 0L273 50L0 50L0 0Z" fill="#F16D7F" fill-opacity="1.000000" fill-rule="evenodd"/>
	<path id="PROCEED TO CHECKOUT" d="M67.1531 19.2031C70.0984 19.2031 72.1882 21.5391 72.1882 25.1836C72.1882 28.8242 70.0984 31.1602 67.1531 31.1602C64.2116 31.1602 62.1257 28.8164 62.1257 25.1836C62.1257 21.5469 64.2156 19.2031 67.1531 19.2031ZM79.261 19.2031C81.7376 19.2031 83.4876 20.8594 83.8704 23L82.8001 23C82.4759 21.4102 81.0852 20.2031 79.261 20.2031C77.0579 20.2031 75.261 21.9609 75.261 25.1836C75.261 28.4141 77.0579 30.1602 79.261 30.1602C81.0852 30.1602 82.4759 28.9609 82.8001 27.3633L83.8704 27.3633C83.4876 29.5 81.7376 31.1602 79.261 31.1602C76.3235 31.1602 74.2337 28.8242 74.2337 25.1836C74.2337 21.5391 76.3235 19.2031 79.261 19.2031ZM135.483 19.2031C138.428 19.2031 140.518 21.5391 140.518 25.1836C140.518 28.8242 138.428 31.1602 135.483 31.1602C132.541 31.1602 130.455 28.8164 130.455 25.1836C130.455 21.5469 132.545 19.2031 135.483 19.2031ZM152.091 19.2031C154.567 19.2031 156.317 20.8594 156.7 23L155.63 23C155.305 21.4102 153.915 20.2031 152.091 20.2031C149.887 20.2031 148.091 21.9609 148.091 25.1836C148.091 28.4141 149.887 30.1602 152.091 30.1602C153.915 30.1602 155.305 28.9609 155.63 27.3633L156.7 27.3633C156.317 29.5 154.567 31.1602 152.091 31.1602C149.153 31.1602 147.063 28.8242 147.063 25.1836C147.063 21.5391 149.153 19.2031 152.091 19.2031ZM185.017 19.2031C187.493 19.2031 189.243 20.8594 189.626 23L188.556 23C188.232 21.4102 186.841 20.2031 185.017 20.2031C182.814 20.2031 181.017 21.9609 181.017 25.1836C181.017 28.4141 182.814 30.1602 185.017 30.1602C186.841 30.1602 188.232 28.9609 188.556 27.3633L189.626 27.3633C189.243 29.5 187.493 31.1602 185.017 31.1602C182.079 31.1602 179.989 28.8242 179.989 25.1836C179.989 21.5391 182.079 19.2031 185.017 19.2031ZM206.301 19.2031C209.246 19.2031 211.336 21.5391 211.336 25.1836C211.336 28.8242 209.246 31.1602 206.301 31.1602C203.359 31.1602 201.273 28.8164 201.273 25.1836C201.273 21.5469 203.363 19.2031 206.301 19.2031ZM43.6094 31L42.5469 31L42.5469 19.3633L46.3008 19.3633C48.7773 19.3633 50.0508 20.9219 50.0508 22.9531C50.0508 24.9883 48.7773 26.5508 46.3164 26.5508L43.6094 26.5508L43.6094 31ZM53.6151 31L52.5526 31L52.5526 19.3633L56.3065 19.3633C58.7791 19.3633 60.0565 20.8125 60.0565 22.8477C60.0565 24.4023 59.3065 25.5977 57.8572 26.0742L60.5447 31L59.3182 31L56.7674 26.2773C56.6268 26.2891 56.4783 26.2969 56.3221 26.2969L53.6151 26.2969L53.6151 31ZM93.234 31L86.3707 31L86.3707 19.3633L93.1207 19.3633L93.1207 20.3164L87.4332 20.3164L87.4332 24.6992L92.7614 24.6992L92.7614 25.6523L87.4332 25.6523L87.4332 30.0469L93.234 30.0469L93.234 31ZM102.728 31L95.8651 31L95.8651 19.3633L102.615 19.3633L102.615 20.3164L96.9276 20.3164L96.9276 24.6992L102.256 24.6992L102.256 25.6523L96.9276 25.6523L96.9276 30.0469L102.728 30.0469L102.728 31ZM114.266 25.1523C114.262 28.8125 112.266 31 108.766 31L105.359 31L105.359 19.3633L108.973 19.3633C112.301 19.3633 114.266 21.5352 114.266 25.1523ZM124.317 20.3164L120.63 20.3164L120.63 19.3633L129.067 19.3633L129.067 20.3164L125.38 20.3164L125.38 31L124.317 31L124.317 20.3164ZM160.263 31L159.2 31L159.2 19.3633L160.263 19.3633L160.263 24.6992L166.864 24.6992L166.864 19.3633L167.927 19.3633L167.927 31L166.864 31L166.864 25.6523L160.263 25.6523L160.263 31ZM177.882 31L171.018 31L171.018 19.3633L177.768 19.3633L177.768 20.3164L172.081 20.3164L172.081 24.6992L177.409 24.6992L177.409 25.6523L172.081 25.6523L172.081 30.0469L177.882 30.0469L177.882 31ZM193.189 31L192.126 31L192.126 19.3633L193.189 19.3633L193.189 25.6289L193.29 25.6289L198.97 19.3633L200.369 19.3633L195.396 24.7461L200.345 31L199.052 31L194.74 25.4844L193.189 27.2227L193.189 31ZM221.659 26.9961L221.659 19.3633L222.721 19.3633L222.721 27.0664C222.721 29.4414 220.936 31.1992 218.311 31.1992C215.694 31.1992 213.897 29.4414 213.905 27.0664L213.905 19.3633L214.967 19.3633L214.967 26.9961C214.967 28.8477 216.284 30.1992 218.311 30.1992C220.342 30.1992 221.659 28.8477 221.659 26.9961ZM228.794 20.3164L225.107 20.3164L225.107 19.3633L233.544 19.3633L233.544 20.3164L229.857 20.3164L229.857 31L228.794 31L228.794 20.3164ZM67.1531 30.1602C69.4499 30.1602 71.1609 28.3125 71.1531 25.1836C71.1531 22.0508 69.4499 20.2031 67.1531 20.2031C64.8679 20.2031 63.1531 22.0469 63.1531 25.1836C63.1531 28.3008 64.8523 30.1602 67.1531 30.1602ZM135.483 30.1602C137.779 30.1602 139.49 28.3125 139.483 25.1836C139.483 22.0508 137.779 20.2031 135.483 20.2031C133.197 20.2031 131.483 22.0469 131.483 25.1836C131.483 28.3008 133.182 30.1602 135.483 30.1602ZM206.301 30.1602C208.598 30.1602 210.309 28.3125 210.301 25.1836C210.301 22.0508 208.598 20.2031 206.301 20.2031C204.016 20.2031 202.301 22.0469 202.301 25.1836C202.301 28.3008 204 30.1602 206.301 30.1602ZM43.6094 20.3164L43.6094 25.5977L46.2891 25.5977C48.1133 25.5977 49.0039 24.4766 49.0039 22.9531C49.0039 21.4258 48.1133 20.3164 46.2734 20.3164L43.6094 20.3164ZM53.6151 20.3164L53.6151 25.3242L56.2947 25.3242C58.119 25.3242 59.0096 24.3711 59.0096 22.8477C59.0096 21.3242 58.119 20.3164 56.2791 20.3164L53.6151 20.3164ZM106.422 20.3164L106.422 30.0469L108.703 30.0469C111.703 30.0469 113.238 28.1914 113.238 25.1523C113.234 22.1406 111.734 20.3164 108.91 20.3164L106.422 20.3164Z" fill="#FFFFFF" fill-opacity="1.000000" fill-rule="evenodd"/>
</svg>
