<svg width="105.065430" height="16.473145" viewBox="0 0 105.065 16.4731" fill="none" xmlns="http://www.w3.org/2000/svg" xmlns:xlink="http://www.w3.org/1999/xlink">
	<desc>
			Created with Pixso.
	</desc>
	<defs/>
	<path id="Color: Red" d="M7.06299 0C10.2856 0 12.9067 1.93896 13.5029 5.2207L11.564 5.2207C11.0967 3.00244 9.18994 1.81543 7.06299 1.81543C4.15723 1.81543 1.87451 4.06592 1.87451 8.22314C1.87451 12.375 4.15723 14.6255 7.06299 14.6255C9.18994 14.6255 11.0967 13.4385 11.564 11.2202L13.5029 11.2202C12.9067 14.502 10.2856 16.4409 7.06299 16.4409C2.97021 16.4409 0 13.2827 0 8.22314C0 3.1582 2.97021 0 7.06299 0ZM29.501 0.220215L31.3433 0.220215L31.3433 16.2207L29.501 16.2207L29.501 0.220215ZM49.687 16.2207L47.8447 16.2207L47.8447 4.22168L49.6279 4.22168L49.6279 6.03174L49.7515 6.03174C50.1919 4.84473 51.438 4.03369 52.8774 4.03369C53.1514 4.03369 53.6348 4.0498 53.8442 4.06592L53.8442 5.94043C53.7207 5.9082 53.2104 5.81689 52.7217 5.81689C50.9707 5.81689 49.687 7.00391 49.687 8.62598L49.687 16.2207ZM26.6885 10.2856C26.6885 14.0024 24.5024 16.4731 21.2529 16.4731C18.0034 16.4731 15.812 14.0024 15.812 10.2856C15.812 6.53125 18.0034 4.06592 21.2529 4.06592C24.5024 4.06592 26.6885 6.53125 26.6885 10.2856ZM45.0322 10.2856C45.0322 14.0024 42.8462 16.4731 39.5967 16.4731C36.3472 16.4731 34.1558 14.0024 34.1558 10.2856C34.1558 6.53125 36.3472 4.06592 39.5967 4.06592C42.8462 4.06592 45.0322 6.53125 45.0322 10.2856ZM58.7822 6.03174C58.7822 6.80518 58.1484 7.43896 57.375 7.43896C56.6016 7.43896 55.9731 6.80518 55.9731 6.03174C55.9731 5.2583 56.6016 4.62451 57.375 4.62451C58.1484 4.62451 58.7822 5.2583 58.7822 6.03174ZM17.6597 10.2856C17.6597 12.6919 18.7822 14.8135 21.2529 14.8135C23.7183 14.8135 24.8462 12.6919 24.8462 10.2856C24.8462 7.87939 23.7183 5.72021 21.2529 5.72021C18.7822 5.72021 17.6597 7.87939 17.6597 10.2856ZM36.0034 10.2856C36.0034 12.6919 37.126 14.8135 39.5967 14.8135C42.062 14.8135 43.1899 12.6919 43.1899 10.2856C43.1899 7.87939 42.062 5.72021 39.5967 5.72021C37.126 5.72021 36.0034 7.87939 36.0034 10.2856ZM58.7822 14.937C58.7822 15.7104 58.1484 16.3442 57.375 16.3442C56.6016 16.3442 55.9731 15.7104 55.9731 14.937C55.9731 14.1636 56.6016 13.5352 57.375 13.5352C58.1484 13.5352 58.7822 14.1636 58.7822 14.937Z" fill="#575757" fill-opacity="1.000000" fill-rule="evenodd"/>
	<path id="Color: Red" d="M70.4683 16.2207L68.5347 16.2207L68.5347 0.220215L73.938 0.220215C77.687 0.220215 79.3789 2.29883 79.3789 5.12939C79.3789 7.25098 78.4229 8.91602 76.3872 9.60889L80.002 16.2207L77.7515 16.2207L74.3784 9.96338C74.2441 9.96875 74.1099 9.96875 73.9702 9.96875L70.4683 9.96875L70.4683 16.2207ZM103.062 14.3784C102.659 15.0337 101.875 16.4731 99.5654 16.4731C96.563 16.4731 94.4683 14.0669 94.4683 10.2534C94.4683 6.47217 96.563 4.06592 99.5977 4.06592C101.939 4.06592 102.659 5.5 103.062 6.12842L103.223 6.12842L103.223 0.220215L105.065 0.220215L105.065 16.2207L103.282 16.2207L103.282 14.3784L103.062 14.3784ZM70.4683 1.93896L70.4683 8.22314L73.9058 8.22314C76.4731 8.22314 77.4722 7.04688 77.4722 5.12939C77.4722 3.20654 76.4731 1.93896 73.8789 1.93896L70.4683 1.93896ZM92.0327 13.4385C91.4688 15.2539 89.6909 16.4731 87.2524 16.4731C83.7827 16.4731 81.6558 14.0024 81.6558 10.3125C81.6558 6.62793 83.8149 4.06592 87.0645 4.06592C89.562 4.06592 92.2207 5.59668 92.2207 10.0654L92.2207 10.8442L83.5088 10.8442C83.5947 13.417 85.0879 14.8135 87.2524 14.8135C88.6973 14.8135 89.7822 14.1904 90.2495 12.939L92.0327 13.4385ZM87.0645 5.72021C84.9536 5.72021 83.6323 7.38525 83.5088 9.25439L90.3462 9.25439C90.3462 7.21875 89.0625 5.72021 87.0645 5.72021ZM96.3159 10.2212C96.3159 12.7832 97.5029 14.8135 99.8125 14.8135C102.031 14.8135 103.25 12.939 103.25 10.2212C103.25 7.53564 102.063 5.72021 99.8125 5.72021C97.4707 5.72021 96.3159 7.69141 96.3159 10.2212Z" fill="#6F6E6E" fill-opacity="1.000000" fill-rule="evenodd"/>
</svg>
