<svg width="31.995605" height="29.000000" viewBox="0 0 31.9956 29" fill="none" xmlns="http://www.w3.org/2000/svg" xmlns:xlink="http://www.w3.org/1999/xlink">
	<desc>
			Created with Pixso.
	</desc>
	<defs/>
	<path d="M26.2009 29C25.5532 28.9739 24.9415 28.6948 24.4972 28.2227C24.0529 27.7505 23.8114 27.123 23.8245 26.4751C23.8375 25.8269 24.1042 25.2097 24.5673 24.7559C25.0303 24.3022 25.6527 24.0481 26.301 24.0481C26.9493 24.0481 27.5717 24.3022 28.0347 24.7559C28.4977 25.2097 28.7644 25.8269 28.7775 26.4751C28.7905 27.123 28.5491 27.7505 28.1047 28.2227C27.6604 28.6948 27.0487 28.9739 26.401 29L26.2009 29ZM6.75293 26.3201C6.75293 25.79 6.91016 25.2717 7.20459 24.8311C7.49902 24.3904 7.9176 24.0469 8.40735 23.844C8.89709 23.6411 9.43591 23.5881 9.95581 23.6914C10.4757 23.7949 10.9532 24.05 11.328 24.425C11.7028 24.7998 11.9581 25.2773 12.0615 25.7971C12.1649 26.3171 12.1118 26.856 11.9089 27.3457C11.7061 27.8352 11.3625 28.2539 10.9219 28.5483C10.4812 28.8428 9.96301 29 9.43298 29C9.08093 29.0002 8.73218 28.9312 8.40674 28.7966C8.0813 28.6621 7.78564 28.4646 7.53662 28.2158C7.2876 27.9668 7.08997 27.6714 6.9552 27.3459C6.82043 27.0208 6.75098 26.6721 6.75098 26.3201L6.75293 26.3201ZM10.553 20.686C10.2936 20.6868 10.0409 20.6023 9.83411 20.4458C9.62732 20.2891 9.47754 20.0688 9.40796 19.8191L4.57495 2.36401L1.18201 2.36401C0.86853 2.36401 0.567871 2.2395 0.346191 2.01782C0.124512 1.79614 0 1.49561 0 1.18188C0 0.868408 0.124512 0.567871 0.346191 0.346191C0.567871 0.124512 0.86853 0 1.18201 0L5.46301 0C5.72253 -0.000732422 5.9751 0.0837402 6.18176 0.240479C6.38843 0.397461 6.53784 0.61792 6.60693 0.86792L11.4399 18.323L24.6179 18.323L29.001 8.2749L14.401 8.2749C14.2428 8.27954 14.0853 8.25244 13.9379 8.19507C13.7904 8.1377 13.6559 8.05127 13.5424 7.94116C13.4288 7.83081 13.3386 7.69897 13.277 7.55322C13.2153 7.40747 13.1836 7.25073 13.1836 7.09253C13.1836 6.93433 13.2153 6.77759 13.277 6.63184C13.3386 6.48608 13.4288 6.35425 13.5424 6.2439C13.6559 6.13354 13.7904 6.04736 13.9379 5.98999C14.0853 5.93262 14.2428 5.90552 14.401 5.90991L30.814 5.90991C31.0096 5.90991 31.2023 5.95874 31.3744 6.05176C31.5465 6.14478 31.6927 6.2793 31.7999 6.44312C31.9078 6.60718 31.9734 6.79565 31.9908 6.99146C32.0083 7.18726 31.9772 7.38428 31.9 7.56494L26.495 19.9771C26.4026 20.1877 26.251 20.3669 26.0585 20.4927C25.866 20.6187 25.641 20.6858 25.411 20.686L10.553 20.686Z" fill="#E8E8E8" fill-opacity="1.000000" fill-rule="nonzero"/>
</svg>
