<svg width="26.001709" height="26.791992" viewBox="0 0 26.0017 26.792" fill="none" xmlns="http://www.w3.org/2000/svg" xmlns:xlink="http://www.w3.org/1999/xlink">
	<desc>
			Created with Pixso.
	</desc>
	<defs/>
	<path d="M18.0615 17.415C19.6733 15.6548 20.6301 13.3938 20.7717 11.0115C20.9133 8.62915 20.2307 6.27075 18.8389 4.33228C17.447 2.3938 15.4304 0.993164 13.1279 0.365723C10.8254 -0.261719 8.37695 -0.0778809 6.19409 0.886719C4.01123 1.85107 2.22656 3.53735 1.13989 5.66211C0.0534668 7.78687 -0.269043 10.2207 0.227051 12.5552C0.7229 14.8896 2.00708 16.9822 3.86353 18.4817C5.72021 19.9812 8.03613 20.7964 10.4226 20.79C12.675 20.793 14.8665 20.0591 16.6626 18.7L24.4106 26.5071C24.4961 26.5959 24.5984 26.667 24.7119 26.7161C24.8252 26.7649 24.947 26.7908 25.0706 26.792C25.1943 26.7925 25.3167 26.7673 25.4302 26.7183C25.5437 26.6692 25.646 26.5972 25.7305 26.5071C25.9045 26.3262 26.0017 26.085 26.0017 25.834C26.0017 25.583 25.9045 25.3418 25.7305 25.1609L18.0615 17.415ZM1.88867 10.29C1.90137 8.60474 2.41284 6.96094 3.35864 5.56592C4.3042 4.1709 5.6416 3.08716 7.20239 2.45117C8.76318 1.81494 10.4773 1.65527 12.1284 1.99194C13.7798 2.32886 15.2947 3.14673 16.4817 4.34302C17.6687 5.53931 18.4751 7.0603 18.7991 8.71436C19.123 10.3682 18.9502 12.0811 18.3022 13.6367C17.6543 15.1924 16.5601 16.5215 15.1577 17.4565C13.7556 18.3914 12.1079 18.8901 10.4226 18.8899C8.15112 18.8792 5.97681 17.9675 4.37671 16.3552C2.77686 14.7427 1.88184 12.5615 1.88867 10.29Z" fill="#E8E8E8" fill-opacity="1.000000" fill-rule="nonzero"/>
</svg>
