<svg width="29.000000" height="29.000000" viewBox="0 0 29 29" fill="none" xmlns="http://www.w3.org/2000/svg" xmlns:xlink="http://www.w3.org/1999/xlink">
	<desc>
			Created with Pixso.
	</desc>
	<defs/>
	<path d="M14.5 19.937C19 19.937 22.656 15.4641 22.656 9.96802C22.656 4.47192 19 0 14.5 0C13.3632 0.0217285 12.2463 0.303467 11.2351 0.823486C10.2239 1.34351 9.34509 2.08789 8.66602 3C7.12659 4.99561 6.30823 7.45386 6.34399 9.97412C6.34399 15.4651 10 19.937 14.5 19.937ZM14.5 1.81299C18 1.81299 20.844 5.47192 20.844 9.96899C20.844 14.4661 17.998 18.125 14.5 18.125C11.002 18.125 8.15601 14.4651 8.15503 9.96899C8.15405 5.4729 11 1.81299 14.5 1.81299ZM20.844 18.125C20.6035 18.125 20.373 18.2205 20.203 18.3906C20.033 18.5605 19.9375 18.791 19.9375 19.0315C19.9375 19.272 20.033 19.5024 20.203 19.6726C20.373 19.8425 20.6035 19.938 20.844 19.938C22.526 19.9399 24.1385 20.6089 25.3279 21.7981C26.5172 22.9875 27.1862 24.6001 27.188 26.282C27.1875 26.5222 27.0918 26.7522 26.922 26.9221C26.7522 27.0918 26.5221 27.1875 26.282 27.188L2.71997 27.188C2.47986 27.1875 2.24976 27.0918 2.07996 26.9221C1.91016 26.7522 1.81445 26.5222 1.81396 26.282C1.81604 24.6001 2.48511 22.9878 3.67444 21.7983C4.86377 20.6091 6.47607 19.9402 8.15796 19.938C8.39819 19.938 8.62866 19.8425 8.79858 19.6726C8.96851 19.5027 9.06396 19.2722 9.06396 19.032C9.06396 18.7917 8.96851 18.5613 8.79858 18.3914C8.62866 18.2214 8.39819 18.126 8.15796 18.126C5.99536 18.1279 3.922 18.9875 2.39258 20.5164C0.863159 22.0452 0.00268555 24.1184 0 26.281C0.000854492 27.002 0.287476 27.6931 0.797241 28.2026C1.30701 28.7124 1.99817 28.9993 2.71899 29L26.282 29C27.0027 28.999 27.6936 28.7122 28.2031 28.2024C28.7126 27.6926 28.9993 27.0017 29 26.281C28.9973 24.1187 28.1372 22.0457 26.6083 20.5168C25.0793 18.9878 23.0063 18.1277 20.844 18.125Z" fill="#E8E8E8" fill-opacity="1.000000" fill-rule="nonzero"/>
</svg>
