<svg width="483.000000" height="47.000000" viewBox="0 0 483 47" fill="none" xmlns="http://www.w3.org/2000/svg" xmlns:xlink="http://www.w3.org/1999/xlink">
	<desc>
			Created with Pixso.
	</desc>
	<defs/>
	<path id="Free shipping, returns and exchanges on all orders" d="M85.02 0.57C85.02 1.16 84.5 1.66 83.88 1.66C83.26 1.66 82.75 1.16 82.75 0.57C82.75 -0.03 83.26 -0.53 83.88 -0.53C84.5 -0.53 85.02 -0.03 85.02 0.57ZM119.38 0.57C119.38 1.16 118.86 1.66 118.23 1.66C117.61 1.66 117.1 1.16 117.1 0.57C117.1 -0.03 117.61 -0.53 118.23 -0.53C118.86 -0.53 119.38 -0.03 119.38 0.57ZM1.99 17L0.39 17L0.39 -0.46L10.49 -0.46L10.49 0.97L1.99 0.97L1.99 7.54L9.7 7.54L9.7 8.97L1.99 8.97L1.99 17ZM74.23 5.12C72.14 5.12 70.6 6.53 70.6 8.82L70.6 17L69.08 17L69.08 -0.46L70.6 -0.46L70.6 5.96L70.74 5.96C71.35 4.6 72.64 3.74 74.62 3.74C77.28 3.74 79.08 5.39 79.08 8.52L79.08 17L77.56 17L77.56 8.61C77.56 6.45 76.26 5.12 74.23 5.12ZM286.66 14.56C286.12 15.76 285.02 17.27 282.64 17.27C279.43 17.27 277.25 14.55 277.25 10.49C277.25 6.45 279.43 3.72 282.67 3.72C285.06 3.72 286.14 5.22 286.66 6.4L286.8 6.4L286.8 -0.46L288.32 -0.46L288.32 17L286.84 17L286.84 14.56L286.66 14.56ZM343.58 5.12C341.49 5.12 339.96 6.53 339.96 8.82L339.96 17L338.44 17L338.44 -0.46L339.96 -0.46L339.96 5.96L340.09 5.96C340.71 4.6 341.99 3.74 343.97 3.74C346.63 3.74 348.43 5.39 348.43 8.52L348.43 17L346.91 17L346.91 8.61C346.91 6.45 345.62 5.12 343.58 5.12ZM475.31 -0.46L476.83 -0.46L476.83 17L475.31 17L475.31 -0.46ZM480.84 -0.46L482.35 -0.46L482.35 17L480.84 17L480.84 -0.46ZM189.08 3.91L191.86 3.91L191.86 5.22L189.08 5.22L189.08 13.58C189.08 15.22 190.03 15.71 191.06 15.71C191.46 15.71 191.73 15.65 191.95 15.59L192.27 16.96C191.98 17.07 191.56 17.19 190.92 17.19C189.25 17.19 187.56 16.08 187.56 13.94L187.56 5.22L185.61 5.22L185.61 3.91L187.56 3.91L187.56 0.77L189.08 0.77L189.08 3.91ZM15.53 17L14.01 17L14.01 3.91L15.48 3.91L15.48 5.91L15.59 5.91C16.13 4.6 17.53 3.71 19.17 3.71C19.42 3.71 19.77 3.72 19.98 3.74L19.98 5.28C19.84 5.26 19.47 5.19 19.06 5.19C17.02 5.19 15.53 6.59 15.53 8.54L15.53 17ZM166.13 17L164.62 17L164.62 3.91L166.09 3.91L166.09 5.91L166.2 5.91C166.73 4.6 168.14 3.71 169.78 3.71C170.02 3.71 170.38 3.72 170.58 3.74L170.58 5.28C170.45 5.26 170.07 5.19 169.67 5.19C167.62 5.19 166.13 6.59 166.13 8.54L166.13 17ZM210.66 17L209.14 17L209.14 3.91L210.61 3.91L210.61 5.91L210.72 5.91C211.25 4.6 212.66 3.71 214.3 3.71C214.55 3.71 214.9 3.72 215.1 3.74L215.1 5.28C214.97 5.26 214.59 5.19 214.19 5.19C212.15 5.19 210.66 6.59 210.66 8.54L210.66 17ZM32.44 14.2C31.84 15.85 30.07 17.27 27.45 17.27C23.79 17.27 21.48 14.5 21.48 10.53C21.48 6.57 23.83 3.72 27.22 3.72C30.06 3.72 32.76 5.78 32.76 10.15L32.76 10.9L23.01 10.9C23.08 13.92 24.77 15.88 27.45 15.88C29.31 15.88 30.49 14.91 30.99 13.73L32.44 14.2ZM46.37 14.2C45.77 15.85 44.01 17.27 41.38 17.27C37.72 17.27 35.42 14.5 35.42 10.53C35.42 6.57 37.76 3.72 41.16 3.72C43.99 3.72 46.69 5.78 46.69 10.15L46.69 10.9L36.94 10.9C37.01 13.92 38.71 15.88 41.38 15.88C43.24 15.88 44.43 14.91 44.93 13.73L46.37 14.2ZM61.14 3.72C63.53 3.72 64.93 4.88 65.57 6.78L64.18 7.17C63.77 5.99 62.91 5.07 61.14 5.07C59.37 5.07 58.11 5.99 58.11 7.32C58.11 8.46 58.86 9.11 60.49 9.52L62.47 10C64.66 10.54 65.76 11.71 65.76 13.46C65.76 15.68 63.78 17.27 60.9 17.27C58.34 17.27 56.61 16.08 56.15 13.9L57.6 13.54C57.97 15.1 59.09 15.91 60.87 15.91C62.89 15.91 64.19 14.89 64.19 13.53C64.19 12.48 63.5 11.74 62.06 11.39L59.92 10.88C57.65 10.34 56.58 9.14 56.58 7.39C56.58 5.24 58.5 3.72 61.14 3.72ZM90.17 21.91L88.65 21.91L88.65 3.91L90.12 3.91L90.12 6.4L90.31 6.4C90.84 5.22 91.9 3.72 94.31 3.72C97.54 3.72 99.72 6.44 99.72 10.49C99.72 14.54 97.53 17.27 94.33 17.27C91.96 17.27 90.83 15.77 90.31 14.56L90.17 14.56L90.17 21.91ZM104.57 21.91L103.05 21.91L103.05 3.91L104.52 3.91L104.52 6.4L104.7 6.4C105.24 5.22 106.29 3.72 108.71 3.72C111.94 3.72 114.11 6.44 114.11 10.49C114.11 14.54 111.93 17.27 108.73 17.27C106.35 17.27 105.23 15.77 104.7 14.56L104.57 14.56L104.57 21.91ZM147.31 17.33C147.31 20.66 145.02 22.17 141.91 22.17C139.23 22.17 137.56 21.05 136.79 19.55L138.04 18.74C138.59 19.73 139.67 20.82 141.91 20.82C144.23 20.82 145.79 19.68 145.79 17.24L145.79 14.29L145.65 14.29C145.13 15.5 143.98 16.86 141.63 16.86C138.49 16.86 136.24 14.43 136.24 10.41C136.24 6.44 138.42 3.72 141.66 3.72C144.06 3.72 145.14 5.22 145.68 6.4L145.83 6.4L145.83 3.91L147.31 3.91L147.31 17.33ZM183.04 14.2C182.44 15.85 180.68 17.27 178.06 17.27C174.39 17.27 172.09 14.5 172.09 10.53C172.09 6.57 174.43 3.72 177.83 3.72C180.66 3.72 183.36 5.78 183.36 10.15L183.36 10.9L173.61 10.9C173.68 13.92 175.38 15.88 178.06 15.88C179.91 15.88 181.1 14.91 181.6 13.73L183.04 14.2ZM235.97 3.72C238.36 3.72 239.76 4.88 240.4 6.78L239.01 7.17C238.6 5.99 237.73 5.07 235.97 5.07C234.2 5.07 232.94 5.99 232.94 7.32C232.94 8.46 233.69 9.11 235.32 9.52L237.29 10C239.49 10.54 240.59 11.71 240.59 13.46C240.59 15.68 238.61 17.27 235.73 17.27C233.16 17.27 231.44 16.08 230.97 13.9L232.43 13.54C232.79 15.1 233.91 15.91 235.7 15.91C237.72 15.91 239.02 14.89 239.02 13.53C239.02 12.48 238.33 11.74 236.89 11.39L234.75 10.88C232.47 10.34 231.41 9.14 231.41 7.39C231.41 5.24 233.33 3.72 235.97 3.72ZM258.37 14.93C257.83 16.08 256.5 17.29 254.32 17.29C251.94 17.29 250.01 15.86 250.01 13.34C250.01 10.75 252.09 9.92 255.04 9.55C257.24 9.28 258.47 9.27 258.47 8.28L258.47 7.97C258.47 6.18 257.37 5.09 255.38 5.09C253.49 5.09 252.31 6.05 251.83 7.17L250.39 6.66C251.28 4.52 253.34 3.72 255.34 3.72C257.34 3.72 259.98 4.6 259.98 8.11L259.98 17L258.47 17L258.47 14.93L258.37 14.93ZM309.67 14.2C309.07 15.85 307.31 17.27 304.69 17.27C301.02 17.27 298.72 14.5 298.72 10.53C298.72 6.57 301.06 3.72 304.46 3.72C307.29 3.72 309.99 5.78 309.99 10.15L309.99 10.9L300.24 10.9C300.31 13.92 302.01 15.88 304.69 15.88C306.54 15.88 307.73 14.91 308.23 13.73L309.67 14.2ZM335.19 13.17C334.84 15.55 332.92 17.27 330.2 17.27C326.68 17.27 324.41 14.41 324.41 10.51C324.41 6.57 326.74 3.72 330.17 3.72C332.79 3.72 334.82 5.36 335.18 7.79L333.65 7.79C333.32 6.31 332.06 5.11 330.2 5.11C327.68 5.11 325.93 7.29 325.93 10.46C325.93 13.64 327.63 15.88 330.2 15.88C331.93 15.88 333.3 14.84 333.65 13.17L335.19 13.17ZM360.15 14.93C359.61 16.08 358.28 17.29 356.1 17.29C353.72 17.29 351.79 15.86 351.79 13.34C351.79 10.75 353.86 9.92 356.82 9.55C359.02 9.28 360.25 9.27 360.25 8.28L360.25 7.97C360.25 6.18 359.15 5.09 357.16 5.09C355.27 5.09 354.09 6.05 353.61 7.17L352.17 6.66C353.06 4.52 355.12 3.72 357.12 3.72C359.12 3.72 361.76 4.6 361.76 8.11L361.76 17L360.25 17L360.25 14.93L360.15 14.93ZM390.1 17.33C390.1 20.66 387.8 22.17 384.7 22.17C382.02 22.17 380.35 21.05 379.58 19.55L380.83 18.74C381.38 19.73 382.46 20.82 384.7 20.82C387.02 20.82 388.58 19.68 388.58 17.24L388.58 14.29L388.44 14.29C387.92 15.5 386.77 16.86 384.42 16.86C381.28 16.86 379.03 14.43 379.03 10.41C379.03 6.44 381.2 3.72 384.44 3.72C386.85 3.72 387.93 5.22 388.46 6.4L388.62 6.4L388.62 3.91L390.1 3.91L390.1 17.33ZM404.4 14.2C403.8 15.85 402.04 17.27 399.42 17.27C395.75 17.27 393.45 14.5 393.45 10.53C393.45 6.57 395.79 3.72 399.19 3.72C402.02 3.72 404.72 5.78 404.72 10.15L404.72 10.9L394.97 10.9C395.04 13.92 396.74 15.88 399.42 15.88C401.27 15.88 402.46 14.91 402.96 13.73L404.4 14.2ZM412.42 3.72C414.82 3.72 416.22 4.88 416.85 6.78L415.47 7.17C415.06 5.99 414.19 5.07 412.42 5.07C410.66 5.07 409.39 5.99 409.39 7.32C409.39 8.46 410.15 9.11 411.77 9.52L413.75 10C415.94 10.54 417.04 11.71 417.04 13.46C417.04 15.68 415.06 17.27 412.18 17.27C409.62 17.27 407.89 16.08 407.43 13.9L408.89 13.54C409.25 15.1 410.37 15.91 412.16 15.91C414.17 15.91 415.47 14.89 415.47 13.53C415.47 12.48 414.78 11.74 413.34 11.39L411.21 10.88C408.93 10.34 407.86 9.14 407.86 7.39C407.86 5.24 409.78 3.72 412.42 3.72ZM437.96 10.51C437.96 14.5 435.6 17.27 432.2 17.27C428.81 17.27 426.44 14.5 426.44 10.51C426.44 6.5 428.81 3.72 432.2 3.72C435.6 3.72 437.96 6.5 437.96 10.51ZM469.67 14.93C469.12 16.08 467.79 17.29 465.61 17.29C463.23 17.29 461.31 15.86 461.31 13.34C461.31 10.75 463.38 9.92 466.33 9.55C468.54 9.28 469.76 9.27 469.76 8.28L469.76 7.97C469.76 6.18 468.67 5.09 466.68 5.09C464.79 5.09 463.6 6.05 463.12 7.17L461.68 6.66C462.57 4.52 464.64 3.72 466.63 3.72C468.64 3.72 471.28 4.6 471.28 8.11L471.28 17L469.76 17L469.76 14.93L469.67 14.93ZM128.09 5.12C126.03 5.12 124.53 6.53 124.53 8.82L124.53 17L123.01 17L123.01 3.91L124.48 3.91L124.48 5.96L124.62 5.96C125.23 4.62 126.55 3.74 128.47 3.74C131.11 3.74 132.91 5.41 132.91 8.52L132.91 17L131.39 17L131.39 8.61C131.39 6.47 130.1 5.12 128.09 5.12ZM222.78 5.12C220.71 5.12 219.21 6.53 219.21 8.82L219.21 17L217.7 17L217.7 3.91L219.17 3.91L219.17 5.96L219.31 5.96C219.92 4.62 221.24 3.74 223.16 3.74C225.8 3.74 227.6 5.41 227.6 8.52L227.6 17L226.08 17L226.08 8.61C226.08 6.47 224.79 5.12 222.78 5.12ZM269.1 5.12C267.03 5.12 265.53 6.53 265.53 8.82L265.53 17L264.02 17L264.02 3.91L265.49 3.91L265.49 5.96L265.63 5.96C266.24 4.62 267.56 3.74 269.48 3.74C272.12 3.74 273.92 5.41 273.92 8.52L273.92 17L272.4 17L272.4 8.61C272.4 6.47 271.11 5.12 269.1 5.12ZM370.88 5.12C368.81 5.12 367.31 6.53 367.31 8.82L367.31 17L365.8 17L365.8 3.91L367.27 3.91L367.27 5.96L367.41 5.96C368.02 4.62 369.34 3.74 371.26 3.74C373.9 3.74 375.7 5.41 375.7 8.52L375.7 17L374.18 17L374.18 8.61C374.18 6.47 372.89 5.12 370.88 5.12ZM446.38 5.12C444.32 5.12 442.82 6.53 442.82 8.82L442.82 17L441.3 17L441.3 3.91L442.77 3.91L442.77 5.96L442.91 5.96C443.52 4.62 444.84 3.74 446.76 3.74C449.4 3.74 451.2 5.41 451.2 8.52L451.2 17L449.68 17L449.68 8.61C449.68 6.47 448.39 5.12 446.38 5.12ZM84.63 17L83.11 17L83.11 3.91L84.63 3.91L84.63 17ZM118.98 17L117.46 17L117.46 3.91L118.98 3.91L118.98 17ZM200.04 15.69C201.81 15.69 203.61 14.39 203.61 11.99L203.61 3.91L205.13 3.91L205.13 17L203.61 17L203.61 14.82L203.5 14.82C202.88 16.17 201.52 17.16 199.6 17.16C197.09 17.16 195.3 15.49 195.3 12.38L195.3 3.91L196.82 3.91L196.82 12.29C196.82 14.33 198.15 15.69 200.04 15.69ZM312.17 3.91L313.93 3.91L317.3 9.49L320.68 3.91L322.44 3.91L318.23 10.45L322.44 17L320.68 17L317.3 11.59L313.93 17L312.17 17L316.33 10.45L312.17 3.91ZM27.22 5.11C24.82 5.11 23.18 7.13 23.02 9.57L31.21 9.57C31.21 7.04 29.56 5.11 27.22 5.11ZM41.16 5.11C38.76 5.11 37.11 7.13 36.95 9.57L45.15 9.57C45.15 7.04 43.5 5.11 41.16 5.11ZM94.15 5.11C91.58 5.11 90.15 7.32 90.15 10.46C90.15 13.62 91.62 15.88 94.15 15.88C96.75 15.88 98.2 13.51 98.2 10.46C98.2 7.44 96.78 5.11 94.15 5.11ZM108.54 5.11C105.98 5.11 104.55 7.32 104.55 10.46C104.55 13.62 106.01 15.88 108.54 15.88C111.15 15.88 112.59 13.51 112.59 10.46C112.59 7.44 111.18 5.11 108.54 5.11ZM137.77 10.39C137.77 13.39 139.21 15.47 141.81 15.47C144.33 15.47 145.81 13.55 145.81 10.39C145.81 7.32 144.38 5.11 141.81 5.11C139.19 5.11 137.77 7.44 137.77 10.39ZM177.83 5.11C175.43 5.11 173.78 7.13 173.63 9.57L181.82 9.57C181.82 7.04 180.17 5.11 177.83 5.11ZM278.78 10.46C278.78 13.51 280.21 15.88 282.82 15.88C285.35 15.88 286.82 13.62 286.82 10.46C286.82 7.32 285.37 5.11 282.82 5.11C280.19 5.11 278.78 7.44 278.78 10.46ZM304.46 5.11C302.06 5.11 300.41 7.13 300.26 9.57L308.45 9.57C308.45 7.04 306.8 5.11 304.46 5.11ZM380.55 10.39C380.55 13.39 382 15.47 384.6 15.47C387.12 15.47 388.6 13.55 388.6 10.39C388.6 7.32 387.16 5.11 384.6 5.11C381.97 5.11 380.55 7.44 380.55 10.39ZM399.19 5.11C396.79 5.11 395.14 7.13 394.99 9.57L403.18 9.57C403.18 7.04 401.53 5.11 399.19 5.11ZM427.97 10.51C427.97 13.44 429.48 15.88 432.2 15.88C434.92 15.88 436.44 13.44 436.44 10.51C436.44 7.58 434.92 5.11 432.2 5.11C429.48 5.11 427.97 7.58 427.97 10.51ZM251.53 13.41C251.53 14.99 252.81 15.91 254.52 15.91C256.94 15.91 258.47 14.12 258.47 11.97L258.47 10.08C258.03 10.52 256.12 10.75 255.04 10.88C252.82 11.16 251.53 11.82 251.53 13.41ZM353.31 13.41C353.31 14.99 354.58 15.91 356.3 15.91C358.72 15.91 360.25 14.12 360.25 11.97L360.25 10.08C359.81 10.52 357.9 10.75 356.82 10.88C354.6 11.16 353.31 11.82 353.31 13.41ZM462.82 13.41C462.82 14.99 464.1 15.91 465.82 15.91C468.24 15.91 469.76 14.12 469.76 11.97L469.76 10.08C469.32 10.52 467.41 10.75 466.33 10.88C464.12 11.16 462.82 11.82 462.82 13.41ZM152.21 14.61L153.86 14.61L153.71 15.52C153.41 17.36 152.67 20.05 152.26 21.25L151.1 21.25C151.32 20.11 151.78 17.87 152.09 15.57L152.21 14.61ZM31.14 43.56C30.6 44.76 29.5 46.27 27.12 46.27C23.91 46.27 21.73 43.55 21.73 39.49C21.73 35.45 23.91 32.72 27.15 32.72C29.54 32.72 30.62 34.22 31.14 35.4L31.28 35.4L31.28 28.54L32.8 28.54L32.8 46L31.32 46L31.32 43.56L31.14 43.56ZM15.78 46L14.26 46L14.26 32.91L15.73 32.91L15.73 34.91L15.84 34.91C16.37 33.6 17.78 32.71 19.42 32.71C19.67 32.71 20.02 32.72 20.22 32.74L20.22 34.28C20.09 34.26 19.71 34.19 19.31 34.19C17.26 34.19 15.78 35.59 15.78 37.54L15.78 46ZM52.58 46L51.06 46L51.06 32.91L52.53 32.91L52.53 34.91L52.64 34.91C53.17 33.6 54.58 32.71 56.22 32.71C56.47 32.71 56.82 32.72 57.02 32.74L57.02 34.28C56.89 34.26 56.51 34.19 56.11 34.19C54.07 34.19 52.58 35.59 52.58 37.54L52.58 46ZM10.92 39.51C10.92 43.5 8.55 46.27 5.16 46.27C1.77 46.27 -0.6 43.5 -0.6 39.51C-0.6 35.5 1.77 32.72 5.16 32.72C8.55 32.72 10.92 35.5 10.92 39.51ZM47.4 43.2C46.8 44.85 45.04 46.27 42.42 46.27C38.75 46.27 36.45 43.5 36.45 39.53C36.45 35.57 38.79 32.72 42.19 32.72C45.02 32.72 47.72 34.78 47.72 39.15L47.72 39.9L37.97 39.9C38.04 42.92 39.74 44.88 42.42 44.88C44.27 44.88 45.46 43.91 45.96 42.73L47.4 43.2ZM63.98 32.72C66.37 32.72 67.77 33.88 68.41 35.78L67.02 36.17C66.61 34.99 65.75 34.07 63.98 34.07C62.21 34.07 60.95 34.99 60.95 36.32C60.95 37.46 61.7 38.11 63.33 38.52L65.31 39C67.5 39.54 68.6 40.71 68.6 42.46C68.6 44.68 66.62 46.27 63.74 46.27C61.17 46.27 59.45 45.08 58.98 42.9L60.44 42.54C60.81 44.1 61.92 44.91 63.71 44.91C65.73 44.91 67.03 43.89 67.03 42.53C67.03 41.48 66.34 40.74 64.9 40.39L62.76 39.88C60.48 39.34 59.42 38.14 59.42 36.39C59.42 34.24 61.34 32.72 63.98 32.72ZM0.93 39.51C0.93 42.44 2.44 44.88 5.16 44.88C7.88 44.88 9.4 42.44 9.4 39.51C9.4 36.58 7.88 34.11 5.16 34.11C2.44 34.11 0.93 36.58 0.93 39.51ZM23.26 39.46C23.26 42.51 24.69 44.88 27.3 44.88C29.84 44.88 31.3 42.62 31.3 39.46C31.3 36.32 29.85 34.11 27.3 34.11C24.67 34.11 23.26 36.44 23.26 39.46ZM42.19 34.11C39.79 34.11 38.14 36.13 37.99 38.57L46.18 38.57C46.18 36.04 44.53 34.11 42.19 34.11Z" fill="#000000" fill-opacity="1.000000" fill-rule="evenodd"/>
</svg>
