<svg width="36.543213" height="21.859619" viewBox="0 0 36.5432 21.8596" fill="none" xmlns="http://www.w3.org/2000/svg" xmlns:xlink="http://www.w3.org/1999/xlink">
	<desc>
			Created with Pixso.
	</desc>
	<defs/>
	<path id="GET A QUOTE" d="M6.64404 2.61035L5.89478 2.61035C5.60474 1.54688 4.7561 0.6875 3.4375 0.6875C1.8772 0.6875 0.706299 1.95508 0.706299 4.11157C0.706299 6.26001 1.87183 7.53296 3.48853 7.53296C4.94141 7.53296 5.96729 6.52856 5.98877 4.89038L3.6604 4.89038L3.6604 4.23511L6.69775 4.23511L6.69775 4.89038C6.69775 6.94214 5.35767 8.22046 3.48853 8.22046C1.3938 8.22046 0 6.6145 0 4.11157C0 1.60327 1.40991 0 3.4375 0C5.18579 0 6.38623 1.20044 6.64404 2.61035ZM13.2346 8.11035L8.51611 8.11035L8.51611 0.110107L13.1567 0.110107L13.1567 0.765381L9.24658 0.765381L9.24658 3.77856L12.9097 3.77856L12.9097 4.43384L9.24658 4.43384L9.24658 7.45508L13.2346 7.45508L13.2346 8.11035ZM17.0925 0.765381L14.5574 0.765381L14.5574 0.110107L20.3582 0.110107L20.3582 0.765381L17.823 0.765381L17.823 8.11035L17.0925 8.11035L17.0925 0.765381ZM25.9617 5.70142L25.105 8.11035L24.3396 8.11035L27.2507 0.110107L28.0295 0.110107L30.9407 8.11035L30.1753 8.11035L29.3186 5.70142L25.9617 5.70142ZM27.6133 1.06079L26.1953 5.04346L29.085 5.04346L27.667 1.06079L27.6133 1.06079ZM3.4563 13C5.4812 13 6.91797 14.606 6.91797 17.1116C6.91797 18.5994 6.4104 19.7676 5.57251 20.4739L6.61987 21.8596L5.80884 21.8596L5.04346 20.8364C4.57349 21.0862 4.03906 21.2205 3.4563 21.2205C1.43408 21.2205 0 19.6091 0 17.1116C0 14.6113 1.43677 13 3.4563 13ZM19.968 13C21.9929 13 23.4297 14.606 23.4297 17.1116C23.4297 19.6145 21.9929 21.2205 19.968 21.2205C17.9458 21.2205 16.5117 19.6091 16.5117 17.1116C16.5117 14.6113 17.9485 13 19.968 13ZM14.0149 18.3577L14.0149 13.1101L14.7454 13.1101L14.7454 18.406C14.7454 20.0388 13.5181 21.2473 11.7134 21.2473C9.91406 21.2473 8.67871 20.0388 8.68408 18.406L8.68408 13.1101L9.41455 13.1101L9.41455 18.3577C9.41455 19.6306 10.3196 20.5598 11.7134 20.5598C13.1099 20.5598 14.0149 19.6306 14.0149 18.3577ZM26.9167 13.7654L24.3816 13.7654L24.3816 13.1101L30.1824 13.1101L30.1824 13.7654L27.6472 13.7654L27.6472 21.1104L26.9167 21.1104L26.9167 13.7654ZM36.5432 21.1104L31.8247 21.1104L31.8247 13.1101L36.4653 13.1101L36.4653 13.7654L32.5552 13.7654L32.5552 16.7786L36.2183 16.7786L36.2183 17.4338L32.5552 17.4338L32.5552 20.4551L36.5432 20.4551L36.5432 21.1104ZM4.61646 20.2698L3.35425 18.6101L4.16797 18.6101L5.14819 19.9099C5.80347 19.3325 6.21167 18.3765 6.2063 17.1116C6.2063 14.9578 5.0354 13.6875 3.4563 13.6875C1.88525 13.6875 0.706299 14.9551 0.706299 17.1116C0.706299 19.2546 1.87451 20.533 3.4563 20.533C3.87524 20.533 4.27002 20.4417 4.61646 20.2698ZM19.968 20.533C21.5471 20.533 22.7234 19.2627 22.718 17.1116C22.718 14.9578 21.5471 13.6875 19.968 13.6875C18.397 13.6875 17.218 14.9551 17.218 17.1116C17.218 19.2546 18.3862 20.533 19.968 20.533Z" fill="#4A4A4A" fill-opacity="1.000000" fill-rule="evenodd"/>
</svg>
