<svg width="225.000000" height="50.000000" viewBox="0 0 225 50" fill="none" xmlns="http://www.w3.org/2000/svg" xmlns:xlink="http://www.w3.org/1999/xlink">
	<desc>
			Created with Pixso.
	</desc>
	<defs/>
	<path id="Vector" d="M0 0L225 0L225 50L0 50L0 0Z" fill="#FFFFFF" fill-opacity="1.000000" fill-rule="evenodd"/>
	<path id="Vector" d="M224.5 0.5L224.5 49.5L0.5 49.5L0.5 0.5L224.5 0.5Z" stroke="#A4A4A4" stroke-opacity="1.000000" stroke-width="1.000000" stroke-linejoin="round"/>
	<path id="CONTINUE SHOPPING" d="M123.958 23.3643L123.059 23.3643C122.947 22.2295 121.979 21.5083 120.633 21.5083C119.211 21.5083 118.233 22.3081 118.233 23.4019C118.233 24.4785 119.272 24.981 120.26 25.2578L121.333 25.5654C122.629 25.9277 124.098 26.6045 124.098 28.2964C124.098 29.9268 122.776 31.1743 120.568 31.1743C118.49 31.1743 117.177 30.0669 117.068 28.4536L118.025 28.4536C118.124 29.6636 119.197 30.3232 120.568 30.3232C122.089 30.3232 123.199 29.5029 123.199 28.2793C123.199 27.2402 122.335 26.7686 121.07 26.4028L119.853 26.0439C118.257 25.5723 117.331 24.752 117.331 23.4429C117.331 21.8022 118.78 20.6743 120.66 20.6743C122.553 20.6743 123.89 21.8159 123.958 23.3643ZM44.2944 20.6777C46.4614 20.6777 47.9927 22.127 48.3276 24L47.3911 24C47.1074 22.6089 45.8906 21.5527 44.2944 21.5527C42.3667 21.5527 40.7944 23.0908 40.7944 25.9106C40.7944 28.7373 42.3667 30.2651 44.2944 30.2651C45.8906 30.2651 47.1074 29.2158 47.3911 27.8179L48.3276 27.8179C47.9927 29.6875 46.4614 31.1401 44.2944 31.1401C41.7241 31.1401 39.8955 29.0962 39.8955 25.9106C39.8955 22.7217 41.7241 20.6777 44.2944 20.6777ZM54.4564 20.6777C57.0335 20.6777 58.8621 22.7217 58.8621 25.9106C58.8621 29.0962 57.0335 31.1401 54.4564 31.1401C51.8826 31.1401 50.0574 29.0894 50.0574 25.9106C50.0574 22.7285 51.8861 20.6777 54.4564 20.6777ZM140.624 20.6777C143.201 20.6777 145.03 22.7217 145.03 25.9106C145.03 29.0962 143.201 31.1401 140.624 31.1401C138.05 31.1401 136.225 29.0894 136.225 25.9106C136.225 22.7285 138.054 20.6777 140.624 20.6777ZM187.054 24L186.1 24C185.731 22.6465 184.651 21.5527 182.973 21.5527C180.987 21.5527 179.497 23.166 179.497 25.9106C179.497 28.645 180.98 30.2651 183.038 30.2651C184.887 30.2651 186.193 28.9868 186.22 26.9019L183.257 26.9019L183.257 26.0679L187.122 26.0679L187.122 26.9019C187.122 29.5132 185.417 31.1401 183.038 31.1401C180.372 31.1401 178.598 29.0962 178.598 25.9106C178.598 22.7183 180.392 20.6777 182.973 20.6777C185.198 20.6777 186.726 22.2056 187.054 24ZM68.1236 20.8179L69.0396 20.8179L69.0396 31L68.1338 31L62.1182 22.4722L62.0396 22.4722L62.0396 31L61.1099 31L61.1099 20.8179L62.0088 20.8179L68.045 29.356L68.1236 29.356L68.1236 20.8179ZM74.3521 21.6519L71.1255 21.6519L71.1255 20.8179L78.5083 20.8179L78.5083 21.6519L75.2817 21.6519L75.2817 31L74.3521 31L74.3521 21.6519ZM80.5985 20.8179L81.5282 20.8179L81.5282 31L80.5985 31L80.5985 20.8179ZM91.2464 20.8179L92.1625 20.8179L92.1625 31L91.2567 31L85.2411 22.4722L85.1625 22.4722L85.1625 31L84.2328 31L84.2328 20.8179L85.1317 20.8179L91.1678 29.356L91.2464 29.356L91.2464 20.8179ZM101.652 27.4966L101.652 20.8179L102.581 20.8179L102.581 27.5581C102.581 29.6362 101.019 31.1743 98.7225 31.1743C96.4324 31.1743 94.8602 29.6362 94.867 27.5581L94.867 20.8179L95.7967 20.8179L95.7967 27.4966C95.7967 29.1167 96.9485 30.2993 98.7225 30.2993C100.5 30.2993 101.652 29.1167 101.652 27.4966ZM111.293 31L105.287 31L105.287 20.8179L111.194 20.8179L111.194 21.6519L106.217 21.6519L106.217 25.4868L110.879 25.4868L110.879 26.3208L106.217 26.3208L106.217 30.166L111.293 30.166L111.293 31ZM127.272 31L126.342 31L126.342 20.8179L127.272 20.8179L127.272 25.4868L133.048 25.4868L133.048 20.8179L133.978 20.8179L133.978 31L133.048 31L133.048 26.3208L127.272 26.3208L127.272 31ZM148.207 31L147.278 31L147.278 20.8179L150.562 20.8179C152.729 20.8179 153.843 22.1816 153.843 23.959C153.843 25.7397 152.729 27.1069 150.576 27.1069L148.207 27.1069L148.207 31ZM156.962 31L156.033 31L156.033 20.8179L159.317 20.8179C161.484 20.8179 162.598 22.1816 162.598 23.959C162.598 25.7397 161.484 27.1069 159.331 27.1069L156.962 27.1069L156.962 31ZM164.787 20.8179L165.717 20.8179L165.717 31L164.787 31L164.787 20.8179ZM175.435 20.8179L176.351 20.8179L176.351 31L175.446 31L169.43 22.4722L169.351 22.4722L169.351 31L168.422 31L168.422 20.8179L169.321 20.8179L175.357 29.356L175.435 29.356L175.435 20.8179ZM54.4564 30.2651C56.4661 30.2651 57.9632 28.6484 57.9564 25.9106C57.9564 23.1694 56.4661 21.5527 54.4564 21.5527C52.4569 21.5527 50.9564 23.166 50.9564 25.9106C50.9564 28.6382 52.4432 30.2651 54.4564 30.2651ZM140.624 30.2651C142.634 30.2651 144.131 28.6484 144.124 25.9106C144.124 23.1694 142.634 21.5527 140.624 21.5527C138.624 21.5527 137.124 23.166 137.124 25.9106C137.124 28.6382 138.611 30.2651 140.624 30.2651ZM148.207 21.6519L148.207 26.2729L150.552 26.2729C152.148 26.2729 152.927 25.292 152.927 23.959C152.927 22.6226 152.148 21.6519 150.538 21.6519L148.207 21.6519ZM156.962 21.6519L156.962 26.2729L159.307 26.2729C160.903 26.2729 161.682 25.292 161.682 23.959C161.682 22.6226 160.903 21.6519 159.293 21.6519L156.962 21.6519Z" fill="#000000" fill-opacity="1.000000" fill-rule="evenodd"/>
</svg>
