<svg width="235.000000" height="50.000000" viewBox="0 0 235 50" fill="none" xmlns="http://www.w3.org/2000/svg" xmlns:xlink="http://www.w3.org/1999/xlink">
	<desc>
			Created with Pixso.
	</desc>
	<defs/>
	<path id="Vector" d="M0 0L235 0L235 50L0 50L0 0Z" fill="#FFFFFF" fill-opacity="1.000000" fill-rule="evenodd"/>
	<path id="Vector" d="M234.5 0.5L234.5 49.5L0.5 49.5L0.5 0.5L234.5 0.5Z" stroke="#A4A4A4" stroke-opacity="1.000000" stroke-width="1.000000" stroke-linejoin="round"/>
	<path id="CLEAR SHOPPING CART" d="M95.0833 23.3643L94.1843 23.3643C94.0716 22.2295 93.1043 21.5083 91.7576 21.5083C90.3357 21.5083 89.3582 22.3081 89.3582 23.4019C89.3582 24.4785 90.3972 24.981 91.385 25.2578L92.4583 25.5654C93.7537 25.9277 95.2234 26.6045 95.2234 28.2964C95.2234 29.9268 93.9007 31.1743 91.6926 31.1743C89.6145 31.1743 88.302 30.0669 88.1926 28.4536L89.1497 28.4536C89.2488 29.6636 90.322 30.3232 91.6926 30.3232C93.2136 30.3232 94.3245 29.5029 94.3245 28.2793C94.3245 27.2402 93.4597 26.7686 92.1951 26.4028L90.9783 26.0439C89.3821 25.5723 88.4558 24.752 88.4558 23.4429C88.4558 21.8022 89.9051 20.6743 91.7849 20.6743C93.6785 20.6743 95.0149 21.8159 95.0833 23.3643ZM44.2944 20.6777C46.4614 20.6777 47.9927 22.127 48.3276 24L47.3911 24C47.1074 22.6089 45.8906 21.5527 44.2944 21.5527C42.3667 21.5527 40.7944 23.0908 40.7944 25.9106C40.7944 28.7373 42.3667 30.2651 44.2944 30.2651C45.8906 30.2651 47.1074 29.2158 47.3911 27.8179L48.3276 27.8179C47.9927 29.6875 46.4614 31.1401 44.2944 31.1401C41.7241 31.1401 39.8955 29.0962 39.8955 25.9106C39.8955 22.7217 41.7241 20.6777 44.2944 20.6777ZM111.749 20.6777C114.326 20.6777 116.155 22.7217 116.155 25.9106C116.155 29.0962 114.326 31.1401 111.749 31.1401C109.175 31.1401 107.35 29.0894 107.35 25.9106C107.35 22.7285 109.179 20.6777 111.749 20.6777ZM158.179 24L157.225 24C156.856 22.6465 155.776 21.5527 154.098 21.5527C152.112 21.5527 150.622 23.166 150.622 25.9106C150.622 28.645 152.105 30.2651 154.163 30.2651C156.012 30.2651 157.318 28.9868 157.345 26.9019L154.382 26.9019L154.382 26.0679L158.247 26.0679L158.247 26.9019C158.247 29.5132 156.542 31.1401 154.163 31.1401C151.497 31.1401 149.723 29.0962 149.723 25.9106C149.723 22.7183 151.517 20.6777 154.098 20.6777C156.323 20.6777 157.851 22.2056 158.179 24ZM168.44 20.6777C170.607 20.6777 172.138 22.127 172.473 24L171.537 24C171.253 22.6089 170.036 21.5527 168.44 21.5527C166.512 21.5527 164.94 23.0908 164.94 25.9106C164.94 28.7373 166.512 30.2651 168.44 30.2651C170.036 30.2651 171.253 29.2158 171.537 27.8179L172.473 27.8179C172.138 29.6875 170.607 31.1401 168.44 31.1401C165.87 31.1401 164.041 29.0962 164.041 25.9106C164.041 22.7217 165.87 20.6777 168.44 20.6777ZM56.2952 31L50.5154 31L50.5154 20.8179L51.4451 20.8179L51.4451 30.166L56.2952 30.166L56.2952 31ZM64.3958 31L58.3904 31L58.3904 20.8179L64.2967 20.8179L64.2967 21.6519L59.3201 21.6519L59.3201 25.4868L63.9822 25.4868L63.9822 26.3208L59.3201 26.3208L59.3201 30.166L64.3958 30.166L64.3958 31ZM67.802 27.9341L66.7116 31L65.7375 31L69.4426 20.8179L70.4338 20.8179L74.1389 31L73.1648 31L72.0744 27.9341L67.802 27.9341ZM76.8152 31L75.8855 31L75.8855 20.8179L79.1701 20.8179C81.3337 20.8179 82.4514 22.0859 82.4514 23.8667C82.4514 25.2271 81.7951 26.2729 80.5271 26.6899L82.8786 31L81.8054 31L79.5735 26.8677C79.4504 26.8779 79.3205 26.8848 79.1838 26.8848L76.8152 26.8848L76.8152 31ZM98.3968 31L97.4671 31L97.4671 20.8179L98.3968 20.8179L98.3968 25.4868L104.173 25.4868L104.173 20.8179L105.103 20.8179L105.103 31L104.173 31L104.173 26.3208L98.3968 26.3208L98.3968 31ZM119.332 31L118.403 31L118.403 20.8179L121.687 20.8179C123.854 20.8179 124.968 22.1816 124.968 23.959C124.968 25.7397 123.854 27.1069 121.701 27.1069L119.332 27.1069L119.332 31ZM128.087 31L127.157 31L127.157 20.8179L130.442 20.8179C132.609 20.8179 133.723 22.1816 133.723 23.959C133.723 25.7397 132.609 27.1069 130.456 27.1069L128.087 27.1069L128.087 31ZM135.912 20.8179L136.842 20.8179L136.842 31L135.912 31L135.912 20.8179ZM146.56 20.8179L147.476 20.8179L147.476 31L146.571 31L140.555 22.4722L140.476 22.4722L140.476 31L139.547 31L139.547 20.8179L140.446 20.8179L146.482 29.356L146.56 29.356L146.56 20.8179ZM175.765 27.9341L174.675 31L173.701 31L177.406 20.8179L178.397 20.8179L182.102 31L181.128 31L180.038 27.9341L175.765 27.9341ZM184.778 31L183.849 31L183.849 20.8179L187.133 20.8179C189.297 20.8179 190.414 22.0859 190.414 23.8667C190.414 25.2271 189.758 26.2729 188.49 26.6899L190.842 31L189.768 31L187.537 26.8677C187.413 26.8779 187.284 26.8848 187.147 26.8848L184.778 26.8848L184.778 31ZM195.291 21.6519L192.064 21.6519L192.064 20.8179L199.447 20.8179L199.447 21.6519L196.221 21.6519L196.221 31L195.291 31L195.291 21.6519ZM111.749 30.2651C113.759 30.2651 115.256 28.6484 115.249 25.9106C115.249 23.1694 113.759 21.5527 111.749 21.5527C109.749 21.5527 108.249 23.166 108.249 25.9106C108.249 28.6382 109.736 30.2651 111.749 30.2651ZM76.8152 21.6519L76.8152 26.0337L79.1599 26.0337C80.7561 26.0337 81.5354 25.1997 81.5354 23.8667C81.5354 22.5337 80.7561 21.6519 79.1462 21.6519L76.8152 21.6519ZM119.332 21.6519L119.332 26.2729L121.677 26.2729C123.273 26.2729 124.052 25.292 124.052 23.959C124.052 22.6226 123.273 21.6519 121.663 21.6519L119.332 21.6519ZM128.087 21.6519L128.087 26.2729L130.432 26.2729C132.028 26.2729 132.807 25.292 132.807 23.959C132.807 22.6226 132.028 21.6519 130.418 21.6519L128.087 21.6519ZM184.778 21.6519L184.778 26.0337L187.123 26.0337C188.719 26.0337 189.498 25.1997 189.498 23.8667C189.498 22.5337 188.719 21.6519 187.109 21.6519L184.778 21.6519ZM69.904 22.0278L68.0993 27.0967L71.7771 27.0967L69.9724 22.0278L69.904 22.0278ZM177.867 22.0278L176.062 27.0967L179.74 27.0967L177.935 22.0278L177.867 22.0278Z" fill="#000000" fill-opacity="1.000000" fill-rule="evenodd"/>
</svg>
