<svg width="177.560425" height="14.542969" viewBox="0 0 177.56 14.543" fill="none" xmlns="http://www.w3.org/2000/svg" xmlns:xlink="http://www.w3.org/1999/xlink">
	<desc>
			Created with Pixso.
	</desc>
	<defs/>
	<path id="GRAND TOTAL $900" d="M9.66406 5.08984L8.57422 5.08984C8.15234 3.54297 6.91797 2.29297 5 2.29297C2.73047 2.29297 1.02734 4.13672 1.02734 7.27344C1.02734 10.3984 2.72266 12.25 5.07422 12.25C7.1875 12.25 8.67969 10.7891 8.71094 8.40625L5.32422 8.40625L5.32422 7.45312L9.74219 7.45312L9.74219 8.40625C9.74219 11.3906 7.79297 13.25 5.07422 13.25C2.02734 13.25 0 10.9141 0 7.27344C0 3.625 2.05078 1.29297 5 1.29297C7.54297 1.29297 9.28906 3.03906 9.66406 5.08984ZM75.2603 1.29297C78.2056 1.29297 80.2955 3.62891 80.2955 7.27344C80.2955 10.9141 78.2056 13.25 75.2603 13.25C72.3189 13.25 70.233 10.9062 70.233 7.27344C70.233 3.63672 72.3228 1.29297 75.2603 1.29297ZM13.4496 13.0898L12.3871 13.0898L12.3871 1.45312L16.141 1.45312C18.6136 1.45312 19.891 2.90234 19.891 4.9375C19.891 6.49219 19.141 7.6875 17.6918 8.16406L20.3793 13.0898L19.1527 13.0898L16.6019 8.36719C16.4613 8.37891 16.3129 8.38672 16.1566 8.38672L13.4496 8.38672L13.4496 13.0898ZM23.7454 9.58594L22.4993 13.0898L21.386 13.0898L25.6204 1.45312L26.7532 1.45312L30.9876 13.0898L29.8743 13.0898L28.6282 9.58594L23.7454 9.58594ZM40.9993 1.45312L42.0462 1.45312L42.0462 13.0898L41.011 13.0898L34.136 3.34375L34.0462 3.34375L34.0462 13.0898L32.9837 13.0898L32.9837 1.45312L34.011 1.45312L40.9094 11.2109L40.9993 11.2109L40.9993 1.45312ZM54.0433 7.24219C54.0394 10.9023 52.0433 13.0898 48.5433 13.0898L45.1371 13.0898L45.1371 1.45312L48.7504 1.45312C52.0785 1.45312 54.0433 3.625 54.0433 7.24219ZM64.0948 2.40625L60.4073 2.40625L60.4073 1.45312L68.8448 1.45312L68.8448 2.40625L65.1573 2.40625L65.1573 13.0898L64.0948 13.0898L64.0948 2.40625ZM85.3675 2.40625L81.68 2.40625L81.68 1.45312L90.1175 1.45312L90.1175 2.40625L86.43 2.40625L86.43 13.0898L85.3675 13.0898L85.3675 2.40625ZM92.4045 9.58594L91.1584 13.0898L90.0451 13.0898L94.2795 1.45312L95.4123 1.45312L99.6467 13.0898L98.5334 13.0898L97.2873 9.58594L92.4045 9.58594ZM108.248 13.0898L101.643 13.0898L101.643 1.45312L102.705 1.45312L102.705 12.1367L108.248 12.1367L108.248 13.0898ZM75.2603 12.25C77.5572 12.25 79.2681 10.4023 79.2603 7.27344C79.2603 4.14062 77.5572 2.29297 75.2603 2.29297C72.9751 2.29297 71.2603 4.13672 71.2603 7.27344C71.2603 10.3906 72.9595 12.25 75.2603 12.25ZM13.4496 2.40625L13.4496 7.41406L16.1293 7.41406C17.9535 7.41406 18.8441 6.46094 18.8441 4.9375C18.8441 3.41406 17.9535 2.40625 16.1136 2.40625L13.4496 2.40625ZM46.1996 2.40625L46.1996 12.1367L48.4808 12.1367C51.4808 12.1367 53.016 10.2812 53.016 7.24219C53.0121 4.23047 51.5121 2.40625 48.6879 2.40625L46.1996 2.40625ZM26.1477 2.83594L24.0852 8.62891L28.2884 8.62891L26.2259 2.83594L26.1477 2.83594ZM94.8068 2.83594L92.7443 8.62891L96.9474 8.62891L94.8849 2.83594L94.8068 2.83594Z" fill="#222222" fill-opacity="1.000000" fill-rule="evenodd"/>
	<path id="GRAND TOTAL $900" d="M141.091 14.543L140.158 14.543L140.158 13.2422C137.607 13.1016 135.998 11.8125 135.943 9.4375L138.322 9.4375C138.392 10.4609 139.115 11.043 140.158 11.168L140.158 8.17578L139.419 7.98828C137.455 7.51562 136.244 6.53125 136.248 4.81641C136.24 2.84375 137.869 1.48828 140.158 1.3125L140.158 0L141.091 0L141.091 1.30469C143.435 1.46094 144.955 2.84375 144.99 4.80078L142.63 4.80078C142.552 4.01172 141.998 3.5 141.091 3.37891L141.091 6.21094L141.658 6.34375C143.681 6.80078 145.142 7.82812 145.146 9.76562C145.142 11.7773 143.654 13.1016 141.091 13.2422L141.091 14.543ZM146.592 5.32812C146.58 2.98828 148.334 1.28125 150.936 1.29297C153.33 1.30469 155.58 2.75391 155.584 6.96875C155.592 10.918 153.733 13.25 150.85 13.25C148.522 13.25 146.932 11.7656 146.705 9.80469L149.131 9.80469C149.319 10.6523 149.959 11.1406 150.85 11.1406C152.369 11.1406 153.17 9.73828 153.174 7.42969L153.096 7.42969C152.58 8.45312 151.444 9.07422 150.162 9.07422C148.1 9.07422 146.596 7.5 146.592 5.32812ZM166.549 7.28125C166.545 11.1172 164.779 13.3438 161.85 13.3438C158.92 13.3398 157.143 11.1055 157.154 7.28125C157.158 3.46875 158.932 1.29297 161.85 1.29297C164.768 1.29297 166.557 3.47656 166.549 7.28125ZM177.56 7.28125C177.556 11.1172 175.791 13.3438 172.861 13.3438C169.931 13.3398 168.154 11.1055 168.166 7.28125C168.17 3.46875 169.943 1.29297 172.861 1.29297C175.779 1.29297 177.568 3.47656 177.56 7.28125ZM152.932 5.25391C152.92 4.14844 152.084 3.22656 150.955 3.22656C149.811 3.22656 148.967 4.125 148.975 5.26172C148.983 6.40234 149.795 7.28906 150.932 7.28906C152.057 7.28906 152.936 6.36719 152.932 5.25391ZM159.658 7.28125C159.654 9.96484 160.518 11.3047 161.85 11.3047C163.182 11.3047 164.045 9.96484 164.037 7.28125C164.037 4.64062 163.174 3.3125 161.85 3.3125C160.522 3.3125 159.662 4.64062 159.658 7.28125ZM170.67 7.28125C170.666 9.96484 171.529 11.3047 172.861 11.3047C174.193 11.3047 175.056 9.96484 175.049 7.28125C175.049 4.64062 174.185 3.3125 172.861 3.3125C171.533 3.3125 170.674 4.64062 170.67 7.28125ZM138.771 4.65234C138.755 5.35547 139.365 5.73828 140.158 5.97656L140.158 3.38672C139.259 3.51172 138.771 4.01172 138.771 4.65234ZM141.091 8.41406L141.091 11.1562C142.056 11.0273 142.658 10.4922 142.665 9.76172C142.658 9.0625 142.103 8.69922 141.091 8.41406Z" fill="#F16D7F" fill-opacity="1.000000" fill-rule="evenodd"/>
</svg>
