<svg width="335.526489" height="28.244629" viewBox="0 0 335.526 28.2446" fill="none" xmlns="http://www.w3.org/2000/svg" xmlns:xlink="http://www.w3.org/1999/xlink">
	<desc>
			Created with Pixso.
	</desc>
	<defs/>
	<path id="Please use 8 or more characters, with at least 1 number and a mixture of uppercase and lowercase letters" d="M75.5045 7.09668C75.4982 8.5979 74.1842 9.71509 72.3815 9.71509C70.5724 9.71509 69.2584 8.5979 69.2616 7.09668C69.2584 5.92554 70.0646 4.90039 71.1468 4.68774L71.1468 4.63696C70.2169 4.36719 69.5948 3.49121 69.6044 2.47559C69.5948 1.06641 70.7945 0 72.3815 0C73.9557 0 75.1617 1.06323 75.1649 2.47559C75.1617 3.49121 74.5428 4.37354 73.6192 4.63696L73.6192 4.68774C74.692 4.89404 75.4982 5.92554 75.5045 7.09668ZM214.824 0.685547C214.824 1.0061 214.542 1.27588 214.205 1.27588C213.869 1.27588 213.593 1.0061 213.593 0.685547C213.593 0.361816 213.869 0.092041 214.205 0.092041C214.542 0.092041 214.824 0.361816 214.824 0.685547ZM1.38696 9.58496L0.523682 9.58496L0.523682 0.130127L3.57373 0.130127C5.58594 0.130127 6.62061 1.39648 6.62061 3.04688C6.62061 4.70044 5.58594 5.96997 3.58643 5.96997L1.38696 5.96997L1.38696 9.58496ZM8.48191 0.130127L9.30393 0.130127L9.30393 9.58496L8.48191 9.58496L8.48191 0.130127ZM141.55 3.15479C140.417 3.15479 139.586 3.9165 139.586 5.1543L139.586 9.58496L138.764 9.58496L138.764 0.130127L139.586 0.130127L139.586 3.60547L139.659 3.60547C139.992 2.87231 140.687 2.40259 141.76 2.40259C143.201 2.40259 144.178 3.30078 144.178 4.99243L144.178 9.58496L143.353 9.58496L143.353 5.04321C143.353 3.87524 142.651 3.15479 141.55 3.15479ZM224.384 3.15479C223.251 3.15479 222.419 3.9165 222.419 5.1543L222.419 9.58496L221.597 9.58496L221.597 0.130127L222.419 0.130127L222.419 3.60547L222.492 3.60547C222.825 2.87231 223.52 2.40259 224.593 2.40259C226.034 2.40259 227.012 3.30078 227.012 4.99243L227.012 9.58496L226.186 9.58496L226.186 5.04321C226.186 3.87524 225.485 3.15479 224.384 3.15479ZM248.386 0.130127L249.208 0.130127L249.208 9.58496L248.386 9.58496L248.386 0.130127ZM283.124 0.130127L284.025 0.130127L284.025 9.58496L283.162 9.58496L283.162 1.03467L283.105 1.03467L280.89 2.50732L280.89 1.6123L283.124 0.130127ZM317.743 9.58496L316.946 9.58496L316.946 0.130127L317.771 0.130127L317.771 3.84668L317.844 3.84668C318.127 3.20874 318.714 2.39624 320.009 2.39624C321.761 2.39624 322.942 3.87524 322.942 6.05884C322.942 8.26147 321.764 9.73413 320.025 9.73413C318.733 9.73413 318.13 8.92163 317.844 8.26782L317.743 8.26782L317.743 9.58496ZM70.4391 2.52637C70.4359 3.57056 71.2706 4.33545 72.3815 4.33545C73.4859 4.33545 74.3207 3.57056 74.3302 2.52637C74.3207 1.4917 73.505 0.761719 72.3815 0.761719C71.2516 0.761719 70.4359 1.4917 70.4391 2.52637ZM173.977 2.49463L175.478 2.49463L175.478 3.20874L173.977 3.20874L173.977 7.73462C173.977 8.62329 174.491 8.88672 175.05 8.88672C175.266 8.88672 175.412 8.85498 175.529 8.82324L175.704 9.56592C175.548 9.62622 175.317 9.6897 174.974 9.6897C174.066 9.6897 173.152 9.08667 173.152 7.92822L173.152 3.20874L172.095 3.20874L172.095 2.49463L173.152 2.49463L173.152 0.796631L173.977 0.796631L173.977 2.49463ZM218.083 2.49463L219.584 2.49463L219.584 3.20874L218.083 3.20874L218.083 7.73462C218.083 8.62329 218.597 8.88672 219.156 8.88672C219.372 8.88672 219.518 8.85498 219.635 8.82324L219.81 9.56592C219.654 9.62622 219.422 9.6897 219.08 9.6897C218.172 9.6897 217.258 9.08667 217.258 7.92822L217.258 3.20874L216.201 3.20874L216.201 2.49463L217.258 2.49463L217.258 0.796631L218.083 0.796631L218.083 2.49463ZM241.364 2.49463L242.865 2.49463L242.865 3.20874L241.364 3.20874L241.364 7.73462C241.364 8.62329 241.878 8.88672 242.437 8.88672C242.652 8.88672 242.798 8.85498 242.916 8.82324L243.09 9.56592C242.935 9.62622 242.703 9.6897 242.36 9.6897C241.453 9.6897 240.539 9.08667 240.539 7.92822L240.539 3.20874L239.482 3.20874L239.482 2.49463L240.539 2.49463L240.539 0.796631L241.364 0.796631L241.364 2.49463ZM274.118 2.49463L275.619 2.49463L275.619 3.20874L274.118 3.20874L274.118 7.73462C274.118 8.62329 274.632 8.88672 275.191 8.88672C275.406 8.88672 275.552 8.85498 275.67 8.82324L275.844 9.56592C275.689 9.62622 275.457 9.6897 275.114 9.6897C274.207 9.6897 273.293 9.08667 273.293 7.92822L273.293 3.20874L272.236 3.20874L272.236 2.49463L273.293 2.49463L273.293 0.796631L274.118 0.796631L274.118 2.49463ZM1.38696 0.904541L1.38696 5.19556L3.56421 5.19556C5.04639 5.19556 5.77002 4.28467 5.77002 3.04688C5.77002 1.80591 5.04639 0.904541 3.55151 0.904541L1.38696 0.904541ZM89.6076 9.58496L88.7855 9.58496L88.7855 2.49463L89.5822 2.49463L89.5822 3.58325L89.6425 3.58325C89.9313 2.86914 90.693 2.38672 91.5817 2.38672C91.715 2.38672 91.9054 2.39624 92.0165 2.40259L92.0165 3.2373C91.9435 3.22778 91.7404 3.1897 91.5214 3.1897C90.4137 3.1897 89.6076 3.95142 89.6076 5.00513L89.6076 9.58496ZM116.734 9.58496L115.912 9.58496L115.912 2.49463L116.709 2.49463L116.709 3.58325L116.769 3.58325C117.058 2.86914 117.819 2.38672 118.708 2.38672C118.841 2.38672 119.032 2.39624 119.143 2.40259L119.143 3.2373C119.07 3.22778 118.867 3.1897 118.648 3.1897C117.54 3.1897 116.734 3.95142 116.734 5.00513L116.734 9.58496ZM154.404 9.58496L153.582 9.58496L153.582 2.49463L154.379 2.49463L154.379 3.58325L154.439 3.58325C154.728 2.86914 155.49 2.38672 156.379 2.38672C156.512 2.38672 156.702 2.39624 156.813 2.40259L156.813 3.2373C156.74 3.22778 156.537 3.1897 156.318 3.1897C155.211 3.1897 154.404 3.95142 154.404 5.00513L154.404 9.58496ZM185.64 9.58496L184.818 9.58496L184.818 2.49463L185.614 2.49463L185.614 3.58325L185.674 3.58325C185.963 2.86914 186.725 2.38672 187.614 2.38672C187.747 2.38672 187.937 2.39624 188.048 2.40259L188.048 3.2373C187.975 3.22778 187.772 3.1897 187.553 3.1897C186.446 3.1897 185.64 3.95142 185.64 5.00513L185.64 9.58496ZM333.118 9.58496L332.296 9.58496L332.296 2.49463L333.092 2.49463L333.092 3.58325L333.152 3.58325C333.441 2.86914 334.203 2.38672 335.092 2.38672C335.225 2.38672 335.415 2.39624 335.526 2.40259L335.526 3.2373C335.453 3.22778 335.25 3.1897 335.031 3.1897C333.924 3.1897 333.118 3.95142 333.118 5.00513L333.118 9.58496ZM17.0403 8.07104C16.7166 8.96289 15.7612 9.73413 14.3394 9.73413C12.3557 9.73413 11.1084 8.23291 11.1084 6.08105C11.1084 3.93555 12.3779 2.39624 14.2156 2.39624C15.7517 2.39624 17.2148 3.51025 17.2148 5.87793L17.2148 6.28418L11.9336 6.28418C11.9717 7.92188 12.8889 8.97876 14.3394 8.97876C15.3455 8.97876 15.9866 8.45508 16.2595 7.81714L17.0403 8.07104ZM23.1981 8.4646C22.9029 9.08984 22.1825 9.74683 21.0018 9.74683C19.7132 9.74683 18.669 8.97241 18.669 7.60449C18.669 6.20166 19.7926 5.75415 21.3922 5.5542C22.5855 5.4082 23.2489 5.39868 23.2489 4.8623L23.2489 4.69727C23.2489 3.72607 22.6554 3.13574 21.5794 3.13574C20.5543 3.13574 19.9132 3.65625 19.6529 4.26562L18.8722 3.98633C19.3546 2.82788 20.4718 2.39624 21.554 2.39624C22.6395 2.39624 24.0709 2.86914 24.0709 4.77026L24.0709 9.58496L23.2489 9.58496L23.2489 8.4646L23.1981 8.4646ZM28.6199 2.39624C29.9148 2.39624 30.6733 3.02466 31.0193 4.0498L30.2671 4.26245C30.0449 3.62451 29.5752 3.12305 28.6199 3.12305C27.6614 3.12305 26.9758 3.62451 26.9758 4.34497C26.9758 4.96069 27.3852 5.31616 28.2676 5.53516L29.3371 5.79858C30.5241 6.09058 31.1208 6.72217 31.1208 7.66797C31.1208 8.87402 30.0481 9.73413 28.4897 9.73413C27.0996 9.73413 26.1633 9.08984 25.9126 7.90918L26.7029 7.71558C26.8996 8.55664 27.5058 8.99463 28.4739 8.99463C29.5657 8.99463 30.2702 8.44556 30.2702 7.70605C30.2702 7.13794 29.8957 6.73804 29.1181 6.55078L27.9597 6.27466C26.7251 5.97949 26.1474 5.33203 26.1474 4.38306C26.1474 3.21509 27.1885 2.39624 28.6199 2.39624ZM38.4884 8.07104C38.1647 8.96289 37.2094 9.73413 35.7875 9.73413C33.8039 9.73413 32.5565 8.23291 32.5565 6.08105C32.5565 3.93555 33.8261 2.39624 35.6637 2.39624C37.1999 2.39624 38.663 3.51025 38.663 5.87793L38.663 6.28418L33.3817 6.28418C33.4198 7.92188 34.3371 8.97876 35.7875 8.97876C36.7936 8.97876 37.4347 8.45508 37.7077 7.81714L38.4884 8.07104ZM53.9874 2.39624C55.2823 2.39624 56.0409 3.02466 56.3868 4.0498L55.6346 4.26245C55.4124 3.62451 54.9427 3.12305 53.9874 3.12305C53.0289 3.12305 52.3433 3.62451 52.3433 4.34497C52.3433 4.96069 52.7528 5.31616 53.6351 5.53516L54.7047 5.79858C55.8917 6.09058 56.4884 6.72217 56.4884 7.66797C56.4884 8.87402 55.4156 9.73413 53.8573 9.73413C52.4671 9.73413 51.5308 9.08984 51.2801 7.90918L52.0704 7.71558C52.2672 8.55664 52.8734 8.99463 53.8414 8.99463C54.9332 8.99463 55.6378 8.44556 55.6378 7.70605C55.6378 7.13794 55.2633 6.73804 54.4857 6.55078L53.3272 6.27466C52.0926 5.97949 51.515 5.33203 51.515 4.38306C51.515 3.21509 52.556 2.39624 53.9874 2.39624ZM63.856 8.07104C63.5322 8.96289 62.5769 9.73413 61.155 9.73413C59.1714 9.73413 57.9241 8.23291 57.9241 6.08105C57.9241 3.93555 59.1936 2.39624 61.0313 2.39624C62.5674 2.39624 64.0305 3.51025 64.0305 5.87793L64.0305 6.28418L58.7493 6.28418C58.7874 7.92188 59.7046 8.97876 61.155 8.97876C62.1611 8.97876 62.8023 8.45508 63.0752 7.81714L63.856 8.07104ZM86.9785 6.07153C86.9785 8.23291 85.6962 9.73413 83.8586 9.73413C82.021 9.73413 80.7387 8.23291 80.7387 6.07153C80.7387 3.89746 82.021 2.39624 83.8586 2.39624C85.6962 2.39624 86.9785 3.89746 86.9785 6.07153ZM114.105 6.07153C114.105 8.23291 112.823 9.73413 110.985 9.73413C109.147 9.73413 107.865 8.23291 107.865 6.07153C107.865 3.89746 109.147 2.39624 110.985 2.39624C112.823 2.39624 114.105 3.89746 114.105 6.07153ZM125.892 8.07104C125.568 8.96289 124.613 9.73413 123.191 9.73413C121.208 9.73413 119.96 8.23291 119.96 6.08105C119.96 3.93555 121.23 2.39624 123.067 2.39624C124.604 2.39624 126.067 3.51025 126.067 5.87793L126.067 6.28418L120.786 6.28418C120.824 7.92188 121.741 8.97876 123.191 8.97876C124.197 8.97876 124.838 8.45508 125.111 7.81714L125.892 8.07104ZM137.004 7.51562C136.814 8.80103 135.776 9.73413 134.3 9.73413C132.393 9.73413 131.165 8.1853 131.165 6.07153C131.165 3.93872 132.428 2.39624 134.284 2.39624C135.706 2.39624 136.804 3.28491 136.998 4.59888L136.17 4.59888C135.992 3.7959 135.31 3.14526 134.3 3.14526C132.936 3.14526 131.99 4.32593 131.99 6.04297C131.99 7.76953 132.91 8.97876 134.3 8.97876C135.24 8.97876 135.982 8.42017 136.173 7.51562L137.004 7.51562ZM150.525 8.4646C150.23 9.08984 149.51 9.74683 148.329 9.74683C147.04 9.74683 145.996 8.97241 145.996 7.60449C145.996 6.20166 147.12 5.75415 148.719 5.5542C149.913 5.4082 150.576 5.39868 150.576 4.8623L150.576 4.69727C150.576 3.72607 149.982 3.13574 148.906 3.13574C147.881 3.13574 147.24 3.65625 146.98 4.26562L146.199 3.98633C146.682 2.82788 147.799 2.39624 148.881 2.39624C149.967 2.39624 151.398 2.86914 151.398 4.77026L151.398 9.58496L150.576 9.58496L150.576 8.4646L150.525 8.4646ZM162.394 8.4646C162.099 9.08984 161.378 9.74683 160.198 9.74683C158.909 9.74683 157.865 8.97241 157.865 7.60449C157.865 6.20166 158.989 5.75415 160.588 5.5542C161.782 5.4082 162.445 5.39868 162.445 4.8623L162.445 4.69727C162.445 3.72607 161.851 3.13574 160.775 3.13574C159.75 3.13574 159.109 3.65625 158.849 4.26562L158.068 3.98633C158.551 2.82788 159.668 2.39624 160.75 2.39624C161.836 2.39624 163.267 2.86914 163.267 4.77026L163.267 9.58496L162.445 9.58496L162.445 8.4646L162.394 8.4646ZM170.926 7.51562C170.736 8.80103 169.698 9.73413 168.222 9.73413C166.315 9.73413 165.086 8.1853 165.086 6.07153C165.086 3.93872 166.35 2.39624 168.206 2.39624C169.628 2.39624 170.726 3.28491 170.92 4.59888L170.092 4.59888C169.914 3.7959 169.231 3.14526 168.222 3.14526C166.857 3.14526 165.912 4.32593 165.912 6.04297C165.912 7.76953 166.832 8.97876 168.222 8.97876C169.162 8.97876 169.904 8.42017 170.095 7.51562L170.926 7.51562ZM182.836 8.07104C182.513 8.96289 181.557 9.73413 180.136 9.73413C178.152 9.73413 176.905 8.23291 176.905 6.08105C176.905 3.93555 178.174 2.39624 180.012 2.39624C181.548 2.39624 183.011 3.51025 183.011 5.87793L183.011 6.28418L177.73 6.28418C177.768 7.92188 178.685 8.97876 180.136 8.97876C181.142 8.97876 181.783 8.45508 182.056 7.81714L182.836 8.07104ZM191.817 2.39624C193.112 2.39624 193.87 3.02466 194.216 4.0498L193.464 4.26245C193.242 3.62451 192.772 3.12305 191.817 3.12305C190.858 3.12305 190.173 3.62451 190.173 4.34497C190.173 4.96069 190.582 5.31616 191.465 5.53516L192.534 5.79858C193.721 6.09058 194.318 6.72217 194.318 7.66797C194.318 8.87402 193.245 9.73413 191.687 9.73413C190.297 9.73413 189.36 9.08984 189.11 7.90918L189.9 7.71558C190.097 8.55664 190.703 8.99463 191.671 8.99463C192.763 8.99463 193.467 8.44556 193.467 7.70605C193.467 7.13794 193.093 6.73804 192.315 6.55078L191.157 6.27466C189.922 5.97949 189.345 5.33203 189.345 4.38306C189.345 3.21509 190.386 2.39624 191.817 2.39624ZM237.015 8.4646C236.72 9.08984 235.999 9.74683 234.819 9.74683C233.53 9.74683 232.486 8.97241 232.486 7.60449C232.486 6.20166 233.609 5.75415 235.209 5.5542C236.402 5.4082 237.066 5.39868 237.066 4.8623L237.066 4.69727C237.066 3.72607 236.472 3.13574 235.396 3.13574C234.371 3.13574 233.73 3.65625 233.47 4.26562L232.689 3.98633C233.171 2.82788 234.289 2.39624 235.371 2.39624C236.456 2.39624 237.888 2.86914 237.888 4.77026L237.888 9.58496L237.066 9.58496L237.066 8.4646L237.015 8.4646ZM256.945 8.07104C256.621 8.96289 255.666 9.73413 254.244 9.73413C252.26 9.73413 251.013 8.23291 251.013 6.08105C251.013 3.93555 252.282 2.39624 254.12 2.39624C255.656 2.39624 257.119 3.51025 257.119 5.87793L257.119 6.28418L251.838 6.28418C251.876 7.92188 252.793 8.97876 254.244 8.97876C255.25 8.97876 255.891 8.45508 256.164 7.81714L256.945 8.07104ZM263.103 8.4646C262.807 9.08984 262.087 9.74683 260.906 9.74683C259.618 9.74683 258.574 8.97241 258.574 7.60449C258.574 6.20166 259.697 5.75415 261.297 5.5542C262.49 5.4082 263.153 5.39868 263.153 4.8623L263.153 4.69727C263.153 3.72607 262.56 3.13574 261.484 3.13574C260.459 3.13574 259.818 3.65625 259.557 4.26562L258.777 3.98633C259.259 2.82788 260.376 2.39624 261.459 2.39624C262.544 2.39624 263.975 2.86914 263.975 4.77026L263.975 9.58496L263.153 9.58496L263.153 8.4646L263.103 8.4646ZM268.524 2.39624C269.819 2.39624 270.578 3.02466 270.924 4.0498L270.172 4.26245C269.949 3.62451 269.48 3.12305 268.524 3.12305C267.566 3.12305 266.88 3.62451 266.88 4.34497C266.88 4.96069 267.29 5.31616 268.172 5.53516L269.242 5.79858C270.429 6.09058 271.025 6.72217 271.025 7.66797C271.025 8.87402 269.953 9.73413 268.394 9.73413C267.004 9.73413 266.068 9.08984 265.817 7.90918L266.607 7.71558C266.804 8.55664 267.41 8.99463 268.378 8.99463C269.47 8.99463 270.175 8.44556 270.175 7.70605C270.175 7.13794 269.8 6.73804 269.023 6.55078L267.864 6.27466C266.63 5.97949 266.052 5.33203 266.052 4.38306C266.052 3.21509 267.093 2.39624 268.524 2.39624ZM330.314 8.07104C329.991 8.96289 329.035 9.73413 327.614 9.73413C325.63 9.73413 324.383 8.23291 324.383 6.08105C324.383 3.93555 325.652 2.39624 327.49 2.39624C329.026 2.39624 330.489 3.51025 330.489 5.87793L330.489 6.28418L325.208 6.28418C325.246 7.92188 326.163 8.97876 327.614 8.97876C328.62 8.97876 329.261 8.45508 329.534 7.81714L330.314 8.07104ZM97.8987 9.58496L97.0767 9.58496L97.0767 2.49463L97.8734 2.49463L97.8734 3.58325L97.9495 3.58325C98.2288 2.8501 98.9239 2.40259 99.8506 2.40259C100.828 2.40259 101.453 2.88501 101.768 3.69116L101.828 3.69116C102.145 2.90405 102.894 2.40259 103.926 2.40259C105.243 2.40259 106.059 3.24683 106.059 4.83374L106.059 9.58496L105.237 9.58496L105.237 4.83374C105.237 3.71655 104.615 3.15479 103.678 3.15479C102.596 3.15479 101.987 3.89746 101.987 4.91626L101.987 9.58496L101.149 9.58496L101.149 4.76074C101.149 3.79907 100.584 3.15479 99.6158 3.15479C98.6319 3.15479 97.8987 3.93872 97.8987 5.04321L97.8987 9.58496ZM293.342 3.15479C292.225 3.15479 291.412 3.9165 291.412 5.1543L291.412 9.58496L290.59 9.58496L290.59 2.49463L291.387 2.49463L291.387 3.60547L291.463 3.60547C291.793 2.88184 292.51 2.40259 293.548 2.40259C294.98 2.40259 295.954 3.3103 295.954 4.99243L295.954 9.58496L295.132 9.58496L295.132 5.04321C295.132 3.88477 294.431 3.15479 293.342 3.15479ZM306.444 9.58496L305.621 9.58496L305.621 2.49463L306.418 2.49463L306.418 3.58325L306.494 3.58325C306.774 2.8501 307.469 2.40259 308.395 2.40259C309.373 2.40259 309.998 2.88501 310.312 3.69116L310.373 3.69116C310.69 2.90405 311.439 2.40259 312.471 2.40259C313.788 2.40259 314.603 3.24683 314.603 4.83374L314.603 9.58496L313.781 9.58496L313.781 4.83374C313.781 3.71655 313.159 3.15479 312.223 3.15479C311.141 3.15479 310.531 3.89746 310.531 4.91626L310.531 9.58496L309.694 9.58496L309.694 4.76074C309.694 3.79907 309.129 3.15479 308.161 3.15479C307.177 3.15479 306.444 3.93872 306.444 5.04321L306.444 9.58496ZM46.6934 8.8772C47.6519 8.8772 48.6294 8.17578 48.6294 6.87451L48.6294 2.49463L49.4514 2.49463L49.4514 9.58496L48.6294 9.58496L48.6294 8.40747L48.5659 8.40747C48.2327 9.13745 47.4963 9.677 46.4553 9.677C45.0937 9.677 44.1257 8.76929 44.1257 7.08716L44.1257 2.49463L44.9478 2.49463L44.9478 7.03638C44.9478 8.14404 45.6682 8.8772 46.6934 8.8772ZM205.733 9.58496L204.885 9.58496L202.743 2.49463L203.609 2.49463L205.292 8.34399L205.352 8.34399L207.028 2.49463L207.9 2.49463L209.56 8.32812L209.627 8.32812L211.306 2.49463L212.176 2.49463L210.033 9.58496L209.183 9.58496L207.504 3.77368L207.415 3.77368L205.733 9.58496ZM214.611 9.58496L213.786 9.58496L213.786 2.49463L214.611 2.49463L214.611 9.58496ZM300.692 8.8772C301.65 8.8772 302.628 8.17578 302.628 6.87451L302.628 2.49463L303.45 2.49463L303.45 9.58496L302.628 9.58496L302.628 8.40747L302.565 8.40747C302.231 9.13745 301.495 9.677 300.454 9.677C299.092 9.677 298.124 8.76929 298.124 7.08716L298.124 2.49463L298.946 2.49463L298.946 7.03638C298.946 8.14404 299.667 8.8772 300.692 8.8772ZM14.2156 3.14526C12.9175 3.14526 12.0256 4.24023 11.9399 5.56055L16.377 5.56055C16.377 4.19263 15.4851 3.14526 14.2156 3.14526ZM35.6637 3.14526C34.3656 3.14526 33.4738 4.24023 33.3881 5.56055L37.8251 5.56055C37.8251 4.19263 36.9333 3.14526 35.6637 3.14526ZM61.0313 3.14526C59.7332 3.14526 58.8413 4.24023 58.7556 5.56055L63.1926 5.56055C63.1926 4.19263 62.3008 3.14526 61.0313 3.14526ZM81.5639 6.07153C81.5639 7.65845 82.3859 8.97876 83.8586 8.97876C85.3313 8.97876 86.1533 7.65845 86.1533 6.07153C86.1533 4.48462 85.3313 3.14526 83.8586 3.14526C82.3859 3.14526 81.5639 4.48462 81.5639 6.07153ZM108.69 6.07153C108.69 7.65845 109.512 8.97876 110.985 8.97876C112.458 8.97876 113.28 7.65845 113.28 6.07153C113.28 4.48462 112.458 3.14526 110.985 3.14526C109.512 3.14526 108.69 4.48462 108.69 6.07153ZM123.067 3.14526C121.769 3.14526 120.878 4.24023 120.792 5.56055L125.229 5.56055C125.229 4.19263 124.337 3.14526 123.067 3.14526ZM180.012 3.14526C178.714 3.14526 177.822 4.24023 177.736 5.56055L182.173 5.56055C182.173 4.19263 181.281 3.14526 180.012 3.14526ZM254.12 3.14526C252.822 3.14526 251.93 4.24023 251.844 5.56055L256.281 5.56055C256.281 4.19263 255.39 3.14526 254.12 3.14526ZM319.923 3.14526C318.536 3.14526 317.759 4.34497 317.759 6.04297C317.759 7.75684 318.546 8.97876 319.923 8.97876C321.336 8.97876 322.116 7.69653 322.116 6.04297C322.116 4.40845 321.345 3.14526 319.923 3.14526ZM327.49 3.14526C326.192 3.14526 325.3 4.24023 325.214 5.56055L329.651 5.56055C329.651 4.19263 328.759 3.14526 327.49 3.14526ZM70.1122 7.05542C70.1058 8.15039 71.0294 8.9375 72.3815 8.9375C73.7303 8.9375 74.6507 8.15039 74.6539 7.05542C74.6507 5.92554 73.6764 5.07495 72.3815 5.07495C71.0802 5.07495 70.1058 5.92554 70.1122 7.05542ZM19.4911 7.64258C19.4911 8.49951 20.1829 8.99463 21.1129 8.99463C22.4237 8.99463 23.2489 8.02979 23.2489 6.86499L23.2489 5.83984C23.0108 6.07788 21.9762 6.20483 21.3922 6.27466C20.1925 6.42383 19.4911 6.78247 19.4911 7.64258ZM146.818 7.64258C146.818 8.49951 147.51 8.99463 148.44 8.99463C149.751 8.99463 150.576 8.02979 150.576 6.86499L150.576 5.83984C150.338 6.07788 149.303 6.20483 148.719 6.27466C147.52 6.42383 146.818 6.78247 146.818 7.64258ZM158.687 7.64258C158.687 8.49951 159.379 8.99463 160.309 8.99463C161.62 8.99463 162.445 8.02979 162.445 6.86499L162.445 5.83984C162.207 6.07788 161.172 6.20483 160.588 6.27466C159.389 6.42383 158.687 6.78247 158.687 7.64258ZM233.308 7.64258C233.308 8.49951 234 8.99463 234.93 8.99463C236.24 8.99463 237.066 8.02979 237.066 6.86499L237.066 5.83984C236.828 6.07788 235.793 6.20483 235.209 6.27466C234.009 6.42383 233.308 6.78247 233.308 7.64258ZM259.396 7.64258C259.396 8.49951 260.087 8.99463 261.017 8.99463C262.328 8.99463 263.153 8.02979 263.153 6.86499L263.153 5.83984C262.915 6.07788 261.881 6.20483 261.297 6.27466C260.097 6.42383 259.396 6.78247 259.396 7.64258ZM196.588 8.29321L197.483 8.29321L197.401 8.78516C197.239 9.78491 196.842 11.2417 196.62 11.8923L195.989 11.8923C196.109 11.2703 196.357 10.061 196.525 8.81055L196.588 8.29321ZM95.4572 18.4946L97.0251 18.4946L97.0251 19.2087L95.4572 19.2087L95.4509 25.585L94.6288 25.585L94.6288 19.2087L93.5402 19.2087L93.5402 18.4946L94.6288 18.4946L94.6288 17.4568C94.6288 16.311 95.5334 15.6921 96.4982 15.6921C96.933 15.6921 97.2092 15.781 97.3774 15.8477L97.1362 16.5681C97.0124 16.5269 96.8442 16.4666 96.5744 16.4666C95.8571 16.4666 95.4572 16.8823 95.4572 17.625L95.4572 18.4946ZM49.8404 16.6855C49.8404 17.0061 49.5579 17.2759 49.2215 17.2759C48.885 17.2759 48.6089 17.0061 48.6089 16.6855C48.6089 16.3618 48.885 16.092 49.2215 16.092C49.5579 16.092 49.8404 16.3618 49.8404 16.6855ZM19.8526 24.2678C19.5606 24.9153 18.9607 25.7341 17.6722 25.7341C15.9329 25.7341 14.7554 24.2615 14.7554 22.0588C14.7554 19.8752 15.9361 18.3962 17.688 18.3962C18.983 18.3962 19.5701 19.2087 19.8526 19.8467L19.9256 19.8467L19.9256 16.1301L20.7508 16.1301L20.7508 25.585L19.9478 25.585L19.9478 24.2678L19.8526 24.2678ZM189.217 24.2678C188.925 24.9153 188.325 25.7341 187.037 25.7341C185.298 25.7341 184.12 24.2615 184.12 22.0588C184.12 19.8752 185.301 18.3962 187.053 18.3962C188.348 18.3962 188.935 19.2087 189.217 19.8467L189.29 19.8467L189.29 16.1301L190.115 16.1301L190.115 25.585L189.313 25.585L189.313 24.2678L189.217 24.2678ZM196.114 16.1301L196.936 16.1301L196.936 25.585L196.114 25.585L196.114 16.1301ZM261.072 16.1301L261.895 16.1301L261.895 25.585L261.072 25.585L261.072 16.1301ZM59.9455 18.4946L61.4468 18.4946L61.4468 19.2087L59.9455 19.2087L59.9455 23.7346C59.9455 24.6233 60.4597 24.8867 61.0183 24.8867C61.2341 24.8867 61.3801 24.855 61.4975 24.8232L61.6721 25.5659C61.5166 25.6262 61.2849 25.6897 60.9421 25.6897C60.0344 25.6897 59.1203 25.0867 59.1203 23.9282L59.1203 19.2087L58.0635 19.2087L58.0635 18.4946L59.1203 18.4946L59.1203 16.7966L59.9455 16.7966L59.9455 18.4946ZM272.904 18.4946L274.405 18.4946L274.405 19.2087L272.904 19.2087L272.904 23.7346C272.904 24.6233 273.418 24.8867 273.976 24.8867C274.192 24.8867 274.338 24.855 274.456 24.8232L274.63 25.5659C274.475 25.6262 274.243 25.6897 273.9 25.6897C272.993 25.6897 272.078 25.0867 272.078 23.9282L272.078 19.2087L271.022 19.2087L271.022 18.4946L272.078 18.4946L272.078 16.7966L272.904 16.7966L272.904 18.4946ZM277.562 18.4946L279.063 18.4946L279.063 19.2087L277.562 19.2087L277.562 23.7346C277.562 24.6233 278.076 24.8867 278.634 24.8867C278.85 24.8867 278.996 24.855 279.114 24.8232L279.288 25.5659C279.133 25.6262 278.901 25.6897 278.558 25.6897C277.651 25.6897 276.736 25.0867 276.736 23.9282L276.736 19.2087L275.68 19.2087L275.68 18.4946L276.736 18.4946L276.736 16.7966L277.562 16.7966L277.562 18.4946ZM71.631 25.585L70.809 25.585L70.809 18.4946L71.6056 18.4946L71.6056 19.5833L71.6659 19.5833C71.9547 18.8691 72.7164 18.3867 73.6051 18.3867C73.7384 18.3867 73.9288 18.3962 74.0399 18.4026L74.0399 19.2373C73.9669 19.2278 73.7638 19.1897 73.5448 19.1897C72.4371 19.1897 71.631 19.9514 71.631 21.0051L71.631 25.585ZM133.787 25.585L132.965 25.585L132.965 18.4946L133.762 18.4946L133.762 19.5833L133.822 19.5833C134.111 18.8691 134.873 18.3867 135.761 18.3867C135.895 18.3867 136.085 18.3962 136.196 18.4026L136.196 19.2373C136.123 19.2278 135.92 19.1897 135.701 19.1897C134.593 19.1897 133.787 19.9514 133.787 21.0051L133.787 25.585ZM225.143 25.585L224.321 25.585L224.321 18.4946L225.117 18.4946L225.117 19.5833L225.178 19.5833C225.466 18.8691 226.228 18.3867 227.117 18.3867C227.25 18.3867 227.441 18.3962 227.552 18.4026L227.552 19.2373C227.479 19.2278 227.276 19.1897 227.057 19.1897C225.949 19.1897 225.143 19.9514 225.143 21.0051L225.143 25.585ZM289.224 25.585L288.402 25.585L288.402 18.4946L289.199 18.4946L289.199 19.5833L289.259 19.5833C289.548 18.8691 290.31 18.3867 291.198 18.3867C291.331 18.3867 291.522 18.3962 291.633 18.4026L291.633 19.2373C291.56 19.2278 291.357 19.1897 291.138 19.1897C290.03 19.1897 289.224 19.9514 289.224 21.0051L289.224 25.585ZM4.52905 24.4646C4.23389 25.0898 3.51343 25.7468 2.33276 25.7468C1.04419 25.7468 0 24.9724 0 23.6045C0 22.2017 1.12354 21.7542 2.72314 21.5542C3.9165 21.4082 4.57983 21.3987 4.57983 20.8623L4.57983 20.6973C4.57983 19.7261 3.98633 19.1357 2.9104 19.1357C1.88525 19.1357 1.24414 19.6562 0.983887 20.2656L0.203125 19.9863C0.685547 18.8279 1.80273 18.3962 2.88501 18.3962C3.97046 18.3962 5.40186 18.8691 5.40186 20.7703L5.40186 25.585L4.57983 25.585L4.57983 24.4646L4.52905 24.4646ZM30.9261 24.4646C30.6309 25.0898 29.9104 25.7468 28.7298 25.7468C27.4412 25.7468 26.397 24.9724 26.397 23.6045C26.397 22.2017 27.5206 21.7542 29.1202 21.5542C30.3135 21.4082 30.9769 21.3987 30.9769 20.8623L30.9769 20.6973C30.9769 19.7261 30.3833 19.1357 29.3074 19.1357C28.2823 19.1357 27.6412 19.6562 27.3809 20.2656L26.6001 19.9863C27.0826 18.8279 28.1998 18.3962 29.282 18.3962C30.3675 18.3962 31.7989 18.8691 31.7989 20.7703L31.7989 25.585L30.9769 25.585L30.9769 24.4646L30.9261 24.4646ZM80.7892 24.071C80.4655 24.9629 79.5102 25.7341 78.0883 25.7341C76.1046 25.7341 74.8573 24.2329 74.8573 22.0811C74.8573 19.9355 76.1269 18.3962 77.9645 18.3962C79.5006 18.3962 80.9638 19.5103 80.9638 21.8779L80.9638 22.2842L75.6825 22.2842C75.7206 23.9219 76.6378 24.9788 78.0883 24.9788C79.0944 24.9788 79.7355 24.4551 80.0085 23.8171L80.7892 24.071ZM92.3013 22.0715C92.3013 24.2329 91.019 25.7341 89.1814 25.7341C87.3438 25.7341 86.0615 24.2329 86.0615 22.0715C86.0615 19.8975 87.3438 18.3962 89.1814 18.3962C91.019 18.3962 92.3013 19.8975 92.3013 22.0715ZM110.645 28.2446L109.823 28.2446L109.823 18.4946L110.619 18.4946L110.619 19.8467L110.718 19.8467C111.01 19.2087 111.581 18.3962 112.889 18.3962C114.638 18.3962 115.815 19.8689 115.815 22.0588C115.815 24.2551 114.631 25.7341 112.898 25.7341C111.613 25.7341 111.003 24.9216 110.718 24.2678L110.645 24.2678L110.645 28.2446ZM118.442 28.2446L117.62 28.2446L117.62 18.4946L118.417 18.4946L118.417 19.8467L118.515 19.8467C118.807 19.2087 119.378 18.3962 120.686 18.3962C122.435 18.3962 123.612 19.8689 123.612 22.0588C123.612 24.2551 122.428 25.7341 120.695 25.7341C119.41 25.7341 118.801 24.9216 118.515 24.2678L118.442 24.2678L118.442 28.2446ZM130.984 24.071C130.66 24.9629 129.705 25.7341 128.283 25.7341C126.3 25.7341 125.052 24.2329 125.052 22.0811C125.052 19.9355 126.322 18.3962 128.159 18.3962C129.696 18.3962 131.159 19.5103 131.159 21.8779L131.159 22.2842L125.877 22.2842C125.916 23.9219 126.833 24.9788 128.283 24.9788C129.289 24.9788 129.93 24.4551 130.203 23.8171L130.984 24.071ZM142.853 23.5156C142.663 24.801 141.625 25.7341 140.149 25.7341C138.242 25.7341 137.014 24.1853 137.014 22.0715C137.014 19.9387 138.277 18.3962 140.133 18.3962C141.555 18.3962 142.653 19.2849 142.847 20.5989L142.019 20.5989C141.841 19.7959 141.159 19.1453 140.149 19.1453C138.785 19.1453 137.839 20.3259 137.839 22.043C137.839 23.7695 138.759 24.9788 140.149 24.9788C141.089 24.9788 141.831 24.4202 142.022 23.5156L142.853 23.5156ZM148.789 24.4646C148.494 25.0898 147.774 25.7468 146.593 25.7468C145.304 25.7468 144.26 24.9724 144.26 23.6045C144.26 22.2017 145.384 21.7542 146.983 21.5542C148.177 21.4082 148.84 21.3987 148.84 20.8623L148.84 20.6973C148.84 19.7261 148.247 19.1357 147.171 19.1357C146.146 19.1357 145.504 19.6562 145.244 20.2656L144.463 19.9863C144.946 18.8279 146.063 18.3962 147.145 18.3962C148.231 18.3962 149.662 18.8691 149.662 20.7703L149.662 25.585L148.84 25.585L148.84 24.4646L148.789 24.4646ZM154.211 18.3962C155.506 18.3962 156.265 19.0247 156.611 20.0498L155.858 20.2625C155.636 19.6245 155.166 19.123 154.211 19.123C153.253 19.123 152.567 19.6245 152.567 20.345C152.567 20.9607 152.977 21.3162 153.859 21.5352L154.928 21.7986C156.115 22.0906 156.712 22.7222 156.712 23.668C156.712 24.874 155.639 25.7341 154.081 25.7341C152.691 25.7341 151.755 25.0898 151.504 23.9092L152.294 23.7156C152.491 24.5566 153.097 24.9946 154.065 24.9946C155.157 24.9946 155.862 24.4456 155.862 23.7061C155.862 23.1379 155.487 22.738 154.709 22.5508L153.551 22.2747C152.316 21.9795 151.739 21.332 151.739 20.3831C151.739 19.2151 152.78 18.3962 154.211 18.3962ZM164.08 24.071C163.756 24.9629 162.801 25.7341 161.379 25.7341C159.395 25.7341 158.148 24.2329 158.148 22.0811C158.148 19.9355 159.417 18.3962 161.255 18.3962C162.791 18.3962 164.254 19.5103 164.254 21.8779L164.254 22.2842L158.973 22.2842C159.011 23.9219 159.928 24.9788 161.379 24.9788C162.385 24.9788 163.026 24.4551 163.299 23.8171L164.08 24.071ZM173.894 24.4646C173.599 25.0898 172.878 25.7468 171.697 25.7468C170.409 25.7468 169.365 24.9724 169.365 23.6045C169.365 22.2017 170.488 21.7542 172.088 21.5542C173.281 21.4082 173.945 21.3987 173.945 20.8623L173.945 20.6973C173.945 19.7261 173.351 19.1357 172.275 19.1357C171.25 19.1357 170.609 19.6562 170.349 20.2656L169.568 19.9863C170.05 18.8279 171.167 18.3962 172.25 18.3962C173.335 18.3962 174.767 18.8691 174.767 20.7703L174.767 25.585L173.945 25.585L173.945 24.4646L173.894 24.4646ZM204.98 22.0715C204.98 24.2329 203.698 25.7341 201.86 25.7341C200.023 25.7341 198.741 24.2329 198.741 22.0715C198.741 19.8975 200.023 18.3962 201.86 18.3962C203.698 18.3962 204.98 19.8975 204.98 22.0715ZM222.34 24.071C222.016 24.9629 221.061 25.7341 219.639 25.7341C217.655 25.7341 216.408 24.2329 216.408 22.0811C216.408 19.9355 217.677 18.3962 219.515 18.3962C221.051 18.3962 222.514 19.5103 222.514 21.8779L222.514 22.2842L217.233 22.2842C217.271 23.9219 218.188 24.9788 219.639 24.9788C220.645 24.9788 221.286 24.4551 221.559 23.8171L222.34 24.071ZM234.209 23.5156C234.018 24.801 232.981 25.7341 231.505 25.7341C229.597 25.7341 228.369 24.1853 228.369 22.0715C228.369 19.9387 229.632 18.3962 231.489 18.3962C232.911 18.3962 234.009 19.2849 234.203 20.5989L233.374 20.5989C233.196 19.7959 232.514 19.1453 231.505 19.1453C230.14 19.1453 229.194 20.3259 229.194 22.043C229.194 23.7695 230.115 24.9788 231.505 24.9788C232.444 24.9788 233.187 24.4202 233.377 23.5156L234.209 23.5156ZM240.145 24.4646C239.85 25.0898 239.129 25.7468 237.949 25.7468C236.66 25.7468 235.616 24.9724 235.616 23.6045C235.616 22.2017 236.739 21.7542 238.339 21.5542C239.532 21.4082 240.196 21.3987 240.196 20.8623L240.196 20.6973C240.196 19.7261 239.602 19.1357 238.526 19.1357C237.501 19.1357 236.86 19.6562 236.6 20.2656L235.819 19.9863C236.301 18.8279 237.419 18.3962 238.501 18.3962C239.586 18.3962 241.018 18.8691 241.018 20.7703L241.018 25.585L240.196 25.585L240.196 24.4646L240.145 24.4646ZM245.567 18.3962C246.862 18.3962 247.62 19.0247 247.966 20.0498L247.214 20.2625C246.992 19.6245 246.522 19.123 245.567 19.123C244.608 19.123 243.923 19.6245 243.923 20.345C243.923 20.9607 244.332 21.3162 245.214 21.5352L246.284 21.7986C247.471 22.0906 248.068 22.7222 248.068 23.668C248.068 24.874 246.995 25.7341 245.436 25.7341C244.046 25.7341 243.11 25.0898 242.859 23.9092L243.65 23.7156C243.846 24.5566 244.453 24.9946 245.421 24.9946C246.512 24.9946 247.217 24.4456 247.217 23.7061C247.217 23.1379 246.842 22.738 246.065 22.5508L244.906 22.2747C243.672 21.9795 243.094 21.332 243.094 20.3831C243.094 19.2151 244.135 18.3962 245.567 18.3962ZM255.435 24.071C255.111 24.9629 254.156 25.7341 252.734 25.7341C250.751 25.7341 249.503 24.2329 249.503 22.0811C249.503 19.9355 250.773 18.3962 252.61 18.3962C254.147 18.3962 255.61 19.5103 255.61 21.8779L255.61 22.2842L250.328 22.2842C250.367 23.9219 251.284 24.9788 252.734 24.9788C253.74 24.9788 254.381 24.4551 254.654 23.8171L255.435 24.071ZM269.631 24.071C269.307 24.9629 268.352 25.7341 266.93 25.7341C264.946 25.7341 263.699 24.2329 263.699 22.0811C263.699 19.9355 264.969 18.3962 266.806 18.3962C268.342 18.3962 269.805 19.5103 269.805 21.8779L269.805 22.2842L264.524 22.2842C264.562 23.9219 265.479 24.9788 266.93 24.9788C267.936 24.9788 268.577 24.4551 268.85 23.8171L269.631 24.071ZM286.421 24.071C286.097 24.9629 285.142 25.7341 283.72 25.7341C281.736 25.7341 280.489 24.2329 280.489 22.0811C280.489 19.9355 281.759 18.3962 283.596 18.3962C285.132 18.3962 286.596 19.5103 286.596 21.8779L286.596 22.2842L281.314 22.2842C281.352 23.9219 282.27 24.9788 283.72 24.9788C284.726 24.9788 285.367 24.4551 285.64 23.8171L286.421 24.071ZM295.401 18.3962C296.696 18.3962 297.455 19.0247 297.801 20.0498L297.049 20.2625C296.827 19.6245 296.357 19.123 295.401 19.123C294.443 19.123 293.757 19.6245 293.757 20.345C293.757 20.9607 294.167 21.3162 295.049 21.5352L296.119 21.7986C297.306 22.0906 297.902 22.7222 297.902 23.668C297.902 24.874 296.83 25.7341 295.271 25.7341C293.881 25.7341 292.945 25.0898 292.694 23.9092L293.484 23.7156C293.681 24.5566 294.287 24.9946 295.255 24.9946C296.347 24.9946 297.052 24.4456 297.052 23.7061C297.052 23.1379 296.677 22.738 295.9 22.5508L294.741 22.2747C293.507 21.9795 292.929 21.332 292.929 20.3831C292.929 19.2151 293.97 18.3962 295.401 18.3962ZM10.338 19.1548C9.22084 19.1548 8.40834 19.9165 8.40834 21.1543L8.40834 25.585L7.58632 25.585L7.58632 18.4946L8.38295 18.4946L8.38295 19.6055L8.45912 19.6055C8.7892 18.8818 9.50648 18.4026 10.5443 18.4026C11.9757 18.4026 12.9501 19.3103 12.9501 20.9924L12.9501 25.585L12.1281 25.585L12.1281 21.0432C12.1281 19.8848 11.4266 19.1548 10.338 19.1548ZM38.4616 25.585L37.6396 25.585L37.6396 18.4946L38.4362 18.4946L38.4362 19.5833L38.5124 19.5833C38.7917 18.8501 39.4867 18.4026 40.4135 18.4026C41.391 18.4026 42.0163 18.885 42.3305 19.6912L42.3908 19.6912C42.7082 18.9041 43.4572 18.4026 44.4887 18.4026C45.8058 18.4026 46.6215 19.2468 46.6215 20.8337L46.6215 25.585L45.7995 25.585L45.7995 20.8337C45.7995 19.7166 45.1774 19.1548 44.2411 19.1548C43.1589 19.1548 42.5495 19.8975 42.5495 20.9163L42.5495 25.585L41.7116 25.585L41.7116 20.7607C41.7116 19.7991 41.1467 19.1548 40.1786 19.1548C39.1948 19.1548 38.4616 19.9387 38.4616 21.0432L38.4616 25.585ZM179.703 19.1548C178.586 19.1548 177.773 19.9165 177.773 21.1543L177.773 25.585L176.951 25.585L176.951 18.4946L177.748 18.4946L177.748 19.6055L177.824 19.6055C178.154 18.8818 178.871 18.4026 179.909 18.4026C181.34 18.4026 182.315 19.3103 182.315 20.9924L182.315 25.585L181.493 25.585L181.493 21.0432C181.493 19.8848 180.791 19.1548 179.703 19.1548ZM49.6277 25.585L48.8025 25.585L48.8025 18.4946L49.6277 18.4946L49.6277 25.585ZM51.3632 18.4946L52.3154 18.4946L54.1435 21.5193L55.9716 18.4946L56.9269 18.4946L54.645 22.0398L56.9269 25.585L55.9716 25.585L54.1435 22.6587L52.3154 25.585L51.3632 25.585L53.6166 22.0398L51.3632 18.4946ZM65.8794 24.8772C66.8379 24.8772 67.8155 24.1758 67.8155 22.8745L67.8155 18.4946L68.6375 18.4946L68.6375 25.585L67.8155 25.585L67.8155 24.4075L67.752 24.4075C67.4187 25.1375 66.6824 25.677 65.6414 25.677C64.2798 25.677 63.3118 24.7693 63.3118 23.0872L63.3118 18.4946L64.1338 18.4946L64.1338 23.0364C64.1338 24.144 64.8543 24.8772 65.8794 24.8772ZM104.893 24.8772C105.852 24.8772 106.829 24.1758 106.829 22.8745L106.829 18.4946L107.651 18.4946L107.651 25.585L106.829 25.585L106.829 24.4075L106.766 24.4075C106.433 25.1375 105.696 25.677 104.655 25.677C103.294 25.677 102.326 24.7693 102.326 23.0872L102.326 18.4946L103.148 18.4946L103.148 23.0364C103.148 24.144 103.868 24.8772 104.893 24.8772ZM208.969 25.585L208.121 25.585L205.979 18.4946L206.846 18.4946L208.528 24.344L208.588 24.344L210.264 18.4946L211.137 18.4946L212.797 24.3281L212.863 24.3281L214.542 18.4946L215.412 18.4946L213.269 25.585L212.419 25.585L210.74 19.7737L210.651 19.7737L208.969 25.585ZM15.5806 22.043C15.5806 23.6965 16.3582 24.9788 17.7706 24.9788C19.1448 24.9788 19.9383 23.7568 19.9383 22.043C19.9383 20.345 19.1543 19.1453 17.7706 19.1453C16.3487 19.1453 15.5806 20.4084 15.5806 22.043ZM77.9645 19.1453C76.6664 19.1453 75.7746 20.2402 75.6889 21.5605L80.1259 21.5605C80.1259 20.1926 79.234 19.1453 77.9645 19.1453ZM86.8867 22.0715C86.8867 23.6584 87.7087 24.9788 89.1814 24.9788C90.6541 24.9788 91.4761 23.6584 91.4761 22.0715C91.4761 20.4846 90.6541 19.1453 89.1814 19.1453C87.7087 19.1453 86.8867 20.4846 86.8867 22.0715ZM112.8 19.1453C111.41 19.1453 110.635 20.345 110.635 22.043C110.635 23.7568 111.429 24.9788 112.8 24.9788C114.209 24.9788 114.993 23.6965 114.993 22.043C114.993 20.4084 114.225 19.1453 112.8 19.1453ZM120.597 19.1453C119.207 19.1453 118.433 20.345 118.433 22.043C118.433 23.7568 119.226 24.9788 120.597 24.9788C122.006 24.9788 122.79 23.6965 122.79 22.043C122.79 20.4084 122.022 19.1453 120.597 19.1453ZM128.159 19.1453C126.861 19.1453 125.97 20.2402 125.884 21.5605L130.321 21.5605C130.321 20.1926 129.429 19.1453 128.159 19.1453ZM161.255 19.1453C159.957 19.1453 159.065 20.2402 158.979 21.5605L163.416 21.5605C163.416 20.1926 162.525 19.1453 161.255 19.1453ZM184.945 22.043C184.945 23.6965 185.723 24.9788 187.135 24.9788C188.51 24.9788 189.303 23.7568 189.303 22.043C189.303 20.345 188.519 19.1453 187.135 19.1453C185.713 19.1453 184.945 20.4084 184.945 22.043ZM199.566 22.0715C199.566 23.6584 200.388 24.9788 201.86 24.9788C203.333 24.9788 204.155 23.6584 204.155 22.0715C204.155 20.4846 203.333 19.1453 201.86 19.1453C200.388 19.1453 199.566 20.4846 199.566 22.0715ZM219.515 19.1453C218.217 19.1453 217.325 20.2402 217.239 21.5605L221.676 21.5605C221.676 20.1926 220.784 19.1453 219.515 19.1453ZM252.61 19.1453C251.312 19.1453 250.421 20.2402 250.335 21.5605L254.772 21.5605C254.772 20.1926 253.88 19.1453 252.61 19.1453ZM266.806 19.1453C265.508 19.1453 264.616 20.2402 264.531 21.5605L268.968 21.5605C268.968 20.1926 268.076 19.1453 266.806 19.1453ZM283.596 19.1453C282.298 19.1453 281.406 20.2402 281.321 21.5605L285.758 21.5605C285.758 20.1926 284.866 19.1453 283.596 19.1453ZM0.822021 23.6426C0.822021 24.4995 1.51392 24.9946 2.44385 24.9946C3.75464 24.9946 4.57983 24.0298 4.57983 22.865L4.57983 21.8398C4.3418 22.0779 3.30713 22.2048 2.72314 22.2747C1.52344 22.4238 0.822021 22.7825 0.822021 23.6426ZM27.219 23.6426C27.219 24.4995 27.9109 24.9946 28.8409 24.9946C30.1517 24.9946 30.9769 24.0298 30.9769 22.865L30.9769 21.8398C30.7388 22.0779 29.7041 22.2048 29.1202 22.2747C27.9205 22.4238 27.219 22.7825 27.219 23.6426ZM145.082 23.6426C145.082 24.4995 145.774 24.9946 146.704 24.9946C148.015 24.9946 148.84 24.0298 148.84 22.865L148.84 21.8398C148.602 22.0779 147.567 22.2048 146.983 22.2747C145.784 22.4238 145.082 22.7825 145.082 23.6426ZM170.187 23.6426C170.187 24.4995 170.879 24.9946 171.809 24.9946C173.119 24.9946 173.945 24.0298 173.945 22.865L173.945 21.8398C173.707 22.0779 172.672 22.2048 172.088 22.2747C170.888 22.4238 170.187 22.7825 170.187 23.6426ZM236.438 23.6426C236.438 24.4995 237.13 24.9946 238.06 24.9946C239.37 24.9946 240.196 24.0298 240.196 22.865L240.196 21.8398C239.958 22.0779 238.923 22.2048 238.339 22.2747C237.139 22.4238 236.438 22.7825 236.438 23.6426Z" fill="#B1B1B1" fill-opacity="1.000000" fill-rule="evenodd"/>
</svg>
