<svg width="193.465942" height="47.000000" viewBox="0 0 193.466 47" fill="none" xmlns="http://www.w3.org/2000/svg" xmlns:xlink="http://www.w3.org/1999/xlink">
	<desc>
			Created with Pixso.
	</desc>
	<defs/>
	<path id="MANGO PEOPLE T-SHIRT" d="M70.7008 5.69531L68.5211 5.69531C67.7829 3.4043 66.0661 1.98047 63.5465 1.98047C60.4411 1.98047 57.9508 4.43555 57.9508 8.9707C57.9508 13.5 60.4411 15.9551 63.6813 15.9551C66.6403 15.9551 68.7028 13.9805 68.7614 10.8457L64.1559 10.8457L64.1559 8.9707L70.8063 8.9707L70.8063 10.8457C70.8063 15.1641 67.8414 17.9355 63.6813 17.9355C59.0465 17.9355 55.9059 14.4902 55.9059 8.9707C55.9059 3.44531 59.07 0 63.5465 0C67.2262 0 70.0563 2.32031 70.7008 5.69531ZM81.4405 0C85.9054 0 89.1456 3.44531 89.1456 8.9707C89.1456 14.4902 85.9054 17.9355 81.4405 17.9355C76.9757 17.9355 73.7354 14.4902 73.7354 8.9707C73.7354 3.44531 76.9757 0 81.4405 0ZM142.804 0C147.269 0 150.509 3.44531 150.509 8.9707C150.509 14.4902 147.269 17.9355 142.804 17.9355C138.339 17.9355 135.099 14.4902 135.099 8.9707C135.099 3.44531 138.339 0 142.804 0ZM0.955078 17.6953L0.955078 0.240234L3.47461 0.240234L9.41016 14.7305L9.61523 14.7305L15.5449 0.240234L18.0645 0.240234L18.0645 17.6953L16.0898 17.6953L16.0898 4.43555L15.9199 4.43555L10.4648 17.6953L8.55469 17.6953L3.09961 4.43555L2.92969 4.43555L2.92969 17.6953L0.955078 17.6953ZM24.7686 12.75L23.0108 17.6953L20.796 17.6953L27.2061 0.240234L29.3858 0.240234L35.796 17.6953L33.5811 17.6953L31.8233 12.75L24.7686 12.75ZM50.283 0.240234L52.3631 0.240234L52.3631 17.6953L50.3182 17.6953L40.8084 3.99023L40.6326 3.99023L40.6326 17.6953L38.5233 17.6953L38.5233 0.240234L40.5682 0.240234L50.1131 13.9805L50.283 13.9805L50.283 0.240234ZM108.303 17.6953L106.194 17.6953L106.194 0.240234L112.088 0.240234C116.19 0.240234 118.024 2.67773 118.024 5.76562C118.024 8.84766 116.19 11.3203 112.123 11.3203L108.303 11.3203L108.303 17.6953ZM132.102 17.6953L121.432 17.6953L121.432 0.240234L131.968 0.240234L131.968 2.11523L123.542 2.11523L123.542 8.01562L131.417 8.01562L131.417 9.89062L123.542 9.89062L123.542 15.8203L132.102 15.8203L132.102 17.6953ZM156.167 17.6953L154.057 17.6953L154.057 0.240234L159.952 0.240234C164.053 0.240234 165.887 2.67773 165.887 5.76562C165.887 8.84766 164.053 11.3203 159.987 11.3203L156.167 11.3203L156.167 17.6953ZM179.521 17.6953L169.296 17.6953L169.296 0.240234L171.405 0.240234L171.405 15.8203L179.521 15.8203L179.521 17.6953ZM193.466 17.6953L182.796 17.6953L182.796 0.240234L193.331 0.240234L193.331 2.11523L184.905 2.11523L184.905 8.01562L192.78 8.01562L192.78 9.89062L184.905 9.89062L184.905 15.8203L193.466 15.8203L193.466 17.6953ZM81.4405 15.9551C84.6104 15.9551 87.1007 13.5 87.1007 8.9707C87.1007 4.43555 84.6104 1.98047 81.4405 1.98047C78.2706 1.98047 75.7804 4.43555 75.7804 8.9707C75.7804 13.5 78.2706 15.9551 81.4405 15.9551ZM142.804 15.9551C145.974 15.9551 148.464 13.5 148.464 8.9707C148.464 4.43555 145.974 1.98047 142.804 1.98047C139.634 1.98047 137.144 4.43555 137.144 8.9707C137.144 13.5 139.634 15.9551 142.804 15.9551ZM108.303 2.11523L108.303 9.44531L112.053 9.44531C114.86 9.44531 115.944 7.85742 115.944 5.76562C115.944 3.66797 114.86 2.11523 112.024 2.11523L108.303 2.11523ZM156.167 2.11523L156.167 9.44531L159.917 9.44531C162.723 9.44531 163.807 7.85742 163.807 5.76562C163.807 3.66797 162.723 2.11523 159.887 2.11523L156.167 2.11523ZM28.2257 3L25.4308 10.875L31.1554 10.875L28.3604 3L28.2257 3ZM37.2267 33.6055L35.1818 33.6055C34.9767 31.8828 33.3713 30.875 31.2619 30.875C28.9416 30.875 27.4064 32.1055 27.4064 33.7754C27.4064 35.6504 29.4865 36.3301 30.7814 36.6699L32.5568 37.1504C34.3615 37.625 37.467 38.6855 37.467 41.9551C37.467 44.7852 35.1818 47 31.1564 47C27.4064 47 25.092 45.0605 24.8869 42.1953L27.0666 42.1953C27.2365 44.1699 29.0764 45.0957 31.1564 45.0957C33.5764 45.0957 35.4221 43.8301 35.4221 41.9199C35.4221 40.1855 33.7814 39.5352 31.9416 39.0254L29.7971 38.4102C27.0666 37.625 25.3615 36.2305 25.3615 33.875C25.3615 30.9453 27.9865 29 31.3264 29C34.7014 29 37.133 30.9688 37.2267 33.6055ZM5.49023 31.1152L0 31.1152L0 29.2402L13.0898 29.2402L13.0898 31.1152L7.59961 31.1152L7.59961 46.6953L5.49023 46.6953L5.49023 31.1152ZM43.0531 46.6953L40.9437 46.6953L40.9437 29.2402L43.0531 29.2402L43.0531 37.0156L52.3636 37.0156L52.3636 29.2402L54.4789 29.2402L54.4789 46.6953L52.3636 46.6953L52.3636 38.8906L43.0531 38.8906L43.0531 46.6953ZM58.7051 29.2402L60.8145 29.2402L60.8145 46.6953L58.7051 46.6953L58.7051 29.2402ZM67.1554 46.6953L65.046 46.6953L65.046 29.2402L70.9405 29.2402C75.0304 29.2402 76.8761 31.5078 76.8761 34.5957C76.8761 36.9102 75.8331 38.7266 73.6124 39.4824L77.5558 46.6953L75.1007 46.6953L71.421 39.8691C71.2745 39.875 71.128 39.875 70.9757 39.875L67.1554 39.875L67.1554 46.6953ZM84.9221 31.1152L79.4318 31.1152L79.4318 29.2402L92.5217 29.2402L92.5217 31.1152L87.0314 31.1152L87.0314 46.6953L84.9221 46.6953L84.9221 31.1152ZM67.1554 31.1152L67.1554 37.9707L70.9054 37.9707C73.7061 37.9707 74.796 36.6875 74.796 34.5957C74.796 32.498 73.7061 31.1152 70.8761 31.1152L67.1554 31.1152ZM14.1813 37.0332L21.8161 37.0332L21.8161 38.9082L14.1813 38.9082L14.1813 37.0332Z" fill="#222222" fill-opacity="1.000000" fill-rule="evenodd"/>
</svg>
