<svg width="144.436035" height="26.001465" viewBox="0 0 144.436 26.0015" fill="none" xmlns="http://www.w3.org/2000/svg" xmlns:xlink="http://www.w3.org/1999/xlink">
	<desc>
			Created with Pixso.
	</desc>
	<defs/>
	<path id="Price: $300" d="M24.1543 5.75244C24.1543 6.43994 23.5635 6.99854 22.8438 6.99854C22.124 6.99854 21.5278 6.43994 21.5278 5.75244C21.5278 5.06494 22.124 4.50098 22.8438 4.50098C23.5635 4.50098 24.1543 5.06494 24.1543 5.75244ZM1.93359 21.001L0 21.001L0 5.00049L5.40332 5.00049C9.16309 5.00049 10.8442 7.23486 10.8442 10.0654C10.8442 12.8906 9.16309 15.1572 5.43555 15.1572L1.93359 15.1572L1.93359 21.001ZM1.93359 6.71924L1.93359 13.4385L5.37109 13.4385C7.94385 13.4385 8.9375 11.9829 8.9375 10.0654C8.9375 8.14258 7.94385 6.71924 5.34424 6.71924L1.93359 6.71924ZM15.5586 21.001L13.7163 21.001L13.7163 9.00195L15.4995 9.00195L15.4995 10.812L15.623 10.812C16.0635 9.625 17.3096 8.81396 18.749 8.81396C19.0229 8.81396 19.5063 8.83008 19.7158 8.84619L19.7158 10.7207C19.5923 10.6885 19.082 10.5972 18.5933 10.5972C16.8423 10.5972 15.5586 11.7842 15.5586 13.4062L15.5586 21.001ZM36.7153 17.499C36.4038 19.626 34.6528 21.2534 31.9995 21.2534C28.6211 21.2534 26.5586 18.6592 26.5586 15.0659C26.5586 11.4082 28.7178 8.84619 31.9673 8.84619C34.4971 8.84619 36.4038 10.3447 36.7153 12.5952L34.873 12.5952C34.5938 11.4995 33.6216 10.5005 31.9995 10.5005C29.8403 10.5005 28.4062 12.2837 28.4062 15.0015C28.4062 17.7837 29.8135 19.5938 31.9995 19.5938C33.4336 19.5938 34.5293 18.8149 34.873 17.499L36.7153 17.499ZM49.2168 18.2188C48.6528 20.0342 46.875 21.2534 44.4365 21.2534C40.9668 21.2534 38.8398 18.7827 38.8398 15.0928C38.8398 11.4082 40.999 8.84619 44.2485 8.84619C46.7461 8.84619 49.4048 10.377 49.4048 14.8457L49.4048 15.6245L40.6929 15.6245C40.7788 18.1973 42.272 19.5938 44.4365 19.5938C45.8813 19.5938 46.9663 18.9707 47.4336 17.7192L49.2168 18.2188ZM23.7461 21.001L21.9038 21.001L21.9038 9.00195L23.7461 9.00195L23.7461 21.001ZM54.9663 10.812C54.9663 11.5854 54.3325 12.2192 53.5591 12.2192C52.7856 12.2192 52.1572 11.5854 52.1572 10.812C52.1572 10.0386 52.7856 9.40479 53.5591 9.40479C54.3325 9.40479 54.9663 10.0386 54.9663 10.812ZM44.2485 10.5005C42.1377 10.5005 40.8164 12.1655 40.6929 14.0347L47.5303 14.0347C47.5303 11.999 46.2466 10.5005 44.2485 10.5005ZM54.9663 19.7173C54.9663 20.4907 54.3325 21.1245 53.5591 21.1245C52.7856 21.1245 52.1572 20.4907 52.1572 19.7173C52.1572 18.9438 52.7856 18.3154 53.5591 18.3154C54.3325 18.3154 54.9663 18.9438 54.9663 19.7173Z" fill="#575757" fill-opacity="1.000000" fill-rule="evenodd"/>
	<path id="Price: $300" d="M144.436 4.00146L126.438 4.00146L126.438 0L144.436 0L144.436 4.00146ZM70.4336 22.999L69.1553 22.999L69.1553 21.2588C66.083 21.0547 64.2085 19.3359 64.0312 16.876L66.0293 16.876C66.1689 18.4873 67.5117 19.3306 69.1553 19.5024L69.1553 13.5889L68.5322 13.4062C66.0293 12.6865 64.4663 11.4082 64.4663 9.24902C64.4663 6.7998 66.4751 5.09717 69.1553 4.82324L69.1553 3.00244L70.4336 3.00244L70.4336 4.79639C73.2642 4.98438 75.2622 6.71924 75.3428 9.00195L73.4683 9.00195C73.2964 7.57861 72.0933 6.68701 70.4336 6.52588L70.4336 12.0796L71.062 12.2515C72.7163 12.6865 75.563 13.6587 75.563 16.6558C75.563 19.0942 73.7153 21.0332 70.4336 21.2588L70.4336 22.999ZM89.2773 16.6558C89.2773 19.2769 86.9731 21.2212 83.874 21.2212C80.7695 21.2212 78.5513 19.5186 78.4385 16.9995L80.4043 16.9995C80.5225 18.5464 81.9888 19.5024 83.8418 19.5024C85.8989 19.5024 87.376 18.353 87.376 16.6558C87.376 14.894 86.0225 13.6587 83.5947 13.6587L82.311 13.6587L82.311 11.9399L83.5947 11.9399C85.4907 11.9399 86.812 10.8442 86.812 9.15771C86.812 7.54102 85.668 6.47217 83.9062 6.47217C82.2412 6.47217 80.7266 7.40674 80.6567 9.00195L78.7822 9.00195C78.8735 6.48291 81.1724 4.78027 83.9385 4.78027C86.8979 4.78027 88.6865 6.7998 88.6865 9.06104C88.6865 10.8657 87.6768 12.1978 86.0601 12.6865L86.0601 12.8154C88.0742 13.1484 89.2773 14.6255 89.2773 16.6558ZM103.25 13.0034C103.25 18.2295 101.215 21.2212 97.686 21.2212C94.1572 21.2212 92.1216 18.2295 92.1216 13.0034C92.1216 7.81494 94.1841 4.78027 97.686 4.78027C101.188 4.78027 103.25 7.81494 103.25 13.0034ZM117 13.0034C117 18.2295 114.965 21.2212 111.436 21.2212C107.907 21.2212 105.872 18.2295 105.872 13.0034C105.872 7.81494 107.934 4.78027 111.436 4.78027C114.938 4.78027 117 7.81494 117 13.0034ZM144.436 9.50146L126.438 9.50146L126.438 5.5L144.436 5.5L144.436 9.50146ZM93.9961 13.0034C93.9961 17.166 95.3604 19.5024 97.686 19.5024C100.012 19.5024 101.376 17.166 101.376 13.0034C101.376 8.84619 100.001 6.47217 97.686 6.47217C95.3711 6.47217 93.9961 8.84619 93.9961 13.0034ZM107.746 13.0034C107.746 17.166 109.11 19.5024 111.436 19.5024C113.762 19.5024 115.126 17.166 115.126 13.0034C115.126 8.84619 113.751 6.47217 111.436 6.47217C109.121 6.47217 107.746 8.84619 107.746 13.0034ZM66.3408 9.15771C66.3408 10.7422 67.9683 11.3975 69.1553 11.7358L69.1553 6.54736C67.4365 6.77295 66.3408 7.8042 66.3408 9.15771ZM144.436 15.0015L126.438 15.0015L126.438 11L144.436 11L144.436 15.0015ZM70.4336 13.9541L70.4336 19.5024C72.3242 19.2876 73.6885 18.1973 73.6885 16.6235C73.6885 15.0337 72.1846 14.4375 70.498 13.9702L70.4336 13.9541ZM144.436 20.5015L126.438 20.5015L126.438 16.5L144.436 16.5L144.436 20.5015ZM144.436 26.0015L126.438 26.0015L126.438 22L144.436 22L144.436 26.0015Z" fill="#EF5B70" fill-opacity="1.000000" fill-rule="evenodd"/>
</svg>
