<svg width="112.970703" height="26.001465" viewBox="0 0 112.971 26.0015" fill="none" xmlns="http://www.w3.org/2000/svg" xmlns:xlink="http://www.w3.org/1999/xlink">
	<desc>
			Created with Pixso.
	</desc>
	<defs/>
	<path id="Quantity:" d="M65.439 5.75244C65.439 6.43994 64.8481 6.99854 64.1284 6.99854C63.4087 6.99854 62.8125 6.43994 62.8125 5.75244C62.8125 5.06494 63.4087 4.50098 64.1284 4.50098C64.8481 4.50098 65.439 5.06494 65.439 5.75244ZM7.06299 4.78027C11.1558 4.78027 14.126 7.93848 14.126 13.0034C14.126 16.0005 13.0894 18.3315 11.3867 19.728L13.4707 22.4995L11.3438 22.4995L9.94727 20.625C9.08252 21.0171 8.11035 21.2212 7.06299 21.2212C2.97021 21.2212 0 18.063 0 13.0034C0 7.93848 2.97021 4.78027 7.06299 4.78027ZM57.8472 9.00195L60.4092 9.00195L60.4092 10.5649L57.8472 10.5649L57.8472 17.5635C57.8472 19.1265 58.626 19.3735 59.437 19.3735C59.8452 19.3735 60.0977 19.3145 60.2534 19.2822L60.6294 20.9365C60.377 21.0332 59.9419 21.1567 59.2544 21.1567C57.6914 21.1567 55.9995 20.1577 55.9995 18.063L55.9995 10.5649L54.1895 10.5649L54.1895 9.00195L55.9995 9.00195L55.9995 6.12842L57.8472 6.12842L57.8472 9.00195ZM71.0659 9.00195L73.6279 9.00195L73.6279 10.5649L71.0659 10.5649L71.0659 17.5635C71.0659 19.1265 71.8447 19.3735 72.6558 19.3735C73.064 19.3735 73.3164 19.3145 73.4722 19.2822L73.8481 20.9365C73.5957 21.0332 73.1606 21.1567 72.4731 21.1567C70.9102 21.1567 69.2183 20.1577 69.2183 18.063L69.2183 10.5649L67.4082 10.5649L67.4082 9.00195L69.2183 9.00195L69.2183 6.12842L71.0659 6.12842L71.0659 9.00195ZM8.81396 19.1104L6.43994 16.0005L8.56689 16.0005L10.2695 18.2456C11.4888 17.1821 12.2515 15.415 12.2515 13.0034C12.2515 8.84619 9.96875 6.5957 7.06299 6.5957C4.15723 6.5957 1.87451 8.84619 1.87451 13.0034C1.87451 17.1553 4.15723 19.4058 7.06299 19.4058C7.68066 19.4058 8.26611 19.3037 8.81396 19.1104ZM37.0024 19.3735C36.6265 20.1577 35.5308 21.2803 33.4414 21.2803C31.1587 21.2803 29.3433 19.9375 29.3433 17.5957C29.3433 14.8457 31.7764 14.3516 34 14.0615C36.1914 13.7822 37.0938 13.8628 37.0938 12.9712L37.0938 12.9067C37.0938 11.3706 36.2612 10.4683 34.564 10.4683C32.8076 10.4683 31.8462 11.4082 31.438 12.2837L29.687 11.6553C30.627 9.46924 32.6895 8.84619 34.4995 8.84619C36.0356 8.84619 38.9414 9.28125 38.9414 13.0947L38.9414 21.001L37.0938 21.001L37.0938 19.3735L37.0024 19.3735ZM47.2227 10.5005C45.4556 10.5005 44.1558 11.6875 44.1558 13.7822L44.1558 21.001L42.3135 21.001L42.3135 9.00195L44.0967 9.00195L44.0967 10.8765L44.2524 10.8765C44.8164 9.65723 45.939 8.84619 47.7544 8.84619C50.1821 8.84619 51.8149 10.3125 51.8149 13.374L51.8149 21.001L49.9727 21.001L49.9727 13.5029C49.9727 11.6177 48.9307 10.5005 47.2227 10.5005ZM21.5947 19.3735C22.9697 19.3735 24.6885 18.3423 24.6885 16.0972L24.6885 9.00195L26.5308 9.00195L26.5308 21.001L24.6885 21.001L24.6885 18.9707L24.5649 18.9707C24.001 20.1899 22.814 21.1567 21.0039 21.1567C18.7534 21.1567 17.126 19.6904 17.126 16.6235L17.126 9.00195L18.9683 9.00195L18.9683 16.5C18.9683 18.251 20.064 19.3735 21.5947 19.3735ZM65.0308 21.001L63.1885 21.001L63.1885 9.00195L65.0308 9.00195L65.0308 21.001ZM81.1284 22.752C80.4302 24.6157 79.2593 25.502 77.5942 25.502C76.9712 25.502 76.4395 25.3784 76.2515 25.2817L76.7188 23.6597C78.0669 24.0034 78.894 23.8315 79.5654 22L79.9092 21.0654L75.4727 9.00195L77.4707 9.00195L80.7847 18.5625L80.9082 18.5625L84.2222 9.00195L86.2202 9.00195L81.1284 22.752ZM91.4072 10.812C91.4072 11.5854 90.7734 12.2192 90 12.2192C89.2266 12.2192 88.5981 11.5854 88.5981 10.812C88.5981 10.0386 89.2266 9.40479 90 9.40479C90.7734 9.40479 91.4072 10.0386 91.4072 10.812ZM31.1909 17.687C31.1909 18.9707 32.2544 19.626 33.7207 19.626C35.9067 19.626 37.0938 18.1597 37.0938 16.6558L37.0938 14.9692C36.7822 15.3452 34.6875 15.5654 33.9087 15.6567C32.4692 15.8447 31.1909 16.2798 31.1909 17.687ZM91.4072 19.7173C91.4072 20.4907 90.7734 21.1245 90 21.1245C89.2266 21.1245 88.5981 20.4907 88.5981 19.7173C88.5981 18.9438 89.2266 18.3154 90 18.3154C90.7734 18.3154 91.4072 18.9438 91.4072 19.7173Z" fill="#575757" fill-opacity="1.000000" fill-rule="evenodd"/>
	<path id="Quantity:" d="M112.971 4.00146L94.9722 4.00146L94.9722 0L112.971 0L112.971 4.00146ZM112.971 9.50146L94.9722 9.50146L94.9722 5.5L112.971 5.5L112.971 9.50146ZM112.971 15.0015L94.9722 15.0015L94.9722 11L112.971 11L112.971 15.0015ZM112.971 20.5015L94.9722 20.5015L94.9722 16.5L112.971 16.5L112.971 20.5015ZM112.971 26.0015L94.9722 26.0015L94.9722 22L112.971 22L112.971 26.0015Z" fill="#6F6E6E" fill-opacity="1.000000" fill-rule="evenodd"/>
</svg>
