<svg width="93.904785" height="26.001465" viewBox="0 0 93.9048 26.0015" fill="none" xmlns="http://www.w3.org/2000/svg" xmlns:xlink="http://www.w3.org/1999/xlink">
	<desc>
			Created with Pixso.
	</desc>
	<defs/>
	<path id="Size: Xl" d="M16.7168 5.75244C16.7168 6.43994 16.126 6.99854 15.4062 6.99854C14.6865 6.99854 14.0903 6.43994 14.0903 5.75244C14.0903 5.06494 14.6865 4.50098 15.4062 4.50098C16.126 4.50098 16.7168 5.06494 16.7168 5.75244ZM11.3115 9.00195L9.43701 9.00195C9.24902 7.42285 7.77734 6.49902 5.84375 6.49902C3.7168 6.49902 2.30957 7.62695 2.30957 9.15771C2.30957 10.8765 4.21631 11.4995 5.40332 11.811L7.03076 12.2515C8.68506 12.6865 11.5317 13.6587 11.5317 16.6558C11.5317 19.25 9.43701 21.2803 5.74707 21.2803C2.30957 21.2803 0.187988 19.5024 0 16.876L1.99805 16.876C2.15381 18.686 3.84033 19.5347 5.74707 19.5347C7.96533 19.5347 9.65723 18.3745 9.65723 16.6235C9.65723 15.0337 8.15332 14.4375 6.4668 13.9702L4.50098 13.4062C1.99805 12.6865 0.435059 11.4082 0.435059 9.24902C0.435059 6.56348 2.84131 4.78027 5.90283 4.78027C8.99658 4.78027 11.2256 6.58496 11.3115 9.00195ZM41.0605 18.2188C40.4966 20.0342 38.7188 21.2534 36.2803 21.2534C32.8105 21.2534 30.6836 18.7827 30.6836 15.0928C30.6836 11.4082 32.8428 8.84619 36.0923 8.84619C38.5898 8.84619 41.2485 10.377 41.2485 14.8457L41.2485 15.6245L32.5366 15.6245C32.6226 18.1973 34.1157 19.5938 36.2803 19.5938C37.7251 19.5938 38.8101 18.9707 39.2773 17.7192L41.0605 18.2188ZM16.3086 21.001L14.4663 21.001L14.4663 9.00195L16.3086 9.00195L16.3086 21.001ZM28.7461 21.001L19.3413 21.001L19.3413 19.5938L26.1572 10.8442L26.1572 10.7207L19.5615 10.7207L19.5615 9.00195L28.5312 9.00195L28.5312 10.4683L21.9033 19.1587L21.9033 19.2822L28.7461 19.2822L28.7461 21.001ZM46.8101 10.812C46.8101 11.5854 46.1763 12.2192 45.4028 12.2192C44.6294 12.2192 44.001 11.5854 44.001 10.812C44.001 10.0386 44.6294 9.40479 45.4028 9.40479C46.1763 9.40479 46.8101 10.0386 46.8101 10.812ZM36.0923 10.5005C33.9814 10.5005 32.6602 12.1655 32.5366 14.0347L39.374 14.0347C39.374 11.999 38.0903 10.5005 36.0923 10.5005ZM46.8101 19.7173C46.8101 20.4907 46.1763 21.1245 45.4028 21.1245C44.6294 21.1245 44.001 20.4907 44.001 19.7173C44.001 18.9438 44.6294 18.3154 45.4028 18.3154C46.1763 18.3154 46.8101 18.9438 46.8101 19.7173Z" fill="#575757" fill-opacity="1.000000" fill-rule="evenodd"/>
	<path id="Size: Xl" d="M93.9048 4.00146L75.9062 4.00146L75.9062 0L93.9048 0L93.9048 4.00146ZM55.2197 5.00049L57.4971 5.00049L61.6221 11.6553L61.751 11.6553L65.876 5.00049L68.1533 5.00049L63.126 13.0034L68.1533 21.001L65.876 21.001L61.751 14.4697L61.6221 14.4697L57.4971 21.001L55.2197 21.001L60.376 13.0034L55.2197 5.00049ZM70.4351 5.00049L72.2773 5.00049L72.2773 21.001L70.4351 21.001L70.4351 5.00049ZM93.9048 9.50146L75.9062 9.50146L75.9062 5.5L93.9048 5.5L93.9048 9.50146ZM93.9048 15.0015L75.9062 15.0015L75.9062 11L93.9048 11L93.9048 15.0015ZM93.9048 20.5015L75.9062 20.5015L75.9062 16.5L93.9048 16.5L93.9048 20.5015ZM93.9048 26.0015L75.9062 26.0015L75.9062 22L93.9048 22L93.9048 26.0015Z" fill="#6F6E6E" fill-opacity="1.000000" fill-rule="evenodd"/>
</svg>
