<svg width="114.140869" height="9.998291" viewBox="0 0 114.141 9.99829" fill="none" xmlns="http://www.w3.org/2000/svg" xmlns:xlink="http://www.w3.org/1999/xlink">
	<desc>
			Created with Pixso.
	</desc>
	<defs/>
	<path id="SUB TOTAL $900" d="M90.998 9.99829L90.3589 9.99829L90.3589 9.12817C88.8228 9.02612 87.8855 8.16675 87.7969 6.93677L88.7959 6.93677C88.8657 7.74243 89.5371 8.16406 90.3589 8.25L90.3589 5.29321L90.0474 5.2019C88.7959 4.84204 88.0144 4.20288 88.0144 3.12329C88.0144 1.89868 89.0188 1.04736 90.3589 0.9104L90.3589 0L90.998 0L90.998 0.896973C92.4133 0.990967 93.4124 1.8584 93.4526 2.99976L92.5154 2.99976C92.4294 2.28809 91.8279 1.84229 90.998 1.76172L90.998 4.53857L91.3123 4.62451C92.1394 4.84204 93.5627 5.32812 93.5627 6.82666C93.5627 8.0459 92.6389 9.01538 90.998 9.12817L90.998 9.99829ZM94.8904 3.56104C94.8904 2.09204 95.9377 0.870117 97.5625 0.888916C98.873 0.905029 100.342 1.73486 100.342 4.67017C100.342 7.51416 99.2329 9.10938 97.4363 9.10938C96.0935 9.10938 95.1401 8.25 94.9521 6.98242L95.9055 6.98242C96.0774 7.71826 96.593 8.25 97.4363 8.25C98.6716 8.25 99.437 7.12476 99.437 5.15625L99.3752 5.15625C98.9375 5.81152 98.2339 6.21704 97.4067 6.21704C96.0317 6.21704 94.8904 5.10791 94.8904 3.56104ZM5.65576 2.99976L4.71851 2.99976C4.62451 2.21021 3.88867 1.74829 2.92188 1.74829C1.8584 1.74829 1.15479 2.31226 1.15479 3.07764C1.15479 3.93701 2.10815 4.24854 2.70166 4.4043L3.51538 4.62451C4.34253 4.84204 5.76587 5.32812 5.76587 6.82666C5.76587 8.12378 4.71851 9.13892 2.87354 9.13892C1.15479 9.13892 0.0939941 8.25 0 6.93677L0.999023 6.93677C1.0769 7.8418 1.92017 8.26611 2.87354 8.26611C3.98267 8.26611 4.82861 7.68604 4.82861 6.81055C4.82861 6.01562 4.07666 5.71753 3.2334 5.48389L2.25049 5.2019C0.999023 4.84204 0.217529 4.20288 0.217529 3.12329C0.217529 1.78052 1.42065 0.888916 2.95142 0.888916C4.49829 0.888916 5.61279 1.79126 5.65576 2.99976ZM35.7173 0.888916C37.7637 0.888916 39.2488 2.46802 39.2488 5.00049C39.2488 7.53027 37.7637 9.10938 35.7173 9.10938C33.6709 9.10938 32.1858 7.53027 32.1858 5.00049C32.1858 2.46802 33.6709 0.888916 35.7173 0.888916ZM107.266 5.00049C107.266 7.61353 106.248 9.10938 104.484 9.10938C102.719 9.10938 101.701 7.61353 101.701 5.00049C101.701 2.40625 102.733 0.888916 104.484 0.888916C106.235 0.888916 107.266 2.40625 107.266 5.00049ZM114.141 5.00049C114.141 7.61353 113.123 9.10938 111.359 9.10938C109.594 9.10938 108.576 7.61353 108.576 5.00049C108.576 2.40625 109.608 0.888916 111.359 0.888916C113.11 0.888916 114.141 2.40625 114.141 5.00049ZM12.6096 6.21704L12.6096 0.999023L13.5764 0.999023L13.5764 6.29492C13.5764 7.93579 12.3518 9.13892 10.4692 9.13892C8.58398 9.13892 7.35938 7.93579 7.35938 6.29492L7.35938 0.999023L8.32617 0.999023L8.32617 6.21704C8.32617 7.39062 9.13184 8.23389 10.4692 8.23389C11.804 8.23389 12.6096 7.39062 12.6096 6.21704ZM18.4053 8.99927L15.5156 8.99927L15.5156 0.999023L18.3113 0.999023C19.9844 0.999023 20.7659 1.95239 20.7659 3.12329C20.7659 4.15454 20.1562 4.6084 19.4688 4.79639L19.4688 4.87427C20.2019 4.91992 21.0774 5.60742 21.0774 6.875C21.0774 8.07812 20.2959 8.99927 18.4053 8.99927ZM27.8442 1.8584L25.3279 1.8584L25.3279 0.999023L31.3274 0.999023L31.3274 1.8584L28.811 1.8584L28.811 8.99927L27.8442 8.99927L27.8442 1.8584ZM42.6255 1.8584L40.1091 1.8584L40.1091 0.999023L46.1086 0.999023L46.1086 1.8584L43.5923 1.8584L43.5923 8.99927L42.6255 8.99927L42.6255 1.8584ZM47.8052 6.73267L46.9995 8.99927L45.9844 8.99927L48.9224 0.999023L49.9214 0.999023L52.8594 8.99927L51.8442 8.99927L51.0386 6.73267L47.8052 6.73267ZM58.7957 8.99927L54.1094 8.99927L54.1094 0.999023L55.0762 0.999023L55.0762 8.13989L58.7957 8.13989L58.7957 8.99927ZM102.639 5.00049C102.639 7.08179 103.321 8.25 104.484 8.25C105.646 8.25 106.329 7.08179 106.329 5.00049C106.329 2.92188 105.641 1.73486 104.484 1.73486C103.326 1.73486 102.639 2.92188 102.639 5.00049ZM109.514 5.00049C109.514 7.08179 110.196 8.25 111.359 8.25C112.521 8.25 113.204 7.08179 113.204 5.00049C113.204 2.92188 112.516 1.73486 111.359 1.73486C110.201 1.73486 109.514 2.92188 109.514 5.00049ZM99.2974 3.54492C99.2974 2.60767 98.5615 1.74829 97.5625 1.74829C96.5769 1.74829 95.8276 2.56201 95.8276 3.56104C95.8276 4.56274 96.5474 5.35767 97.5303 5.35767C98.5159 5.35767 99.2974 4.49829 99.2974 3.54492ZM88.9517 3.07764C88.9517 3.86987 89.7654 4.19751 90.3589 4.3667L90.3589 1.77246C89.4995 1.88525 88.9517 2.40088 88.9517 3.07764ZM35.7173 8.20166C37.1702 8.20166 38.3115 7.07642 38.3115 5.00049C38.3115 2.92188 37.1702 1.79663 35.7173 1.79663C34.2644 1.79663 33.123 2.92188 33.123 5.00049C33.123 7.07642 34.2644 8.20166 35.7173 8.20166ZM16.4824 1.8584L16.4824 4.5144L18.2817 4.5144C19.1545 4.5144 19.842 3.96924 19.842 3.12329C19.842 2.42236 19.3748 1.8584 18.3113 1.8584L16.4824 1.8584ZM49.3896 2.26392L48.1086 5.87329L50.7324 5.87329L49.4514 2.26392L49.3896 2.26392ZM16.4824 5.35767L16.4824 8.13989L18.4053 8.13989C19.6702 8.13989 20.1562 7.57861 20.1562 6.875C20.1562 6.06128 19.4983 5.35767 18.4536 5.35767L16.4824 5.35767ZM90.998 5.47583L90.998 8.25C91.9434 8.14258 92.6255 7.59741 92.6255 6.81055C92.6255 6.01562 91.8735 5.71753 91.0303 5.48389L90.998 5.47583Z" fill="#4A4A4A" fill-opacity="1.000000" fill-rule="evenodd"/>
</svg>
