<svg width="628.440430" height="80.605469" viewBox="0 0 628.44 80.6055" fill="none" xmlns="http://www.w3.org/2000/svg" xmlns:xlink="http://www.w3.org/1999/xlink">
	<desc>
			Created with Pixso.
	</desc>
	<defs/>
	<path id="Get in on the loyalty program where you can earn points and unlock serious perks. Starting with these as soon as you join:" d="M15.0762 5.69531L13.4414 5.69531C12.8086 3.375 10.957 1.5 8.08008 1.5C4.67578 1.5 2.12109 4.26562 2.12109 8.9707C2.12109 13.6582 4.66406 16.4355 8.19141 16.4355C11.3613 16.4355 13.5996 14.2441 13.6465 10.6699L8.56641 10.6699L8.56641 9.24023L15.1934 9.24023L15.1934 10.6699C15.1934 15.1465 12.2695 17.9355 8.19141 17.9355C3.62109 17.9355 0.580078 14.4316 0.580078 8.9707C0.580078 3.49805 3.65625 0 8.08008 0C11.8945 0 14.5137 2.61914 15.0762 5.69531ZM50.062 1.26562C50.062 1.85742 49.5405 2.35547 48.9194 2.35547C48.2983 2.35547 47.7885 1.85742 47.7885 1.26562C47.7885 0.667969 48.2983 0.169922 48.9194 0.169922C49.5405 0.169922 50.062 0.667969 50.062 1.26562ZM590.241 1.26562C590.241 1.85742 589.719 2.35547 589.098 2.35547C588.477 2.35547 587.968 1.85742 587.968 1.26562C587.968 0.667969 588.477 0.169922 589.098 0.169922C589.719 0.169922 590.241 0.667969 590.241 1.26562ZM123.21 5.82422C121.119 5.82422 119.583 7.23047 119.583 9.51562L119.583 17.6953L118.066 17.6953L118.066 0.240234L119.583 0.240234L119.583 6.65625L119.718 6.65625C120.333 5.30273 121.617 4.43555 123.597 4.43555C126.257 4.43555 128.062 6.09375 128.062 9.2168L128.062 17.6953L126.539 17.6953L126.539 9.31055C126.539 7.1543 125.244 5.82422 123.21 5.82422ZM152.753 0.240234L154.271 0.240234L154.271 17.6953L152.753 17.6953L152.753 0.240234ZM198.018 0.240234L199.535 0.240234L199.535 17.6953L198.018 17.6953L198.018 0.240234ZM356.844 5.82422C354.752 5.82422 353.217 7.23047 353.217 9.51562L353.217 17.6953L351.699 17.6953L351.699 0.240234L353.217 0.240234L353.217 6.65625L353.352 6.65625C353.967 5.30273 355.25 4.43555 357.231 4.43555C359.891 4.43555 361.695 6.09375 361.695 9.2168L361.695 17.6953L360.172 17.6953L360.172 9.31055C360.172 7.1543 358.877 5.82422 356.844 5.82422ZM35.1637 4.60547L37.9352 4.60547L37.9352 5.92383L35.1637 5.92383L35.1637 14.2793C35.1637 15.9199 36.1129 16.4062 37.1442 16.4062C37.5426 16.4062 37.8121 16.3477 38.0289 16.2891L38.3512 17.6602C38.0641 17.7715 37.6364 17.8887 37.0036 17.8887C35.3278 17.8887 33.6403 16.7754 33.6403 14.6367L33.6403 5.92383L31.6891 5.92383L31.6891 4.60547L33.6403 4.60547L33.6403 1.4707L35.1637 1.4707L35.1637 4.60547ZM111.578 4.60547L114.35 4.60547L114.35 5.92383L111.578 5.92383L111.578 14.2793C111.578 15.9199 112.528 16.4062 113.559 16.4062C113.957 16.4062 114.227 16.3477 114.444 16.2891L114.766 17.6602C114.479 17.7715 114.051 17.8887 113.418 17.8887C111.743 17.8887 110.055 16.7754 110.055 14.6367L110.055 5.92383L108.104 5.92383L108.104 4.60547L110.055 4.60547L110.055 1.4707L111.578 1.4707L111.578 4.60547ZM205.925 4.60547L208.697 4.60547L208.697 5.92383L205.925 5.92383L205.925 14.2793C205.925 15.9199 206.874 16.4062 207.906 16.4062C208.304 16.4062 208.574 16.3477 208.79 16.2891L209.113 17.6602C208.825 17.7715 208.398 17.8887 207.765 17.8887C206.089 17.8887 204.402 16.7754 204.402 14.6367L204.402 5.92383L202.45 5.92383L202.45 4.60547L204.402 4.60547L204.402 1.4707L205.925 1.4707L205.925 4.60547ZM610.167 4.60547L612.938 4.60547L612.938 5.92383L610.167 5.92383L610.167 14.2793C610.167 15.9199 611.116 16.4062 612.147 16.4062C612.546 16.4062 612.815 16.3477 613.032 16.2891L613.354 17.6602C613.067 17.7715 612.639 17.8887 612.006 17.8887C610.331 17.8887 608.643 16.7754 608.643 14.6367L608.643 5.92383L606.692 5.92383L606.692 4.60547L608.643 4.60547L608.643 1.4707L610.167 1.4707L610.167 4.60547ZM247.893 17.6953L246.376 17.6953L246.376 4.60547L247.846 4.60547L247.846 6.61523L247.958 6.61523C248.491 5.29688 249.897 4.40625 251.538 4.40625C251.784 4.40625 252.135 4.42383 252.34 4.43555L252.34 5.97656C252.206 5.95898 251.831 5.88867 251.426 5.88867C249.381 5.88867 247.893 7.29492 247.893 9.24023L247.893 17.6953ZM284.643 17.6953L283.126 17.6953L283.126 4.60547L284.596 4.60547L284.596 6.61523L284.708 6.61523C285.241 5.29688 286.647 4.40625 288.288 4.40625C288.534 4.40625 288.885 4.42383 289.09 4.43555L289.09 5.97656C288.956 5.95898 288.581 5.88867 288.176 5.88867C286.131 5.88867 284.643 7.29492 284.643 9.24023L284.643 17.6953ZM381.154 17.6953L379.637 17.6953L379.637 4.60547L381.108 4.60547L381.108 6.61523L381.219 6.61523C381.752 5.29688 383.158 4.40625 384.799 4.40625C385.045 4.40625 385.397 4.42383 385.602 4.43555L385.602 5.97656C385.467 5.95898 385.092 5.88867 384.688 5.88867C382.643 5.88867 381.154 7.29492 381.154 9.24023L381.154 17.6953ZM532.032 17.6953L530.515 17.6953L530.515 4.60547L531.985 4.60547L531.985 6.61523L532.097 6.61523C532.63 5.29688 534.036 4.40625 535.677 4.40625C535.923 4.40625 536.274 4.42383 536.48 4.43555L536.48 5.97656C536.345 5.95898 535.97 5.88867 535.565 5.88867C533.521 5.88867 532.032 7.29492 532.032 9.24023L532.032 17.6953ZM29.1216 14.9004C28.524 16.5469 26.7603 17.9707 24.1353 17.9707C20.4732 17.9707 18.1705 15.1992 18.1705 11.2266C18.1705 7.26562 20.5142 4.42383 23.9068 4.42383C26.7427 4.42383 29.4439 6.48047 29.4439 10.8516L29.4439 11.6016L19.6939 11.6016C19.7642 14.625 21.4576 16.5762 24.1353 16.5762C25.9927 16.5762 27.1763 15.6094 27.6802 14.4316L29.1216 14.9004ZM85.1985 11.209C85.1985 15.1992 82.8313 17.9707 79.4387 17.9707C76.0462 17.9707 73.679 15.1992 73.679 11.209C73.679 7.19531 76.0462 4.42383 79.4387 4.42383C82.8313 4.42383 85.1985 7.19531 85.1985 11.209ZM142.346 14.9004C141.748 16.5469 139.985 17.9707 137.36 17.9707C133.698 17.9707 131.395 15.1992 131.395 11.2266C131.395 7.26562 133.739 4.42383 137.131 4.42383C139.967 4.42383 142.668 6.48047 142.668 10.8516L142.668 11.6016L132.918 11.6016C132.989 14.625 134.682 16.5762 137.36 16.5762C139.217 16.5762 140.401 15.6094 140.905 14.4316L142.346 14.9004ZM169.122 11.209C169.122 15.1992 166.755 17.9707 163.362 17.9707C159.969 17.9707 157.602 15.1992 157.602 11.209C157.602 7.19531 159.969 4.42383 163.362 4.42383C166.755 4.42383 169.122 7.19531 169.122 11.209ZM192.373 15.627C191.828 16.7812 190.498 17.9941 188.319 17.9941C185.94 17.9941 184.012 16.5645 184.012 14.0391C184.012 11.4492 186.086 10.623 189.039 10.2539C191.243 9.98438 192.467 9.9668 192.467 8.97656L192.467 8.67188C192.467 6.87891 191.371 5.78906 189.385 5.78906C187.493 5.78906 186.309 6.75 185.828 7.875L184.387 7.35938C185.278 5.2207 187.34 4.42383 189.338 4.42383C191.342 4.42383 193.985 5.29688 193.985 8.80664L193.985 17.6953L192.467 17.6953L192.467 15.627L192.373 15.627ZM233.498 22.6055L231.981 22.6055L231.981 4.60547L233.451 4.60547L233.451 7.10156L233.633 7.10156C234.172 5.92383 235.227 4.42383 237.641 4.42383C240.869 4.42383 243.043 7.14258 243.043 11.1855C243.043 15.2402 240.858 17.9707 237.658 17.9707C235.285 17.9707 234.16 16.4707 233.633 15.2637L233.498 15.2637L233.498 22.6055ZM265.369 11.209C265.369 15.1992 263.002 17.9707 259.609 17.9707C256.217 17.9707 253.849 15.1992 253.849 11.209C253.849 7.19531 256.217 4.42383 259.609 4.42383C263.002 4.42383 265.369 7.19531 265.369 11.209ZM279.1 18.0352C279.1 21.3574 276.803 22.875 273.697 22.875C271.02 22.875 269.35 21.75 268.582 20.25L269.83 19.4355C270.381 20.4316 271.459 21.5156 273.697 21.5156C276.018 21.5156 277.576 20.3789 277.576 17.9414L277.576 14.9941L277.441 14.9941C276.92 16.1953 275.771 17.5605 273.416 17.5605C270.281 17.5605 268.031 15.1289 268.031 11.1152C268.031 7.13672 270.205 4.42383 273.445 4.42383C275.848 4.42383 276.926 5.92383 277.465 7.10156L277.617 7.10156L277.617 4.60547L279.1 4.60547L279.1 18.0352ZM299.393 15.627C298.848 16.7812 297.518 17.9941 295.339 17.9941C292.96 17.9941 291.032 16.5645 291.032 14.0391C291.032 11.4492 293.106 10.623 296.059 10.2539C298.262 9.98438 299.487 9.9668 299.487 8.97656L299.487 8.67188C299.487 6.87891 298.391 5.78906 296.405 5.78906C294.512 5.78906 293.329 6.75 292.848 7.875L291.407 7.35938C292.298 5.2207 294.36 4.42383 296.358 4.42383C298.362 4.42383 301.005 5.29688 301.005 8.80664L301.005 17.6953L299.487 17.6953L299.487 15.627L299.393 15.627ZM375.98 14.9004C375.382 16.5469 373.618 17.9707 370.993 17.9707C367.331 17.9707 365.028 15.1992 365.028 11.2266C365.028 7.26562 367.372 4.42383 370.765 4.42383C373.601 4.42383 376.302 6.48047 376.302 10.8516L376.302 11.6016L366.552 11.6016C366.622 14.625 368.315 16.5762 370.993 16.5762C372.851 16.5762 374.034 15.6094 374.538 14.4316L375.98 14.9004ZM398.062 14.9004C397.464 16.5469 395.701 17.9707 393.076 17.9707C389.414 17.9707 387.111 15.1992 387.111 11.2266C387.111 7.26562 389.455 4.42383 392.847 4.42383C395.683 4.42383 398.384 6.48047 398.384 10.8516L398.384 11.6016L388.634 11.6016C388.705 14.625 390.398 16.5762 393.076 16.5762C394.933 16.5762 396.117 15.6094 396.621 14.4316L398.062 14.9004ZM431.929 11.209C431.929 15.1992 429.561 17.9707 426.169 17.9707C422.776 17.9707 420.409 15.1992 420.409 11.209C420.409 7.19531 422.776 4.42383 426.169 4.42383C429.561 4.42383 431.929 7.19531 431.929 11.209ZM465.963 13.875C465.612 16.248 463.695 17.9707 460.971 17.9707C457.449 17.9707 455.182 15.1113 455.182 11.209C455.182 7.27148 457.514 4.42383 460.942 4.42383C463.567 4.42383 465.594 6.06445 465.951 8.49023L464.422 8.49023C464.094 7.00781 462.834 5.80664 460.971 5.80664C458.451 5.80664 456.705 7.98633 456.705 11.1562C456.705 14.3438 458.404 16.5762 460.971 16.5762C462.705 16.5762 464.076 15.5449 464.428 13.875L465.963 13.875ZM476.922 15.627C476.377 16.7812 475.047 17.9941 472.867 17.9941C470.488 17.9941 468.56 16.5645 468.56 14.0391C468.56 11.4492 470.635 10.623 473.588 10.2539C475.791 9.98438 477.015 9.9668 477.015 8.97656L477.015 8.67188C477.015 6.87891 475.92 5.78906 473.933 5.78906C472.041 5.78906 470.857 6.75 470.377 7.875L468.935 7.35938C469.826 5.2207 471.888 4.42383 473.887 4.42383C475.89 4.42383 478.533 5.29688 478.533 8.80664L478.533 17.6953L477.015 17.6953L477.015 15.627L476.922 15.627ZM513.502 14.9004C512.905 16.5469 511.141 17.9707 508.516 17.9707C504.854 17.9707 502.551 15.1992 502.551 11.2266C502.551 7.26562 504.895 4.42383 508.287 4.42383C511.123 4.42383 513.825 6.48047 513.825 10.8516L513.825 11.6016L504.075 11.6016C504.145 14.625 505.838 16.5762 508.516 16.5762C510.373 16.5762 511.557 15.6094 512.061 14.4316L513.502 14.9004ZM524.871 15.627C524.326 16.7812 522.996 17.9941 520.816 17.9941C518.437 17.9941 516.509 16.5645 516.509 14.0391C516.509 11.4492 518.583 10.623 521.537 10.2539C523.74 9.98438 524.964 9.9668 524.964 8.97656L524.964 8.67188C524.964 6.87891 523.869 5.78906 521.882 5.78906C519.99 5.78906 518.806 6.75 518.326 7.875L516.884 7.35938C517.775 5.2207 519.837 4.42383 521.835 4.42383C523.839 4.42383 526.482 5.29688 526.482 8.80664L526.482 17.6953L524.964 17.6953L524.964 15.627L524.871 15.627ZM561.248 22.6055L559.731 22.6055L559.731 4.60547L561.201 4.60547L561.201 7.10156L561.383 7.10156C561.922 5.92383 562.977 4.42383 565.391 4.42383C568.619 4.42383 570.793 7.14258 570.793 11.1855C570.793 15.2402 568.608 17.9707 565.408 17.9707C563.035 17.9707 561.91 16.4707 561.383 15.2637L561.248 15.2637L561.248 22.6055ZM584.971 11.209C584.971 15.1992 582.604 17.9707 579.211 17.9707C575.819 17.9707 573.452 15.1992 573.452 11.209C573.452 7.19531 575.819 4.42383 579.211 4.42383C582.604 4.42383 584.971 7.19531 584.971 11.209ZM620.508 4.42383C622.898 4.42383 624.299 5.58398 624.938 7.47656L623.549 7.86914C623.139 6.69141 622.272 5.76562 620.508 5.76562C618.738 5.76562 617.473 6.69141 617.473 8.02148C617.473 9.1582 618.229 9.81445 619.857 10.2188L621.832 10.7051C624.023 11.2441 625.125 12.4102 625.125 14.1562C625.125 16.3828 623.145 17.9707 620.268 17.9707C617.701 17.9707 615.973 16.7812 615.51 14.6016L616.969 14.2441C617.332 15.7969 618.451 16.6055 620.238 16.6055C622.254 16.6055 623.555 15.5918 623.555 14.2266C623.555 13.1777 622.863 12.4395 621.428 12.0938L619.289 11.584C617.01 11.0391 615.943 9.84375 615.943 8.0918C615.943 5.93555 617.865 4.42383 620.508 4.42383ZM58.7738 5.82422C56.7113 5.82422 55.2113 7.23047 55.2113 9.51562L55.2113 17.6953L53.6937 17.6953L53.6937 4.60547L55.1644 4.60547L55.1644 6.65625L55.305 6.65625C55.9144 5.32031 57.2386 4.43555 59.1547 4.43555C61.7972 4.43555 63.5961 6.11133 63.5961 9.2168L63.5961 17.6953L62.0785 17.6953L62.0785 9.31055C62.0785 7.17188 60.7836 5.82422 58.7738 5.82422ZM93.6147 5.82422C91.5522 5.82422 90.0522 7.23047 90.0522 9.51562L90.0522 17.6953L88.5346 17.6953L88.5346 4.60547L90.0053 4.60547L90.0053 6.65625L90.146 6.65625C90.7553 5.32031 92.0795 4.43555 93.9956 4.43555C96.6381 4.43555 98.437 6.11133 98.437 9.2168L98.437 17.6953L96.9194 17.6953L96.9194 9.31055C96.9194 7.17188 95.6245 5.82422 93.6147 5.82422ZM306.555 17.6953L305.037 17.6953L305.037 4.60547L306.508 4.60547L306.508 6.61523L306.649 6.61523C307.164 5.26172 308.448 4.43555 310.159 4.43555C311.963 4.43555 313.118 5.32617 313.698 6.81445L313.809 6.81445C314.395 5.36133 315.778 4.43555 317.682 4.43555C320.114 4.43555 321.619 5.99414 321.619 8.92383L321.619 17.6953L320.102 17.6953L320.102 8.92383C320.102 6.86133 318.953 5.82422 317.225 5.82422C315.227 5.82422 314.102 7.19531 314.102 9.07617L314.102 17.6953L312.555 17.6953L312.555 8.78906C312.555 7.01367 311.512 5.82422 309.725 5.82422C307.909 5.82422 306.555 7.27148 306.555 9.31055L306.555 17.6953ZM487.646 5.82422C485.583 5.82422 484.083 7.23047 484.083 9.51562L484.083 17.6953L482.566 17.6953L482.566 4.60547L484.037 4.60547L484.037 6.65625L484.177 6.65625C484.787 5.32031 486.111 4.43555 488.027 4.43555C490.669 4.43555 492.468 6.11133 492.468 9.2168L492.468 17.6953L490.951 17.6953L490.951 9.31055C490.951 7.17188 489.656 5.82422 487.646 5.82422ZM544.152 5.82422C542.089 5.82422 540.589 7.23047 540.589 9.51562L540.589 17.6953L539.072 17.6953L539.072 4.60547L540.542 4.60547L540.542 6.65625L540.683 6.65625C541.292 5.32031 542.616 4.43555 544.532 4.43555C547.175 4.43555 548.974 6.11133 548.974 9.2168L548.974 17.6953L547.456 17.6953L547.456 9.31055C547.456 7.17188 546.161 5.82422 544.152 5.82422ZM598.953 5.82422C596.89 5.82422 595.39 7.23047 595.39 9.51562L595.39 17.6953L593.873 17.6953L593.873 4.60547L595.343 4.60547L595.343 6.65625L595.484 6.65625C596.093 5.32031 597.418 4.43555 599.334 4.43555C601.976 4.43555 603.775 6.11133 603.775 9.2168L603.775 17.6953L602.258 17.6953L602.258 9.31055C602.258 7.17188 600.963 5.82422 598.953 5.82422ZM49.6694 17.6953L48.146 17.6953L48.146 4.60547L49.6694 4.60547L49.6694 17.6953ZM176.574 19.7637C175.877 21.668 174.67 22.6055 173.035 22.6055C172.438 22.6055 171.875 22.4766 171.57 22.3301L171.981 20.9941C173.522 21.4805 174.547 21.1289 175.268 19.1543L175.748 17.8242L170.932 4.60547L172.578 4.60547L176.463 15.6914L176.58 15.6914L180.471 4.60547L182.111 4.60547L176.574 19.7637ZM216.733 19.7637C216.036 21.668 214.829 22.6055 213.194 22.6055C212.597 22.6055 212.034 22.4766 211.73 22.3301L212.14 20.9941C213.681 21.4805 214.706 21.1289 215.427 19.1543L215.907 17.8242L211.091 4.60547L212.737 4.60547L216.622 15.6914L216.739 15.6914L220.63 4.60547L222.271 4.60547L216.733 19.7637ZM336.849 17.6953L335.285 17.6953L331.33 4.60547L332.929 4.60547L336.035 15.4043L336.146 15.4043L339.24 4.60547L340.851 4.60547L343.915 15.375L344.039 15.375L347.138 4.60547L348.744 4.60547L344.789 17.6953L343.218 17.6953L340.119 6.9668L339.955 6.9668L336.849 17.6953ZM413.063 19.7637C412.366 21.668 411.159 22.6055 409.524 22.6055C408.926 22.6055 408.364 22.4766 408.059 22.3301L408.469 20.9941C410.01 21.4805 411.036 21.1289 411.756 19.1543L412.237 17.8242L407.42 4.60547L409.067 4.60547L412.952 15.6914L413.069 15.6914L416.96 4.60547L418.6 4.60547L413.063 19.7637ZM440.005 16.3887C441.775 16.3887 443.579 15.0938 443.579 12.6914L443.579 4.60547L445.097 4.60547L445.097 17.6953L443.579 17.6953L443.579 15.5215L443.462 15.5215C442.847 16.8691 441.487 17.8652 439.566 17.8652C437.052 17.8652 435.265 16.1895 435.265 13.084L435.265 4.60547L436.782 4.60547L436.782 12.9902C436.782 15.0352 438.112 16.3887 440.005 16.3887ZM589.848 17.6953L588.325 17.6953L588.325 4.60547L589.848 4.60547L589.848 17.6953ZM23.9068 5.80664C21.5103 5.80664 19.8638 7.82812 19.7056 10.2656L27.897 10.2656C27.897 7.74023 26.2505 5.80664 23.9068 5.80664ZM75.2024 11.209C75.2024 14.1387 76.72 16.5762 79.4387 16.5762C82.1575 16.5762 83.6751 14.1387 83.6751 11.209C83.6751 8.2793 82.1575 5.80664 79.4387 5.80664C76.72 5.80664 75.2024 8.2793 75.2024 11.209ZM137.131 5.80664C134.735 5.80664 133.088 7.82812 132.93 10.2656L141.121 10.2656C141.121 7.74023 139.475 5.80664 137.131 5.80664ZM159.126 11.209C159.126 14.1387 160.643 16.5762 163.362 16.5762C166.081 16.5762 167.598 14.1387 167.598 11.209C167.598 8.2793 166.081 5.80664 163.362 5.80664C160.643 5.80664 159.126 8.2793 159.126 11.209ZM237.477 5.80664C234.91 5.80664 233.481 8.02148 233.481 11.1562C233.481 14.3203 234.945 16.5762 237.477 16.5762C240.078 16.5762 241.526 14.209 241.526 11.1562C241.526 8.13867 240.108 5.80664 237.477 5.80664ZM255.373 11.209C255.373 14.1387 256.89 16.5762 259.609 16.5762C262.328 16.5762 263.846 14.1387 263.846 11.209C263.846 8.2793 262.328 5.80664 259.609 5.80664C256.89 5.80664 255.373 8.2793 255.373 11.209ZM269.555 11.0918C269.555 14.0918 270.996 16.1719 273.598 16.1719C276.117 16.1719 277.6 14.25 277.6 11.0918C277.6 8.02148 276.164 5.80664 273.598 5.80664C270.973 5.80664 269.555 8.13867 269.555 11.0918ZM370.765 5.80664C368.368 5.80664 366.722 7.82812 366.564 10.2656L374.755 10.2656C374.755 7.74023 373.108 5.80664 370.765 5.80664ZM392.847 5.80664C390.451 5.80664 388.804 7.82812 388.646 10.2656L396.837 10.2656C396.837 7.74023 395.191 5.80664 392.847 5.80664ZM421.933 11.209C421.933 14.1387 423.45 16.5762 426.169 16.5762C428.888 16.5762 430.405 14.1387 430.405 11.209C430.405 8.2793 428.888 5.80664 426.169 5.80664C423.45 5.80664 421.933 8.2793 421.933 11.209ZM508.287 5.80664C505.891 5.80664 504.244 7.82812 504.086 10.2656L512.278 10.2656C512.278 7.74023 510.631 5.80664 508.287 5.80664ZM565.227 5.80664C562.66 5.80664 561.231 8.02148 561.231 11.1562C561.231 14.3203 562.695 16.5762 565.227 16.5762C567.828 16.5762 569.276 14.209 569.276 11.1562C569.276 8.13867 567.858 5.80664 565.227 5.80664ZM574.975 11.209C574.975 14.1387 576.493 16.5762 579.211 16.5762C581.93 16.5762 583.448 14.1387 583.448 11.209C583.448 8.2793 581.93 5.80664 579.211 5.80664C576.493 5.80664 574.975 8.2793 574.975 11.209ZM185.53 14.1094C185.53 15.6914 186.807 16.6055 188.524 16.6055C190.944 16.6055 192.467 14.8242 192.467 12.6738L192.467 10.7812C192.028 11.2207 190.118 11.4551 189.039 11.584C186.825 11.8594 185.53 12.5215 185.53 14.1094ZM292.55 14.1094C292.55 15.6914 293.827 16.6055 295.544 16.6055C297.964 16.6055 299.487 14.8242 299.487 12.6738L299.487 10.7812C299.048 11.2207 297.137 11.4551 296.059 11.584C293.844 11.8594 292.55 12.5215 292.55 14.1094ZM470.078 14.1094C470.078 15.6914 471.355 16.6055 473.072 16.6055C475.492 16.6055 477.015 14.8242 477.015 12.6738L477.015 10.7812C476.576 11.2207 474.666 11.4551 473.588 11.584C471.373 11.8594 470.078 12.5215 470.078 14.1094ZM518.027 14.1094C518.027 15.6914 519.304 16.6055 521.021 16.6055C523.441 16.6055 524.964 14.8242 524.964 12.6738L524.964 10.7812C524.525 11.2207 522.615 11.4551 521.537 11.584C519.322 11.8594 518.027 12.5215 518.027 14.1094ZM303.705 33.6055L302.164 33.6055C301.97 31.6602 300.312 30.4238 298.004 30.4238C295.566 30.4238 293.89 31.7949 293.89 33.6699C293.89 35.5156 295.672 36.377 297.365 36.8516L299.205 37.3789C301.425 38 303.945 39.1602 303.945 42.0605C303.945 44.8555 301.677 46.9941 297.892 46.9941C294.33 46.9941 292.08 45.0957 291.892 42.3301L293.533 42.3301C293.703 44.4043 295.543 45.5352 297.892 45.5352C300.5 45.5352 302.404 44.1289 302.404 42.0312C302.404 40.25 300.922 39.4414 298.754 38.8145L296.668 38.1992C293.931 37.3906 292.343 35.9844 292.343 33.7402C292.343 30.9277 294.828 28.9941 298.05 28.9941C301.297 28.9941 303.588 30.9512 303.705 33.6055ZM166.678 30.2656C166.678 30.8574 166.157 31.3555 165.536 31.3555C164.915 31.3555 164.405 30.8574 164.405 30.2656C164.405 29.668 164.915 29.1699 165.536 29.1699C166.157 29.1699 166.678 29.668 166.678 30.2656ZM349.338 30.2656C349.338 30.8574 348.816 31.3555 348.195 31.3555C347.574 31.3555 347.064 30.8574 347.064 30.2656C347.064 29.668 347.574 29.1699 348.195 29.1699C348.816 29.1699 349.338 29.668 349.338 30.2656ZM409.303 30.2656C409.303 30.8574 408.782 31.3555 408.161 31.3555C407.54 31.3555 407.03 30.8574 407.03 30.2656C407.03 29.668 407.54 29.1699 408.161 29.1699C408.782 29.1699 409.303 29.668 409.303 30.2656ZM37.0494 44.2637C36.5103 45.459 35.4029 46.9707 33.024 46.9707C29.813 46.9707 27.6392 44.252 27.6392 40.1855C27.6392 36.1543 29.8189 33.4238 33.0533 33.4238C35.4439 33.4238 36.5279 34.9238 37.0494 36.1016L37.1841 36.1016L37.1841 29.2402L38.7076 29.2402L38.7076 46.6953L37.2251 46.6953L37.2251 44.2637L37.0494 44.2637ZM77.5318 29.2402L79.0494 29.2402L79.0494 46.6953L77.5318 46.6953L77.5318 29.2402ZM112.109 46.6953L110.591 46.6953L110.591 29.2402L112.109 29.2402L112.109 39.7637L112.297 39.7637L118.431 33.6055L120.347 33.6055L114.752 39.2129L120.687 46.6953L118.748 46.6953L113.615 40.209L112.109 41.627L112.109 46.6953ZM255.794 46.6953L254.276 46.6953L254.276 29.2402L255.794 29.2402L255.794 39.7637L255.981 39.7637L262.116 33.6055L264.032 33.6055L258.436 39.2129L264.372 46.6953L262.432 46.6953L257.3 40.209L255.794 41.627L255.794 46.6953ZM426.952 34.8242C424.86 34.8242 423.325 36.2305 423.325 38.5156L423.325 46.6953L421.807 46.6953L421.807 29.2402L423.325 29.2402L423.325 35.6562L423.46 35.6562C424.075 34.3027 425.358 33.4355 427.339 33.4355C429.999 33.4355 431.803 35.0938 431.803 38.2168L431.803 46.6953L430.28 46.6953L430.28 38.3105C430.28 36.1543 428.985 34.8242 426.952 34.8242ZM456.577 34.8242C454.485 34.8242 452.95 36.2305 452.95 38.5156L452.95 46.6953L451.432 46.6953L451.432 29.2402L452.95 29.2402L452.95 35.6562L453.085 35.6562C453.7 34.3027 454.983 33.4355 456.964 33.4355C459.624 33.4355 461.428 35.0938 461.428 38.2168L461.428 46.6953L459.905 46.6953L459.905 38.3105C459.905 36.1543 458.61 34.8242 456.577 34.8242ZM309.86 33.6055L312.631 33.6055L312.631 34.9238L309.86 34.9238L309.86 43.2793C309.86 44.9199 310.809 45.4062 311.84 45.4062C312.239 45.4062 312.508 45.3477 312.725 45.2891L313.047 46.6602C312.76 46.7715 312.332 46.8887 311.7 46.8887C310.024 46.8887 308.336 45.7754 308.336 43.6367L308.336 34.9238L306.385 34.9238L306.385 33.6055L308.336 33.6055L308.336 30.4707L309.86 30.4707L309.86 33.6055ZM341.189 33.6055L343.961 33.6055L343.961 34.9238L341.189 34.9238L341.189 43.2793C341.189 44.9199 342.139 45.4062 343.17 45.4062C343.568 45.4062 343.838 45.3477 344.055 45.2891L344.377 46.6602C344.09 46.7715 343.662 46.8887 343.029 46.8887C341.353 46.8887 339.666 45.7754 339.666 43.6367L339.666 34.9238L337.715 34.9238L337.715 33.6055L339.666 33.6055L339.666 30.4707L341.189 30.4707L341.189 33.6055ZM415.32 33.6055L418.091 33.6055L418.091 34.9238L415.32 34.9238L415.32 43.2793C415.32 44.9199 416.269 45.4062 417.3 45.4062C417.699 45.4062 417.968 45.3477 418.185 45.2891L418.507 46.6602C418.22 46.7715 417.793 46.8887 417.16 46.8887C415.484 46.8887 413.797 45.7754 413.797 43.6367L413.797 34.9238L411.845 34.9238L411.845 33.6055L413.797 33.6055L413.797 30.4707L415.32 30.4707L415.32 33.6055ZM444.945 33.6055L447.716 33.6055L447.716 34.9238L444.945 34.9238L444.945 43.2793C444.945 44.9199 445.894 45.4062 446.925 45.4062C447.324 45.4062 447.593 45.3477 447.81 45.2891L448.132 46.6602C447.845 46.7715 447.418 46.8887 446.785 46.8887C445.109 46.8887 443.422 45.7754 443.422 43.6367L443.422 34.9238L441.47 34.9238L441.47 33.6055L443.422 33.6055L443.422 30.4707L444.945 30.4707L444.945 33.6055ZM157.706 46.6953L156.188 46.6953L156.188 33.6055L157.659 33.6055L157.659 35.6152L157.77 35.6152C158.303 34.2969 159.71 33.4062 161.35 33.4062C161.596 33.4062 161.948 33.4238 162.153 33.4355L162.153 34.9766C162.018 34.959 161.643 34.8887 161.239 34.8887C159.194 34.8887 157.706 36.2949 157.706 38.2402L157.706 46.6953ZM247.237 46.6953L245.719 46.6953L245.719 33.6055L247.19 33.6055L247.19 35.6152L247.301 35.6152C247.835 34.2969 249.241 33.4062 250.881 33.4062C251.128 33.4062 251.479 33.4238 251.684 33.4355L251.684 34.9766C251.549 34.959 251.174 34.8887 250.77 34.8887C248.725 34.8887 247.237 36.2949 247.237 38.2402L247.237 46.6953ZM330.947 46.6953L329.43 46.6953L329.43 33.6055L330.9 33.6055L330.9 35.6152L331.012 35.6152C331.545 34.2969 332.951 33.4062 334.592 33.4062C334.838 33.4062 335.189 33.4238 335.394 33.4355L335.394 34.9766C335.26 34.959 334.885 34.8887 334.48 34.8887C332.435 34.8887 330.947 36.2949 330.947 38.2402L330.947 46.6953ZM8.75977 44.627C8.21484 45.7812 6.88477 46.9941 4.70508 46.9941C2.32617 46.9941 0.398438 45.5645 0.398438 43.0391C0.398438 40.4492 2.47266 39.623 5.42578 39.2539C7.62891 38.9844 8.85352 38.9668 8.85352 37.9766L8.85352 37.6719C8.85352 35.8789 7.75781 34.7891 5.77148 34.7891C3.87891 34.7891 2.69531 35.75 2.21484 36.875L0.773438 36.3594C1.66406 34.2207 3.72656 33.4238 5.72461 33.4238C7.72852 33.4238 10.3711 34.2969 10.3711 37.8066L10.3711 46.6953L8.85352 46.6953L8.85352 44.627L8.75977 44.627ZM93.9002 40.209C93.9002 44.1992 91.533 46.9707 88.1404 46.9707C84.7479 46.9707 82.3807 44.1992 82.3807 40.209C82.3807 36.1953 84.7479 33.4238 88.1404 33.4238C91.533 33.4238 93.9002 36.1953 93.9002 40.209ZM107.344 42.875C106.992 45.248 105.076 46.9707 102.352 46.9707C98.8301 46.9707 96.5625 44.1113 96.5625 40.209C96.5625 36.2715 98.8945 33.4238 102.322 33.4238C104.947 33.4238 106.975 35.0645 107.332 37.4902L105.803 37.4902C105.475 36.0078 104.215 34.8066 102.352 34.8066C99.832 34.8066 98.0859 36.9863 98.0859 40.1562C98.0859 43.3438 99.7852 45.5762 102.352 45.5762C104.086 45.5762 105.457 44.5449 105.809 42.875L107.344 42.875ZM134.312 33.4238C136.702 33.4238 138.103 34.584 138.741 36.4766L137.353 36.8691C136.943 35.6914 136.075 34.7656 134.312 34.7656C132.542 34.7656 131.277 35.6914 131.277 37.0215C131.277 38.1582 132.033 38.8145 133.661 39.2188L135.636 39.7051C137.827 40.2441 138.929 41.4102 138.929 43.1562C138.929 45.3828 136.949 46.9707 134.072 46.9707C131.505 46.9707 129.777 45.7812 129.314 43.6016L130.773 43.2441C131.136 44.7969 132.255 45.6055 134.042 45.6055C136.058 45.6055 137.359 44.5918 137.359 43.2266C137.359 42.1777 136.667 41.4395 135.232 41.0938L133.093 40.584C130.814 40.0391 129.747 38.8438 129.747 37.0918C129.747 34.9355 131.669 33.4238 134.312 33.4238ZM152.531 43.9004C151.933 45.5469 150.169 46.9707 147.544 46.9707C143.882 46.9707 141.58 44.1992 141.58 40.2266C141.58 36.2656 143.923 33.4238 147.316 33.4238C150.152 33.4238 152.853 35.4805 152.853 39.8516L152.853 40.6016L143.103 40.6016C143.173 43.625 144.867 45.5762 147.544 45.5762C149.402 45.5762 150.585 44.6094 151.089 43.4316L152.531 43.9004ZM181.156 40.209C181.156 44.1992 178.789 46.9707 175.396 46.9707C172.004 46.9707 169.636 44.1992 169.636 40.209C169.636 36.1953 172.004 33.4238 175.396 33.4238C178.789 33.4238 181.156 36.1953 181.156 40.209ZM202.698 33.4238C205.089 33.4238 206.489 34.584 207.128 36.4766L205.739 36.8691C205.329 35.6914 204.462 34.7656 202.698 34.7656C200.929 34.7656 199.663 35.6914 199.663 37.0215C199.663 38.1582 200.419 38.8145 202.048 39.2188L204.022 39.7051C206.214 40.2441 207.315 41.4102 207.315 43.1562C207.315 45.3828 205.335 46.9707 202.458 46.9707C199.892 46.9707 198.163 45.7812 197.7 43.6016L199.159 43.2441C199.522 44.7969 200.642 45.6055 202.429 45.6055C204.444 45.6055 205.745 44.5918 205.745 43.2266C205.745 42.1777 205.054 41.4395 203.618 41.0938L201.479 40.584C199.2 40.0391 198.134 38.8438 198.134 37.0918C198.134 34.9355 200.056 33.4238 202.698 33.4238ZM218.907 51.6055L217.39 51.6055L217.39 33.6055L218.86 33.6055L218.86 36.1016L219.042 36.1016C219.581 34.9238 220.636 33.4238 223.05 33.4238C226.278 33.4238 228.452 36.1426 228.452 40.1855C228.452 44.2402 226.267 46.9707 223.068 46.9707C220.694 46.9707 219.569 45.4707 219.042 44.2637L218.907 44.2637L218.907 51.6055ZM242.062 43.9004C241.464 45.5469 239.701 46.9707 237.076 46.9707C233.414 46.9707 231.111 44.1992 231.111 40.2266C231.111 36.2656 233.455 33.4238 236.847 33.4238C239.683 33.4238 242.384 35.4805 242.384 39.8516L242.384 40.6016L232.634 40.6016C232.705 43.625 234.398 45.5762 237.076 45.5762C238.933 45.5762 240.117 44.6094 240.621 43.4316L242.062 43.9004ZM271.246 33.4238C273.637 33.4238 275.038 34.584 275.676 36.4766L274.288 36.8691C273.877 35.6914 273.01 34.7656 271.246 34.7656C269.477 34.7656 268.211 35.6914 268.211 37.0215C268.211 38.1582 268.967 38.8145 270.596 39.2188L272.571 39.7051C274.762 40.2441 275.864 41.4102 275.864 43.1562C275.864 45.3828 273.883 46.9707 271.006 46.9707C268.44 46.9707 266.711 45.7812 266.248 43.6016L267.707 43.2441C268.071 44.7969 269.19 45.6055 270.977 45.6055C272.993 45.6055 274.293 44.5918 274.293 43.2266C274.293 42.1777 273.602 41.4395 272.166 41.0938L270.028 40.584C267.748 40.0391 266.682 38.8438 266.682 37.0918C266.682 34.9355 268.604 33.4238 271.246 33.4238ZM323.785 44.627C323.24 45.7812 321.91 46.9941 319.731 46.9941C317.352 46.9941 315.424 45.5645 315.424 43.0391C315.424 40.4492 317.498 39.623 320.451 39.2539C322.655 38.9844 323.879 38.9668 323.879 37.9766L323.879 37.6719C323.879 35.8789 322.783 34.7891 320.797 34.7891C318.905 34.7891 317.721 35.75 317.24 36.875L315.799 36.3594C316.69 34.2207 318.752 33.4238 320.75 33.4238C322.754 33.4238 325.397 34.2969 325.397 37.8066L325.397 46.6953L323.879 46.6953L323.879 44.627L323.785 44.627ZM377.273 47.0352C377.273 50.3574 374.976 51.875 371.871 51.875C369.193 51.875 367.523 50.75 366.755 49.25L368.003 48.4355C368.554 49.4316 369.632 50.5156 371.871 50.5156C374.191 50.5156 375.749 49.3789 375.749 46.9414L375.749 43.9941L375.615 43.9941C375.093 45.1953 373.945 46.5605 371.589 46.5605C368.455 46.5605 366.205 44.1289 366.205 40.1152C366.205 36.1367 368.378 33.4238 371.619 33.4238C374.021 33.4238 375.099 34.9238 375.638 36.1016L375.79 36.1016L375.79 33.6055L377.273 33.6055L377.273 47.0352ZM475.713 43.9004C475.115 45.5469 473.351 46.9707 470.726 46.9707C467.064 46.9707 464.761 44.1992 464.761 40.2266C464.761 36.2656 467.105 33.4238 470.498 33.4238C473.334 33.4238 476.035 35.4805 476.035 39.8516L476.035 40.6016L466.285 40.6016C466.355 43.625 468.048 45.5762 470.726 45.5762C472.584 45.5762 473.767 44.6094 474.271 43.4316L475.713 43.9004ZM483.735 33.4238C486.126 33.4238 487.526 34.584 488.165 36.4766L486.776 36.8691C486.366 35.6914 485.499 34.7656 483.735 34.7656C481.966 34.7656 480.7 35.6914 480.7 37.0215C480.7 38.1582 481.456 38.8145 483.085 39.2188L485.059 39.7051C487.251 40.2441 488.352 41.4102 488.352 43.1562C488.352 45.3828 486.372 46.9707 483.495 46.9707C480.928 46.9707 479.2 45.7812 478.737 43.6016L480.196 43.2441C480.559 44.7969 481.678 45.6055 483.466 45.6055C485.481 45.6055 486.782 44.5918 486.782 43.2266C486.782 42.1777 486.091 41.4395 484.655 41.0938L482.516 40.584C480.237 40.0391 479.171 38.8438 479.171 37.0918C479.171 34.9355 481.092 33.4238 483.735 33.4238ZM501.954 43.9004C501.356 45.5469 499.593 46.9707 496.968 46.9707C493.306 46.9707 491.003 44.1992 491.003 40.2266C491.003 36.2656 493.347 33.4238 496.739 33.4238C499.575 33.4238 502.276 35.4805 502.276 39.8516L502.276 40.6016L492.526 40.6016C492.597 43.625 494.29 45.5762 496.968 45.5762C498.825 45.5762 500.009 44.6094 500.513 43.4316L501.954 43.9004ZM520.072 44.627C519.527 45.7812 518.197 46.9941 516.018 46.9941C513.639 46.9941 511.711 45.5645 511.711 43.0391C511.711 40.4492 513.785 39.623 516.738 39.2539C518.941 38.9844 520.166 38.9668 520.166 37.9766L520.166 37.6719C520.166 35.8789 519.07 34.7891 517.084 34.7891C515.191 34.7891 514.008 35.75 513.527 36.875L512.086 36.3594C512.977 34.2207 515.039 33.4238 517.037 33.4238C519.041 33.4238 521.684 34.2969 521.684 37.8066L521.684 46.6953L520.166 46.6953L520.166 44.627L520.072 44.627ZM530.082 33.4238C532.472 33.4238 533.873 34.584 534.511 36.4766L533.123 36.8691C532.713 35.6914 531.845 34.7656 530.082 34.7656C528.312 34.7656 527.047 35.6914 527.047 37.0215C527.047 38.1582 527.802 38.8145 529.431 39.2188L531.406 39.7051C533.597 40.2441 534.699 41.4102 534.699 43.1562C534.699 45.3828 532.718 46.9707 529.841 46.9707C527.275 46.9707 525.547 45.7812 525.084 43.6016L526.543 43.2441C526.906 44.7969 528.025 45.6055 529.812 45.6055C531.828 45.6055 533.129 44.5918 533.129 43.2266C533.129 42.1777 532.437 41.4395 531.002 41.0938L528.863 40.584C526.584 40.0391 525.517 38.8438 525.517 37.0918C525.517 34.9355 527.439 33.4238 530.082 33.4238ZM549.138 33.4238C551.529 33.4238 552.93 34.584 553.568 36.4766L552.18 36.8691C551.769 35.6914 550.902 34.7656 549.138 34.7656C547.369 34.7656 546.103 35.6914 546.103 37.0215C546.103 38.1582 546.859 38.8145 548.488 39.2188L550.463 39.7051C552.654 40.2441 553.756 41.4102 553.756 43.1562C553.756 45.3828 551.775 46.9707 548.898 46.9707C546.332 46.9707 544.603 45.7812 544.14 43.6016L545.599 43.2441C545.963 44.7969 547.082 45.6055 548.869 45.6055C550.885 45.6055 552.185 44.5918 552.185 43.2266C552.185 42.1777 551.494 41.4395 550.058 41.0938L547.92 40.584C545.64 40.0391 544.574 38.8438 544.574 37.0918C544.574 34.9355 546.496 33.4238 549.138 33.4238ZM567.926 40.209C567.926 44.1992 565.559 46.9707 562.166 46.9707C558.773 46.9707 556.406 44.1992 556.406 40.209C556.406 36.1953 558.773 33.4238 562.166 33.4238C565.559 33.4238 567.926 36.1953 567.926 40.209ZM582.108 40.209C582.108 44.1992 579.74 46.9707 576.348 46.9707C572.955 46.9707 570.588 44.1992 570.588 40.209C570.588 36.1953 572.955 33.4238 576.348 33.4238C579.74 33.4238 582.108 36.1953 582.108 40.209ZM613.814 44.627C613.269 45.7812 611.939 46.9941 609.759 46.9941C607.38 46.9941 605.452 45.5645 605.452 43.0391C605.452 40.4492 607.527 39.623 610.48 39.2539C612.683 38.9844 613.908 38.9668 613.908 37.9766L613.908 37.6719C613.908 35.8789 612.812 34.7891 610.826 34.7891C608.933 34.7891 607.749 35.75 607.269 36.875L605.827 36.3594C606.718 34.2207 608.781 33.4238 610.779 33.4238C612.783 33.4238 615.425 34.2969 615.425 37.8066L615.425 46.6953L613.908 46.6953L613.908 44.627L613.814 44.627ZM623.823 33.4238C626.214 33.4238 627.614 34.584 628.253 36.4766L626.864 36.8691C626.454 35.6914 625.587 34.7656 623.823 34.7656C622.054 34.7656 620.788 35.6914 620.788 37.0215C620.788 38.1582 621.544 38.8145 623.173 39.2188L625.147 39.7051C627.339 40.2441 628.44 41.4102 628.44 43.1562C628.44 45.3828 626.46 46.9707 623.583 46.9707C621.017 46.9707 619.288 45.7812 618.825 43.6016L620.284 43.2441C620.647 44.7969 621.767 45.6055 623.554 45.6055C625.569 45.6055 626.87 44.5918 626.87 43.2266C626.87 42.1777 626.179 41.4395 624.743 41.0938L622.604 40.584C620.325 40.0391 619.259 38.8438 619.259 37.0918C619.259 34.9355 621.181 33.4238 623.823 33.4238ZM19.484 34.8242C17.4215 34.8242 15.9215 36.2305 15.9215 38.5156L15.9215 46.6953L14.4039 46.6953L14.4039 33.6055L15.8746 33.6055L15.8746 35.6562L16.0153 35.6562C16.6246 34.3203 17.9489 33.4355 19.8649 33.4355C22.5075 33.4355 24.3063 35.1113 24.3063 38.2168L24.3063 46.6953L22.7887 46.6953L22.7887 38.3105C22.7887 36.1719 21.4938 34.8242 19.484 34.8242ZM68.7028 34.8242C66.6403 34.8242 65.1403 36.2305 65.1403 38.5156L65.1403 46.6953L63.6227 46.6953L63.6227 33.6055L65.0934 33.6055L65.0934 35.6562L65.234 35.6562C65.8434 34.3203 67.1676 33.4355 69.0836 33.4355C71.7262 33.4355 73.525 35.1113 73.525 38.2168L73.525 46.6953L72.0075 46.6953L72.0075 38.3105C72.0075 36.1719 70.7125 34.8242 68.7028 34.8242ZM358.049 34.8242C355.987 34.8242 354.487 36.2305 354.487 38.5156L354.487 46.6953L352.969 46.6953L352.969 33.6055L354.44 33.6055L354.44 35.6562L354.581 35.6562C355.19 34.3203 356.514 33.4355 358.43 33.4355C361.073 33.4355 362.872 35.1113 362.872 38.2168L362.872 46.6953L361.354 46.6953L361.354 38.3105C361.354 36.1719 360.059 34.8242 358.049 34.8242ZM590.524 34.8242C588.461 34.8242 586.961 36.2305 586.961 38.5156L586.961 46.6953L585.444 46.6953L585.444 33.6055L586.914 33.6055L586.914 35.6562L587.055 35.6562C587.664 34.3203 588.989 33.4355 590.905 33.4355C593.547 33.4355 595.346 35.1113 595.346 38.2168L595.346 46.6953L593.828 46.6953L593.828 38.3105C593.828 36.1719 592.534 34.8242 590.524 34.8242ZM54.522 45.3887C56.2915 45.3887 58.0962 44.0938 58.0962 41.6914L58.0962 33.6055L59.6138 33.6055L59.6138 46.6953L58.0962 46.6953L58.0962 44.5215L57.979 44.5215C57.3638 45.8691 56.0044 46.8652 54.0826 46.8652C51.5689 46.8652 49.7818 45.1895 49.7818 42.084L49.7818 33.6055L51.2994 33.6055L51.2994 41.9902C51.2994 44.0352 52.6294 45.3887 54.522 45.3887ZM166.286 46.6953L164.762 46.6953L164.762 33.6055L166.286 33.6055L166.286 46.6953ZM189.232 45.3887C191.002 45.3887 192.806 44.0938 192.806 41.6914L192.806 33.6055L194.324 33.6055L194.324 46.6953L192.806 46.6953L192.806 44.5215L192.689 44.5215C192.074 45.8691 190.715 46.8652 188.793 46.8652C186.279 46.8652 184.492 45.1895 184.492 42.084L184.492 33.6055L186.01 33.6055L186.01 41.9902C186.01 44.0352 187.34 45.3887 189.232 45.3887ZM348.945 46.6953L347.422 46.6953L347.422 33.6055L348.945 33.6055L348.945 46.6953ZM392.52 46.6953L390.955 46.6953L387 33.6055L388.6 33.6055L391.705 44.4043L391.816 44.4043L394.91 33.6055L396.521 33.6055L399.586 44.375L399.709 44.375L402.809 33.6055L404.414 33.6055L400.459 46.6953L398.889 46.6953L395.789 35.9668L395.625 35.9668L392.52 46.6953ZM408.911 46.6953L407.387 46.6953L407.387 33.6055L408.911 33.6055L408.911 46.6953ZM29.1626 40.1562C29.1626 43.209 30.5982 45.5762 33.2056 45.5762C35.7427 45.5762 37.2076 43.3203 37.2076 40.1562C37.2076 37.0215 35.7603 34.8066 33.2056 34.8066C30.5806 34.8066 29.1626 37.1387 29.1626 40.1562ZM83.9041 40.209C83.9041 43.1387 85.4217 45.5762 88.1404 45.5762C90.8592 45.5762 92.3768 43.1387 92.3768 40.209C92.3768 37.2793 90.8592 34.8066 88.1404 34.8066C85.4217 34.8066 83.9041 37.2793 83.9041 40.209ZM147.316 34.8066C144.919 34.8066 143.273 36.8281 143.115 39.2656L151.306 39.2656C151.306 36.7402 149.66 34.8066 147.316 34.8066ZM171.16 40.209C171.16 43.1387 172.677 45.5762 175.396 45.5762C178.115 45.5762 179.632 43.1387 179.632 40.209C179.632 37.2793 178.115 34.8066 175.396 34.8066C172.677 34.8066 171.16 37.2793 171.16 40.209ZM222.886 34.8066C220.319 34.8066 218.89 37.0215 218.89 40.1562C218.89 43.3203 220.355 45.5762 222.886 45.5762C225.487 45.5762 226.935 43.209 226.935 40.1562C226.935 37.1387 225.517 34.8066 222.886 34.8066ZM236.847 34.8066C234.451 34.8066 232.804 36.8281 232.646 39.2656L240.837 39.2656C240.837 36.7402 239.191 34.8066 236.847 34.8066ZM367.728 40.0918C367.728 43.0918 369.169 45.1719 371.771 45.1719C374.29 45.1719 375.773 43.25 375.773 40.0918C375.773 37.0215 374.337 34.8066 371.771 34.8066C369.146 34.8066 367.728 37.1387 367.728 40.0918ZM470.498 34.8066C468.101 34.8066 466.455 36.8281 466.297 39.2656L474.488 39.2656C474.488 36.7402 472.841 34.8066 470.498 34.8066ZM496.739 34.8066C494.343 34.8066 492.696 36.8281 492.538 39.2656L500.729 39.2656C500.729 36.7402 499.083 34.8066 496.739 34.8066ZM557.93 40.209C557.93 43.1387 559.447 45.5762 562.166 45.5762C564.885 45.5762 566.402 43.1387 566.402 40.209C566.402 37.2793 564.885 34.8066 562.166 34.8066C559.447 34.8066 557.93 37.2793 557.93 40.209ZM572.112 40.209C572.112 43.1387 573.629 45.5762 576.348 45.5762C579.067 45.5762 580.584 43.1387 580.584 40.209C580.584 37.2793 579.067 34.8066 576.348 34.8066C573.629 34.8066 572.112 37.2793 572.112 40.209ZM1.91602 43.1094C1.91602 44.6914 3.19336 45.6055 4.91016 45.6055C7.33008 45.6055 8.85352 43.8242 8.85352 41.6738L8.85352 39.7812C8.41406 40.2207 6.50391 40.4551 5.42578 40.584C3.21094 40.8594 1.91602 41.5215 1.91602 43.1094ZM316.942 43.1094C316.942 44.6914 318.219 45.6055 319.936 45.6055C322.356 45.6055 323.879 43.8242 323.879 41.6738L323.879 39.7812C323.44 40.2207 321.53 40.4551 320.451 40.584C318.237 40.8594 316.942 41.5215 316.942 43.1094ZM513.229 43.1094C513.229 44.6914 514.506 45.6055 516.223 45.6055C518.643 45.6055 520.166 43.8242 520.166 41.6738L520.166 39.7812C519.727 40.2207 517.816 40.4551 516.738 40.584C514.523 40.8594 513.229 41.5215 513.229 43.1094ZM606.97 43.1094C606.97 44.6914 608.247 45.6055 609.964 45.6055C612.384 45.6055 613.908 43.8242 613.908 41.6738L613.908 39.7812C613.468 40.2207 611.558 40.4551 610.48 40.584C608.265 40.8594 606.97 41.5215 606.97 43.1094ZM281.626 45.5938C281.626 46.2676 281.081 46.8242 280.395 46.8242C279.721 46.8242 279.171 46.2676 279.171 45.5938C279.171 44.9141 279.721 44.3691 280.395 44.3691C281.081 44.3691 281.626 44.9141 281.626 45.5938ZM50.3454 59.2656C50.3454 59.8574 49.8239 60.3555 49.2028 60.3555C48.5817 60.3555 48.0661 59.8574 48.0661 59.2656C48.0661 58.668 48.5817 58.1699 49.2028 58.1699C49.8239 58.1699 50.3454 58.668 50.3454 59.2656ZM70.116 59.2656C70.116 59.8574 69.5945 60.3555 68.9734 60.3555C68.3523 60.3555 67.8425 59.8574 67.8425 59.2656C67.8425 58.668 68.3523 58.1699 68.9734 58.1699C69.5945 58.1699 70.116 58.668 70.116 59.2656ZM24.5082 69.209C24.5082 73.1992 22.141 75.9707 18.7484 75.9707C15.3558 75.9707 12.9886 73.1992 12.9886 69.209C12.9886 65.1953 15.3558 62.4238 18.7484 62.4238C22.141 62.4238 24.5082 65.1953 24.5082 69.209ZM64.8462 69.209C64.8462 73.1992 62.4791 75.9707 59.0865 75.9707C55.6939 75.9707 53.3267 73.1992 53.3267 69.209C53.3267 65.1953 55.6939 62.4238 59.0865 62.4238C62.4791 62.4238 64.8462 65.1953 64.8462 69.209ZM78.8278 63.8242C76.7653 63.8242 75.2653 65.2305 75.2653 67.5156L75.2653 75.6953L73.7477 75.6953L73.7477 62.6055L75.2184 62.6055L75.2184 64.6562L75.359 64.6562C75.9684 63.3203 77.2926 62.4355 79.2086 62.4355C81.8512 62.4355 83.65 64.1113 83.65 67.2168L83.65 75.6953L82.1325 75.6953L82.1325 67.3105C82.1325 65.1719 80.8375 63.8242 78.8278 63.8242ZM5.64258 77.7637C4.94531 79.668 3.73828 80.6055 2.10352 80.6055C1.50586 80.6055 0.943359 80.4766 0.638672 80.3301L1.04883 78.9941C2.58984 79.4805 3.61523 79.1289 4.33594 77.1543L4.81641 75.8242L0 62.6055L1.64648 62.6055L5.53125 73.6914L5.64844 73.6914L9.53906 62.6055L11.1797 62.6055L5.64258 77.7637ZM32.5845 74.3887C34.354 74.3887 36.1587 73.0938 36.1587 70.6914L36.1587 62.6055L37.6763 62.6055L37.6763 75.6953L36.1587 75.6953L36.1587 73.5215L36.0415 73.5215C35.4263 74.8691 34.0669 75.8652 32.1451 75.8652C29.6314 75.8652 27.8443 74.1895 27.8443 71.084L27.8443 62.6055L29.3619 62.6055L29.3619 70.9902C29.3619 73.0352 30.6919 74.3887 32.5845 74.3887ZM48.4528 76.9668L48.4528 62.6055L49.9762 62.6055L49.9762 76.9668C49.9762 79.1992 48.6871 80.6055 46.4723 80.6055C46.361 80.6055 46.2496 80.6055 46.1149 80.5938L46.1325 79.1699L46.4547 79.1699C47.7028 79.1699 48.4528 78.3613 48.4528 76.9668ZM69.7234 75.6953L68.1999 75.6953L68.1999 62.6055L69.7234 62.6055L69.7234 75.6953ZM90.0943 64.7031C90.0943 65.377 89.5494 65.9277 88.8638 65.9277C88.19 65.9277 87.6392 65.377 87.6392 64.7031C87.6392 64.0176 88.19 63.4727 88.8638 63.4727C89.5494 63.4727 90.0943 64.0176 90.0943 64.7031ZM14.5121 69.209C14.5121 72.1387 16.0297 74.5762 18.7484 74.5762C21.4672 74.5762 22.9847 72.1387 22.9847 69.209C22.9847 66.2793 21.4672 63.8066 18.7484 63.8066C16.0297 63.8066 14.5121 66.2793 14.5121 69.209ZM54.8501 69.209C54.8501 72.1387 56.3677 74.5762 59.0865 74.5762C61.8052 74.5762 63.3228 72.1387 63.3228 69.209C63.3228 66.2793 61.8052 63.8066 59.0865 63.8066C56.3677 63.8066 54.8501 66.2793 54.8501 69.209ZM90.0943 74.1426C90.0943 74.8164 89.5494 75.373 88.8638 75.373C88.19 75.373 87.6392 74.8164 87.6392 74.1426C87.6392 73.4629 88.19 72.918 88.8638 72.918C89.5494 72.918 90.0943 73.4629 90.0943 74.1426Z" fill="#000000" fill-opacity="1.000000" fill-rule="evenodd"/>
</svg>
